<svg id="Layer_1" xmlns="http://www.w3.org/2000/svg" width="170" height="170" viewBox="0 0 170 170"><style>.collision-1-st0{fill:#1f242d}.collision-1-st1{fill:#2b323a}.collision-1-st2{fill:#3c424b}.collision-1-st3,.collision-1-st4,.collision-1-st5{fill:none;stroke:#fff;stroke-miterlimit:10}.collision-1-st4{stroke-dasharray:21.1532,5.9229}.collision-1-st5{stroke-dasharray:27.4812,7.6947}.collision-1-st6{cursor:pointer}#main_fragment{-webkit-animation:main-bop 5s cubic-bezier(.5,0,.5,1) 0s infinite;animation:main-bop 5s cubic-bezier(.5,0,.5,1) 0s infinite}@-webkit-keyframes main-bop{0%,to{-webkit-transform:translateY(0);transform:translateY(0)}50%{-webkit-transform:translateY(10px);transform:translateY(10px)}}@keyframes main-bop{0%,to{-webkit-transform:translateY(0);transform:translateY(0)}50%{-webkit-transform:translateY(10px);transform:translateY(10px)}}#fragmentA{-webkit-animation:fragment-a-bop 5s cubic-bezier(.5,0,.5,1) 0s infinite;animation:fragment-a-bop 5s cubic-bezier(.5,0,.5,1) 0s infinite}@-webkit-keyframes fragment-a-bop{0%,to{-webkit-transform:translateY(-5px);transform:translateY(-5px)}50%{-webkit-transform:translateY(20px);transform:translateY(20px)}}@keyframes fragment-a-bop{0%,to{-webkit-transform:translateY(-5px);transform:translateY(-5px)}50%{-webkit-transform:translateY(20px);transform:translateY(20px)}}#fragmentB{-webkit-animation:fragment-b-bop 5s cubic-bezier(.5,0,.5,1) 0s infinite;animation:fragment-b-bop 5s cubic-bezier(.5,0,.5,1) 0s infinite}@-webkit-keyframes fragment-b-bop{0%,to{-webkit-transform:translateY(-5px);transform:translateY(-5px)}50%{-webkit-transform:translateY(15px);transform:translateY(15px)}}@keyframes fragment-b-bop{0%,to{-webkit-transform:translateY(-5px);transform:translateY(-5px)}50%{-webkit-transform:translateY(15px);transform:translateY(15px)}}</style><g id="fragments"><g id="main_fragment"><path class="collision-1-st0" d="M51.6 47.8l47.8-21.5L85 93.9l-54.8 19z"/><path class="collision-1-st1" d="M129.8 76.3l-30.4-50L85 93.9l42.3 39.7z"/><path class="collision-1-st2" d="M30.2 112.9l37.2 29.7 59.9-9L85 93.9z"/></g><g id="fragmentA"><path class="collision-1-st1" d="M45.8 18.7l-16.7 28 2 10.3z"/><path class="collision-1-st0" d="M29.1 46.7l-9.3-.3-5.6-12.7 31.6-15z"/><path class="collision-1-st2" d="M19.8 46.4l-6.3 14.4L31.1 57l-1.9-10.3z"/><path class="collision-1-st1" d="M14.2 33.7l5.6 12.7-6.3 14.4z"/></g><g id="fragmentB"><path class="collision-1-st2" d="M131.4 50.1l9.6 24.3 16.2-24.2-12.2-7.4z"/><path class="collision-1-st0" d="M113.7 39.7l17.7 10.4 13.6-7.3L137.3 5z"/><path class="collision-1-st1" d="M145 42.8l12.2 7.4V38L137.3 5zm-13.6 7.3l-17.7-10.4L141 74.4z"/></g></g></svg>