<svg id="Layer_1" xmlns="http://www.w3.org/2000/svg" width="1438" height="828" viewBox="421 6.9 1438 828"><style>.st0{fill:url(#SVGID_1_)}.st1{opacity:.1}.st2{fill:#001321}.st3{opacity:.6}.st4{opacity:.5;fill:none;stroke:#fff;stroke-miterlimit:10;stroke-dasharray:50,5;stroke-dashoffset:55;enable-background:new}</style><g id="Layer_2_2_"><linearGradient id="SVGID_1_" gradientUnits="userSpaceOnUse" x1="1140" y1="828.715" x2="1140" y2="15.182" gradientTransform="translate(0 -4.44)"><stop offset="0" stop-color="#acb9c6"/><stop offset=".95" stop-color="#455868"/></linearGradient><path class="st0" d="M421 6.9h1438v827.7H421z"/></g><g id="Layer_4_1_" class="st1"><path class="st2" d="M644.8 605.9l-16.6-8.9h16.6zm1166.4-369l-16.4-8.9h16.4zM1450.8 41.3l-16.5-8.9h16.5zm326.9 617.1l-16.5-8.9h16.5zm-536.3-278.6l-16.5-8.9h16.5zm-791.1-65.4l8.4 13.3 10.1 2.6 10.7-8.1-19.1-7.8z"/><path id="A1" class="st2" d="M431 524.9l12.7 12.6 5.1-17.7z"/><path id="A3_1_" class="st2" d="M734.7 77l2.4 9.9 6.2-1.2-1.4-7.1z"/><path id="A7" class="st2" d="M1331.6 740l18.2-25 17.4 15-22.7 27.4z"/><path id="A9" class="st2" d="M1471.5 357l-15.4 6.5 7.7 12.6h17.7z"/><path id="A9_3_" class="st2" d="M724.1 489.6l-15.4 6.5 7.7 12.6h17.7z"/><path id="A9_2_" class="st2" d="M1366.2 601.4l-15.4 6.5 7.7 12.6h17.7z"/><path id="A9_1_" class="st2" d="M1759.3 145.5l-5.5 2.3 2.7 4.4h6.3z"/><path class="st2" d="M1526.5 622.7l12.2 6.4 9-11.5-16-2.9zM613.2 469.1l8 16.3 9.2-8.1zm269.1 242.4l9 17.8 22.4-8.9-4.7-8.9zM583.2 152.2l2.8 7.7 13.6-3.8-4.9-3.9zm809 563v14.3l18.4-5.6 4.2-8.7zm-99 72.7l10.8 9.6 15-19.2h-12.9zm-290.9 34.4l16.5 9.6 5.3-9.6-8.3-5.9zm259.1-20.2l9 14.8 7.7-9-5.3-9.4zm-345.2-50.2l9 14.8 7.7-9-5.2-9.4zm401.2-75.6l23 7 16-14-27-4zM974.7 778.5l10 21 16-12-13-9zm-60.6-114.7l10 21 11-9-6-8zm58.2 149.3l-12-23-9 9zm-11.5-86.3l11 18 12-15-11-11zM824.9 564.7c3 0 32 11 32 11l8-15-21-6-19 10zm-90.4 54.1l12 9 17-12-11-4zm-24.1-177l1 27 10-6-2-15zm-160-108.5l7 21 22-16-14-16zM652 533.5l14 11 8-20h-18zm108.2-350.2l14 14 5-21zM668 712.9l8 15 15-9zm67.5 43.7l17 12 6-9zm71.3-53.2l13 17 12-11-12-12zM497 420.4l13 17 12-11-12-12zm56.9 4.6l1.5 3.4 7.5 17.6 13-10-12-12M449 388.9l5 22 16-10-5-13zm241.3-214l6 14 18-17zm-249.6-110l6 14 18-17zm1264.4 211.8l6 14 18-17zM514 93l2 17 7-10zm361 214.9l2 13.5 9.5 2zm4-219.5l1.5 18 4-14zM685.8 340.3l5.4 6 1-8zm-161.3-74.4l2.5 19.5 7-7zm834.3-160.1l2.4 19.5 7-7zm-469.6 251l2.5 19.5 7-7zM436.5 238.9c.5 1.5 8 16 7.5 14.5s7.5-9 7.5-9l-1-8.5-14 3zm2.5 211.5l-3.5 10.5 7-2 2-9.5zm-.5 177l2 15 5.5-7.5zm137.2-108.2l13 12 2-13.5zm232.2 259.2l-3.5 9.5 15-2.5zM549 719.9l-.5 11 6-4zm11.5-100.5l10 .5 3.5-10.5zm318-3l9.5 6.5 10-12zm122.3 112.1l-10 14 9.5 1.5zm377.9 15.7l3.5 18 7-10.5zm-15.2-41.4l4.5 10 5-10zm186-143.1l8.5 20 5.5-12zm42.2 38.8l-.5 11 7.5-6 1.5-5zm-187.2-27.6l1.5 21.5 12-4.5-1.5-11.5zm289-195.5l-1 17 11-2.5.5-7.5zm-317.3 3.7l-1 17 11-2.5.5-7.5zm385.5-99.6l-3 13 9.5-4-.5-9.5zm-182.5-21.6l-3 13 9.5-4-.5-9.5zm73 451.4l-3 13 9.6-4-.6-9.5zm78-399.9l-3 13 9.5-4-.5-9.5zm-175.4 80.4l-3 13 9.4-4-.4-9.5zm-262.6 243.8l-3 13 9.5-4-.5-9.5zm441.9-41.4l-3 13 9.5-4-.5-9.5zm-357.2-324.8l-3 13 9.5-4-.5-9.5zM1562.4 154l-3 13 9.5-4-.5-9.5zm280.1 73.4l-7.5 17.5 7 2 5-15zM1732.6 87.6l-7.5 17.5 7 2 5-15zm89.7 58.2l11 14.5 5-12.5-3-5zm-6.8 29.1l7 6-8 11zM799.3 510.2l7 6-8 11zm865.9-428.3l7 6-8 11zm20.3 93.3l5.5 17 4-5zm-68.8 130.3l-14 12.5 6 6 10-10.5zM1750 425.9l-1 14 9-2.5zm-77-162l-1 14 9-2.5zm-116.5 163l.5 12.5 9.5-7.5zm162.1-10.2l9.5 10h-13zm65.4 161.2l13 13-13 3zM645.8 20.1l13 13-13 3zm582 551.6l13 13-13 3zm-699.5-42.2l13 13-13 3zm1038.9 198.1l-8 15.5 8.6-3zM1017 621.3l-8 15.5 8.5-3zm275.9-342.4l-8 15.5 8.5-3zM656 250.2l-8 15.5 8.5-3zm790.3 466.1l-8 15.5 8.5-3zm311.3-196.9l-8 15.5 8.5-3zm-412.2-42.5l-8 15.5 8.5-3zm-635 147.5l-8 15.5 8.5-3zm-115.3-181l-8 15.5 8.5-3zm56.7-222.6l-8 15.5 8.4-3zm1146.7 256.1l-3.5 15.5 8-2.5zM582.7 488.1l-3.5 15.5 8-2.5zm1230.8-119.2l3 12.5 7.5-9.5zM1682 318.8l-.5 1.7-5 16.8 15.5-1.5 2.5-19zm-37.5 154.1c0 1.5-1.5 17-1.5 17l10 2 1-13-9.5-6zM1584.3 55l10 4 6.5-14.5zm141.6-33.8l-4.5 20 6.5.5 4-10zm119.9-8.8l-7 20 12.5 4.5 1.5-14zm-24.3 70.3l-2 14.5 8.5 1 4-13zm-274.3 385.1l-17.6 35.1 34.4 6.9 8.4-33.6zm13.6 50.9c-2.4.4-43.8 12.1-43.8 12.1l19.4 14.1 21.1-15.1 3.3-11.1zm58.8-273l20.6-45.1 30.6 22.2-43.6 35.1zM706.2 362.8l20.6-45.1 30.7 22.1-43.7 35.2zm689 154.7l32.1-9.9-.8 19.8-26 2.3zm397.3-468.8l1.5 36.6 12.3-3 28.2-31.4zm-128.9 373l-40.5 20.6-3.1 23.7 50.4.8zm-968.1-9.1L655 433.2l-3.1 23.7 50.4.8zm890 65.8c0 2-4.6 20.8-4.6 20.8h11.2l18.3-20.3-24.9-.5zm63.2-334.9l15.7 8.7 23.4-36.6zM475 363.7l15.7 8.7 23.3-36.6zm1323.8-252.4l-6.3 35.2h8.1l31.6-34.3zM648 358.9L631.7 377l-36.1-19 13.5-42.4zm-172.3-91.3l17.2 19 24.4-15.3-33.4-26.2zm354.6 218.1l17.2 17.1-10.9 10-34.3-10.9zM597.5 88.4c.9 2.7 16.3 34.3 16.3 34.3l14.4-9 .9-33.4-31.6 8.1zM495 76.8l21.7 6.3 7.3-19-19-23.4zm104.2 412l19 21.7 9-22.6zM433.3 28.1L477.6 48l18.9-15.4zm336.4 266.2c2.7 0 9 22.6 9 22.6l13.5-13.5-22.5-9.1zM727 545.9l3.6 28 19.8-19.9zm51.7-56.2l18-5.4 3.5-56L766 459zm-34.2-88l18-5.5 3.7-56-34.4 30.8zM638.3 179.4c-3.2 2-50.1 66.5-50.1 66.5l47.3-.4 2.8-66.1zm-185.6-16.2c2.7 1.8 68.6 47.9 68.6 47.9v-53.3l-42.4-8.1-26.2 13.5zm392.2 474l15.3 20.7 21.7-22.6zm-76.1 6.7l11.8 15.3 4.5-17.1zm12-61.4c.9 2.7 20.8 37.9 20.8 37.9l41.4-19.9-62.2-18zm758-288.1l6.3 50.1 35-2 4.1-15.1zm-933.2 74.1l6.2 50.1 35-2.1 4.1-15.1zM1420.7 545l12.4 19.2 15.1-11 4.1-13.7zm-47.4 121.3l10.4 13.1 27.4-15.8-17.2-7.6zm84.9-215.8l14.6 6.9 7.4-23.3-16.4 1.3zM1481 545l14.4 6.9 7.6-23.4-16.5 1.4zm-32.1-54.7l1.4 13.1 11.7-4.8-5.5-10.3zM1269.8 677l1.3 12.3 7.5-6.2 4.8-10.3zM1522 334.1l15.1 6.2-6.2 6.2zm-63.5 80.4l1.4 15.1 8.9-7.6zm176.3-121.7l6.8 34.3 21.3-22.6zm-100.3-58.6l2.1 11.7 14.4-13.1zM750.2 32.9l2.1 11.7 14.5-13.1zm383.7 513.8l2.1 11.7 14.4-13.1zm250-86.3l2.2 11.7 14.3-13.1zm216.4-368.2l2.1 11.7 14.4-13.1zm10.4 90.8l12.4 4.1 5.4-10.3zm82.5 369.9l12.4 4.1 5.4-10.3zM1377.8 78.6l12.4 4.1 5.4-10.3zm147.8 5.1l12.4 4.1 5.4-10.3zm53.7 297.2c1.2 4.6 5.8 67.2 5.8 67.2L1621 418l-41.7-37.1zm177.9-201.3l-37 66.1 67.2-17.4zm-527.3 573.6c.8 1.6 3.1 5.9 3.1 5.9l3.5-4.7-6.6-1.2zm-220-569.4c.8 1.6 3.1 5.9 3.1 5.9l3.5-4.7-6.6-1.2zm108.6 578.8l3.6 6.7 3.5-8.3zm191.6-261.8l3.6 6.7 3.5-8.3zM1140.6 64.4l3.6 6.7 3.5-8.3zM855 29.9l3.5 6.7 3.5-8.3zm169.1 502.5l3.6 6.7 3.5-8.3zm626.3 260.4l3.7 6.7 3.5-8.3zM544.6 653l3.6 6.7 3.5-8.3zm545.6 131.7l4.7 10.2v-11.8zm-48.8 45.6l3.1 4.3 2-4.3zm-155-20.2l7.5 2.7-.4-5.1zm367.7-643.2l7.5 2.7-.4-5.1zM688.5 575.6l7.5 2.7-.4-5.1zm1047.4-200.4l7.5 2.7-.4-5.1zM680.8 80.1l7.5 2.7-.4-5.1zm830.5-48.8l7.5 2.7-.4-5.1zm-955.1-6.8l7.5 2.7-.4-5.1zm161.5 222.2l7.5 2.7-.4-5.1zm597.5-195.1l7.6 2.7-.5-5.1zm143 723l7.6 2.7-.5-5.1zm-510.9-67.9l4.8 10.7 3.9-4.4zm4.4-239.9l4.7 10.7 3.9-4.4zm87.9 252.9l1.2 8.7 3.4-2zM865 748.8l1.2 8.7 3.5-2zm338.8-50.1l-.8 7.5 4.8.7 2.7-8.2zm-14.6 76l-2.4 7.1 3.5.4zm-16.9 46.3l-2 7.5 4.7-2 2.4-6.6zm452.9-273.1l.8 7.9 5.9-.8-1.2-7.1zM841.5 362.6l.9 7.9 5.8-.8-1.2-7.1zm798.1 470.8l.8 7.9 5.9-.8-1.2-7.1zM551.8 129.9l.8 7.9 5.9-.8-1.3-7.1zm875 500.3v23.7l19.4-11.9zm48.8-38.4l-21.5 10.6 14.7 16.2 14.8-13.8zm39.5-154.1v18.7l14.2-6v-15.2zm-41.6 243.1l7.8 12.7 10.8-9.8zm-201.2 31.7v12.7l11.5-7.5zm-450-262.2l5.2 12.7-16.2 4.7 1.7-12.2zm306.6 237.8l4.7 9.8 9.8-8.7-6.4-4.6zm-43.7 51.3l1 10.8 12.2-4.8-4.4-6.5zm-21.4-67.8l-.5 15.6 10.4-6.3-2.9-10.5zm-50.6-106.9l13.3 9.9 1.1-8.2zm-145.4-59.9l13.3 9.9 1.1-8.2z"/><path class="st2" d="M677.4 329.1l13.3 9.9 1.1-8.2zm283.9 305.5l-2.4 15 13.4-6.3zM853.6 444.2l7.5 13.9 2.3-12.7zM663 648.6l7.5 13.9 2.3-12.8zm359.7-521.7l7.5 13.9 2.3-12.8zM729.1 655.5l7.6 13.9 2.3-12.7zm768.1-58.5l7.5 13.9 2.4-12.7zM802.6 390.2l7.5 13.9 2.3-12.7zm172.1 117.3l5.8 13.4 5.3-10.5zm361.4 65l-5.2 15.1 13.3-1.2 5.2-12.1zm462-308.3l-10.9 21.1 10 22 5.6-33.3zm-318-156.9l-10.9 21.1 9.9 22 5.7-33.3zm14.3 139.6l-10.8 21.1 9.9 22 5.6-33.3zm23.7 405.8l-10.8 21.1 9.9 22 5.6-33.3zm200.5-506.2l8.9 17.3 12.2-13.1z"/></g><g id="Layer_5" class="st3"><path class="st4" d="M1584.6 222.6l70.4 19.8M610.3 663.8l-14.5 71.7m1170.3-269.9l-47.8 23.2m-621.6-43l33.9 19.8m312-135.3l-6.1 10.2m-113.9-127.8l11.5 9.9m-231.3 371.9l14.9-8.9M775.6 547l7.5 23.6m786.2 97.1l7.5 23.6M538 455.7l-12.6 9.9m144.2-187.4l15 9.9m-182.9-54.4l93-21M464.9 594.5l36.8 5.1m1124.7-245.5l18.8 25M630.4 264.5l-34.3 57.9m-74.7 71.2l26.8 11.9M1735.8 59.1l27 7.9M548.2 73.9l23.5-6.9m-131.8 85.2l21.5 34.6m1357.2 278.8l11.3 38.5m0 228.4l-18.3 5.7m-11.3 64.8l24 3.7m-341.5 7.9l39.4-19.2m-485.8-4.1l44.7 13.6m112 9.7l96.1-57.4m417.5-437l93.6 10.1m-445 190.2l87.3-35.7m193.2-397.6l19.2 28.9m-152.5-41.5l11.5 1.2m228.2 308.6l20.6 5.1m-398.7 376.6l-2.5 19.8M758.2 663.8l21.1 54.4m161.6-181.4l-25.2 33.8M797.3 399.5l2.5 13.9m108.3-167.5l7.6 10m-83.2-170l21.4 1.3m-184.3 37.7l20.6 74.4M603 481.4l39.3 12.6M1655 612.4l21.5 15.1m112.1-409.9l-11.4 24.8M1619.8 16.6L1559.3 96M1315 25.4l19.1 30.9m-185.4-22l-8.2 22M950.9 25.4l26.5 15.5M758.2 25.4l-68 48.5M571.7 15.4l41.5 25.5M433.2 67l31.7 35.3m971.6-26.5l37.2 10.1m275.6 21.4l27.9 15.1M1464.8 597l-22.2 46.1m-383.8 56.5l8.4 18.6m-103-54.4L950.9 691m26.5-265.2l11.3 11.9m-188.9 76.5l-3 22.6M656.9 389.5l12.7 10m128.9-143.6l-1.2 22.3m685.5 9.9v5.3m-43.2 60.7l25.2 12.5m211.7 147.6v6.3m135.1 91.9v30.7m47.4-541.5l-40.4 38.3M421 437.7l12.2 22.9M421 776l54.4-37.8m1242.4-20l.5 14.3m82-146.9l29.6 26.8m-372-146.8l-18.3 48.6m-577.3 11.3l8.5 11.3m-95.2-22.6l37 22.6M571.7 283.1v57.4m145.1-215.6l-26.6 27.3m818 93.7l14 10m37.1 84.6l-7.2 38.6"/></g></svg>