<svg id="Layer_1" xmlns="http://www.w3.org/2000/svg" width="120" height="120" viewBox="-237 360.9 120 120"><style>.st0{display:none}.st1{display:inline;fill:url(#SVGID_1_)}.st2{fill:url(#SVGID_2_)}.st3{opacity:.2;fill:none;stroke:#f5f5f5;stroke-width:3;stroke-miterlimit:10;enable-background:new}.st4{opacity:.6}.st4,.st5,.st6,.st7{fill:#f5f5f5;enable-background:new}.st5{opacity:.8}.st6{opacity:.4}.st7{opacity:.2}.st8,.st9{display:inline;fill:#fff}.st9{fill:none;stroke:#fff;stroke-miterlimit:10}</style><g id="Layer_4" class="st0"><radialGradient id="SVGID_1_" cx="-175.629" cy="420.565" r="57.414" gradientTransform="matrix(1 0 0 -1 0 841.67)" gradientUnits="userSpaceOnUse"><stop offset=".553" stop-color="#fff" stop-opacity=".7"/><stop offset="1" stop-color="#fff" stop-opacity="0"/></radialGradient><circle class="st1" cx="-177" cy="420.9" r="60"/></g><g id="Layer_2"><linearGradient id="SVGID_2_" gradientUnits="userSpaceOnUse" x1="-177.2" y1="375.895" x2="-177.2" y2="425.476" gradientTransform="matrix(1 0 0 -1 0 841.67)"><stop offset="0" stop-color="#8190af"/><stop offset="1" stop-color="#1f2446"/></linearGradient><path class="st2" d="M-218.3 456.7l29.2 9.9 53-9.9-20.7-25.1 10.1-45.1-32.3-10.1-35.4 12.6 13.6 45.7z"/><path class="st3" d="M-218.3 456.7l29.2 9.9 53-9.9-20.7-25.1 10.1-45.1-32.3-10.1-35.4 12.6 13.6 45.7z"/><path class="st4" d="M-214.4 389l30.7 8.9-1.3 41.2-15.8-4.4z"/><path class="st5" d="M-183.7 397.9l37-11.4-32.3-10.1-35.4 12.6z"/><path class="st6" d="M-183.7 397.9l37-11.4-10.1 45.1-28.2 7.5zm-1.3 41.2l-2.3 13-31 4.6 17.5-22z"/><path class="st7" d="M-187.3 452.1l51.2 4.6-20.7-25.1-28.2 7.5z"/></g><g id="Layer_5" class="st0"><path class="st8" d="M-187.4 436.6h4.9v4.9h-4.9z"/><path class="st9" d="M-165 414.3h4.9v4.9h-4.9zm-33.2 11.6h4.9v4.9h-4.9z"/><path class="st9" d="M-193.3 430.8l8.3 8.3 20-20"/></g></svg>