<svg id="Layer_1" xmlns="http://www.w3.org/2000/svg" width="120" height="120" viewBox="-237 360.9 120 120"><style>.st0{fill:url(#SVGID_1_)}.st1{fill:url(#SVGID_2_)}.st2{opacity:.2;fill:none;stroke:#fff;stroke-width:3;stroke-miterlimit:10;enable-background:new}.st3,.st4{fill:#f5f5f5}.st3{enable-background:new;opacity:.9}.st4{opacity:.6}.st4,.st5,.st6{enable-background:new}.st5{fill:#f5f5f5;opacity:.4}.st6{opacity:.2}.st6,.st7,.st8{fill:#f5f5f5}.st7{fill-opacity:0}.st8{opacity:.8;enable-background:new}.st9{fill:none;stroke:#fff;stroke-miterlimit:10}</style><g id="Layer_4"><radialGradient id="SVGID_1_" cx="-175.608" cy="420.539" r="57.414" gradientTransform="matrix(1 0 0 -1 0 841.67)" gradientUnits="userSpaceOnUse"><stop offset=".603" stop-color="#fff" stop-opacity=".7"/><stop offset="1" stop-color="#fff" stop-opacity="0"/></radialGradient><circle class="st0" cx="-177" cy="420.9" r="60"/></g><g id="Layer_2"><linearGradient id="SVGID_2_" gradientUnits="userSpaceOnUse" x1="-177.4" y1="369.803" x2="-177.4" y2="446.478" gradientTransform="matrix(1 0 0 -1 0 841.67)"><stop offset="0" stop-color="#82dcff"/><stop offset="1" stop-color="#043189"/></linearGradient><path class="st1" d="M-191.7 368.2l42.3 26.6 12 33.4-24 46-44.9-24.8-11.1-34.4z"/><path class="st2" d="M-191.7 368.2l42.3 26.6 12 33.4-24 46-44.9-24.8-11.1-34.4z"/><path class="st3" d="M-191.7 368.2l-6.7 39.7 49-13.1z"/><path class="st4" d="M-198.4 407.9l49-13.1-10.1 41.3z"/><path class="st5" d="M-159.5 436.1l22.1-7.9-12-33.4z"/><path class="st6" d="M-159.5 436.1l-1.9 38.1 24-46z"/><path class="st7" d="M-159.5 436.1l-46.8 13.3 44.9 24.8z"/><path class="st5" d="M-159.5 436.1l-38.9-28.2-7.9 41.5z"/><path class="st4" d="M-198.4 407.9l-19 7.1 11.1 34.4z"/><path class="st8" d="M-217.4 415l25.7-46.8-6.7 39.7z"/></g><g id="Layer_5"><path class="st9" d="M-217.4 415l19-7.1 6.7-39.7m-6.7 39.7l38.9 28.2-1.9 38.1"/><path class="st9" d="M-159.5 436.1l10.1-41.3-49 13.1-7.9 41.5 46.8-13.3 22.1-7.9"/></g></svg>