<svg id="Layer_1" xmlns="http://www.w3.org/2000/svg" width="120" height="120" viewBox="-237 360.9 120 120"><style>.st0{display:none}.st1{display:inline;fill:url(#SVGID_1_)}.st2{fill:url(#a_3_)}.st3{opacity:.2;fill:none;stroke:#f5f5f5;stroke-width:3;stroke-miterlimit:10;enable-background:new}.st4{opacity:.9;fill:#f5f5f5}.st4,.st5,.st6{enable-background:new}.st5{fill:#f5f5f5;opacity:.8}.st6{opacity:.2}.st6,.st7,.st8{fill:#f5f5f5}.st7{opacity:.6;enable-background:new}.st8{fill-opacity:0}.st9{fill:#fff;stroke:#fff;stroke-miterlimit:10}.st10,.st11,.st9{display:inline}.st10{stroke:#fff;stroke-miterlimit:10;fill:none}.st11{fill:#fff}</style><g id="Layer_4" class="st0"><radialGradient id="SVGID_1_" cx="-175.629" cy="420.539" r="57.414" gradientTransform="matrix(1 0 0 -1 0 841.67)" gradientUnits="userSpaceOnUse"><stop offset=".603" stop-color="#fff" stop-opacity=".7"/><stop offset="1" stop-color="#fff" stop-opacity="0"/></radialGradient><circle class="st1" cx="-177" cy="420.9" r="60"/></g><g id="Layer_2"><linearGradient id="a_3_" gradientUnits="userSpaceOnUse" x1="-177.7" y1="380.247" x2="-177.7" y2="440.222" gradientTransform="matrix(1 0 0 -1 0 841.67)"><stop offset="0" stop-color="#8190af"/><stop offset="1" stop-color="#1f2446"/></linearGradient><path id="a_1_" class="st2" d="M-217.9 394.3l10 56.1 47.7 16 22.7-49-11.5-36.7-27-5.5-41.9 19.1z"/><path id="a_2_" class="st3" d="M-217.9 394.3l10 56.1 47.7 16 22.7-49-11.5-36.7-27-5.5-41.9 19.1z"/><path class="st4" d="M-175.9 375.2l38.4 42.2-11.5-36.7-26.9-5.5zm0 0l-7.8 60.1-34.2-41 42-19.1z"/><path class="st5" d="M-183.7 435.3l46.2-17.9-38.4-42.2-7.8 60.1z"/><path class="st6" d="M-183.7 435.3l23.6 31.1 22.7-49-46.3 17.9z"/><path class="st7" d="M-183.7 435.3l-24.1 15.1-10-56.1 34.1 41z"/><path class="st8" d="M-207.8 450.4l24.1-15.1 23.6 31.1z"/></g><g id="Layer_5" class="st0"><path class="st9" d="M-188.6 430.4h9.8v9.8h-9.8z"/><path class="st10" d="M-178.8 433.4l30.7-11.9m-31.9 18.7l10.8 14.2m-19.4-16l-8.8 5.5m9.6-13.5l-15.2-18.3m-4.5-4.9h4.9v4.9h-4.9z"/><path class="st11" d="M-150.6 419.1h4.9v4.9h-4.9z"/><path class="st10" d="M-169.8 454.4h4.9v4.9h-4.9z"/><path class="st11" d="M-199.9 441.5h4.9v4.9h-4.9z"/></g></svg>