<svg id="Layer_1" xmlns="http://www.w3.org/2000/svg" width="1438" height="828" viewBox="421 6.9 1438 828"><style>.st0{fill:url(#SVGID_1_)}.st1{opacity:.1}.st2{fill:#001321}.st3{opacity:.6}.st4{opacity:.5;fill:none;stroke:#fff;stroke-miterlimit:10;stroke-dasharray:50,5;stroke-dashoffset:55;enable-background:new}.st5{fill:url(#SVGID_2_)}</style><g id="Layer_2_2_"><linearGradient id="SVGID_1_" gradientUnits="userSpaceOnUse" x1="1140" y1="14.443" x2="1140" y2="816.716" gradientTransform="translate(0 -4.44)"><stop offset="0" stop-color="#acb9c6"/><stop offset="1" stop-color="#acb9c6" stop-opacity="0"/></linearGradient><path class="st0" d="M421 6.9h1438v827.9H421z"/></g><g id="Layer_4_1_" class="st1"><path id="A5" class="st2" d="M1073.5 121.5l-5.2 11.7h18v-5.9z"/><path class="st2" d="M1165.3 121.8l12.3 12.9 8.5-5-3-9.8zm15.3-74.6l10.5 13.3 6.7-6.7-8.7-6.6zm-97.2 198.2l10.4-14.6 7.6 7.3zm121.7-152.7l9 13 19-17zm-197.9-17.4l28 6 1-13-20-2zM1129 235.8l10 19 11-12-5-12zm-31.8-73.8l7 20h14l-11-24zm66-10.8l-7 14 17 1 4-14zm70.4-104l-2 31 23 3v-30zm-35.5 77.2l6 17.5 6-5.5zm26.8-105l4.5 15.5 9-9-5-13zm-130.3 50.2l4.6 15.5 9-9-5-13zM1059.5 97l1.6 9.3 8.5-4.7zm58.3-57.6l.6 7.5 3.2-2.8zm22.3 334.9l-3.2 7.9 4.3 1.1 2-5.5zm79-188.2c.8 1.6 3.1 5.9 3.1 5.9l3.5-4.7-6.6-1.2zm-167 11.8c.8 1.6 3.1 5.9 3.1 5.9l3.5-4.7-6.6-1.2zm259-82.3l4.7 10.2V114zM977.6 37.2l5.2 5.5 2.3-5.1-3.9-4zm422 44.8l1.2 8.7 3.4-2zm-369.4 53l-.7 7.5 4.7.7 2.8-8.2zm494.3-84.9l-2.3 7.1 3.4.4zm-267.7-12.9l-1.6 5.9 5.6.4-1.2-5.1zm-125 321.5l-.8 6.7 3.6-.4 1.2-7.1zm-11.2-145.8v9.1l5.6-.4-1.2-7.9zm14.2 54.3l2 5.1 4.3-3.2zM1079 25.7l.8 7.9 6-.8-1.3-7.1zm558-7.8l.8 7.9 6-.8-1.3-7.1zM545.8 21.7l.8 7.9 5.9-.8-1.2-7.1zm531.5 81.6l5.5 4.3 2-3.2zm110.3 8.2l-1.6 5.5h5.1l1.2-3.6zm-47.5 20.1v7.5l4.8-8.3zm-16.7-47.5l1.2 7.1 2-3.2zm22.2 248.1l4.2 6.7-2.4 4.7-3.8-6.3zm13.8-114.8l-3.2 7.1 7.6.4zm-.4-22.9l2.8 6.3 6.6-3.5zm-26.6 193l3.5 11 5.9-2.7zM963 81.7l1.2 7.5 10.6-2-3.9-11.4zm93.5-10.2l2 14.9 7.1-4.7zm-6.3 20l5.6 5.2 5.8-6.7zm72.6 183.4l2.7 11.4 9.8-2.8zm26.8-112.2l-9.4 8.7 5.6 5.9zm-6.1 26.3l-10.2 14.1 11.8 3.2 4.7-11zm-9.9 127.7l-4 8.3 7.5-2.4zm0-16.3l3.2 9.1 3.5-5.6zM1052.2 123l2.3 8.7 4-6.3zm67.4 131.8l-1.5 9h7.1l-2-8.3zm-35.7-102.9l10.7 6.3 5.9-5.9-7.1-9zm51.9 191.7l-1.2 6.7 6.6-4zm10-55.3l-.3 1.4-2.7 13.2 9 2zM1383 11l-13.8 7.9 9.9 2.9zm-253.9 161.5l3.9-19.7-12.8 5.9zM1296.2 32l14.6-3.9-6.9-8.8zm-185.3 165.4l-3.4 17.3 16.8-12.1zm41.7-98.5l5.2 12.7-16.2 4.7 1.6-12.2zm-118.5-67.2l5.2 12.8-16.2 4.6 1.7-12.1zM829.2 64.2l13.3 9.9 1.1-8.2zM1151 264.7l-7 15.7 9.3 4.6 15.1-8.1z"/></g><g id="Layer_5" class="st3"><path class="st4" d="M1224.1 129.9l14.5 10.9m-101.4-18.9v18.9m-81 35.2l16.8 5.1m86.9 115.5l-4.7 25.6M969.7 55.1l16.4 8.8m122.5-29.2l2.5 20.4M530.6 44.9h15m178.5 19l-1.2 12.6"/></g><radialGradient id="SVGID_2_" cx="1140" cy="424.04" r="618.781" gradientTransform="matrix(1 0 0 .5609 0 186.188)" gradientUnits="userSpaceOnUse"><stop offset="0" stop-color="#ebe2e5"/><stop offset="1" stop-color="#ebe2e5" stop-opacity="0"/></radialGradient><ellipse class="st5" cx="1140" cy="424" rx="698.9" ry="392"/></svg>