<svg xmlns="http://www.w3.org/2000/svg" width="128.7" height="16.6" viewBox="0 0 128.7 16.6"><style>.logo-element{fill:#eef3fa}</style><path d="M6.2 8.9c3 .6 5.1 1.1 5.1 3.2 0 2.8-3.7 2.9-5.2 2.9-3.3 0-5.9-1-5.9-1v1.7s2.2.9 5.9.9c2.1 0 7-.3 7-4.5 0-3.6-3.4-4.2-6.4-4.8h-.2c-2.8-.5-4.7-1-4.7-2.7 0-2.5 3.2-2.8 5-2.8 2.7 0 5.5.5 5.5.5l.2-1.6S9.6.2 6.8.2C5.4 0 2.5.3 1 1.7c-.7.8-1 1.7-1 2.8 0 3.2 3.3 3.8 6.2 4.4m12.3-7.2h5.8v14.9h1.8V1.7h5.8V.1H18.5zM65.1.1l-7.4 16.5h1.9L66 2.2l6.4 14.4h1.9L66.8.1zm13.7 1.6h5.9v14.9h1.7V1.7h5.9V.1H78.8zM100.3.1h1.8v16.5h-1.8zm26.5 0l-7.1 9.2-7.2-9.2h-1.8v16.5h1.8V3l6.9 8.8h.7l6.8-8.8v13.6h1.8V.1zM46.4 10c2-.2 2.8-.8 3.5-1.6.9-.9 1.3-2.1 1.3-3.5C51.2 2.6 49.6 0 46 0h-7.6v16.5h1.8V10h4.2l5.1 6.6h2.4L46.4 10zm-6.2-8.3H46c1 0 1.9.3 2.5.9.6.6.9 1.5.9 2.4 0 2.1-1.4 3.3-3.7 3.3h-5.5V1.7z" class="logo-element"/></svg>