<svg id="Layer_1" xmlns="http://www.w3.org/2000/svg" width="120" height="120" viewBox="-237 360.9 120 120"><style>.st0{fill:url(#SVGID_1_)}.st1{fill:url(#a_1_)}.st2{opacity:.21;fill:none;stroke:#f5f5f5;stroke-width:3;stroke-miterlimit:10;enable-background:new}.st3{opacity:.7;fill:#f5f5f5}.st3,.st4,.st5{enable-background:new}.st4{fill:#f5f5f5;opacity:.5}.st5{opacity:.2}.st5,.st6,.st7{fill:#f5f5f5}.st6{fill-opacity:0}.st7{opacity:.9;enable-background:new}.st8{fill:#fff}.st10,.st11,.st9{fill:none;stroke:#fff}.st10{stroke-linecap:square;stroke-dasharray:10,5,3,5}.st11{stroke-dasharray:4,2,1,4}</style><g id="Layer_4"><radialGradient id="SVGID_1_" cx="-175.607" cy="420.539" r="57.414" gradientTransform="matrix(1 0 0 -1 0 841.67)" gradientUnits="userSpaceOnUse"><stop offset=".603" stop-color="#fff" stop-opacity=".7"/><stop offset="1" stop-color="#fff" stop-opacity="0"/></radialGradient><circle class="st0" cx="-177" cy="420.9" r="60"/></g><g id="Layer_2"><linearGradient id="a_1_" gradientUnits="userSpaceOnUse" x1="-177.25" y1="374.105" x2="-177.25" y2="422.751" gradientTransform="matrix(1 0 0 -1 0 841.67)"><stop offset="0" stop-color="#82dcff"/><stop offset="1" stop-color="#043189"/></linearGradient><path id="a" class="st1" d="M-221.9 418l13.2 30.2 54.4 15.6 19.5-12.8 2.2-25.2-40.4-48.7-38.6 17.5-10.3 23.4z"/><path id="a_3_" class="st2" d="M-221.9 418l13.2 30.2 54.4 15.6 19.5-12.8 2.2-25.2-40.4-48.7-38.6 17.5-10.3 23.4z"/><path class="st3" d="M-173 377.1l2.9 25 23.5 40.8 11.8 8.2 2.2-25.2z"/><path class="st4" d="M-146.6 442.9l-23.5-40.8-27.6 10.4 7.1 29.1 25.6 12.5z"/><path class="st5" d="M-146.6 442.9l-18.4 11.2 10.7 9.7 19.5-12.7z"/><path class="st6" d="M-165 454.1l-25.6-12.5-18.1 6.6 54.4 15.6z"/><path class="st3" d="M-190.6 441.6l-18.1 6.6-13.2-30.2 10.4-23.4 13.8 17.9z"/><path class="st7" d="M-197.7 412.5l27.6-10.4-2.9-25-38.5 17.5z"/></g><g id="Layer_5"><path class="st8" d="M-177.3 425.7h4.9v4.9h-4.9z"/><path class="st9" d="M-133.4 469.5l-41.5-41.4"/><path class="st10" d="M-174.9 442.9c8.3 0 15-6.7 15-15 0-6.7-4.4-12.3-10.4-14.3-1.4-.4-3-.7-4.6-.7-8.3 0-15 6.7-15 15s6.7 15 15 15z"/><circle class="st11" cx="-174.5" cy="428.3" r="9"/></g></svg>