<svg xmlns="http://www.w3.org/2000/svg" viewBox="0 0 3156.4 1568.5"><style>.st0{display:none}.st1{display:inline}.st2{opacity:.4}.st3,.st4{fill:none;stroke:#fff}.st4{stroke-width:3;stroke-dasharray:65 15;animation:request-movement 1s infinite}@keyframes request-movement{0%{stroke-dashoffset:80}to{stroke-dashoffset:0}}.st4-A{animation-delay:.2s}.st4-B{animation-delay:.4s}.st4-C{animation-delay:.6s}.st4-D{animation-delay:.8s}.st4-E{animation-delay:1s}.st4-F{animation-delay:1.2s}.st4-G{animation-delay:1.4s}.st4-H{animation-delay:1.6s}.st4-I{animation-delay:1.8s}.st4-J{animation-delay:2s}.st4-K{animation-delay:2.2s}.st4-L{animation-delay:2.4s}.st4-M{animation-delay:2.6s}.st4-N{animation-delay:2.8s}.st4-O{animation-delay:3s}.st4-P{animation-delay:3.2s}.st4-R{animation-delay:3.4s}.st4-S{animation-delay:3.6s}</style><g id="Layer_2" class="st0"><path class="st1" d="M-147.7-822.7h4147.1v2650.1H-147.7z"/></g><g id="Layer_1"><g id="Layer_1_1_" class="st2"><path class="st3" d="M0 0v1564.7M131.5 0v1564.7M263 0v1564.7M394.6 0v1564.7M526.1 0v1564.7M657.6 0v1564.7M789.1 0v1564.7M920.6 0v1564.7M1052.1 0v1564.7M1183.7 0v1564.7M1315.2 0v1564.7M1446.7 0v1564.7M1578.2 0v1564.7M1709.7 0v1564.7M1841.3 0v1564.7M1972.8 0v1564.7M2104.3 0v1564.7M2235.8 0v1564.7M2367.3 0v1564.7M2498.8 0v1564.7M2630.4 0v1564.7M2761.9 0v1564.7M2893.4 0v1564.7M3024.9 0v1564.7M0 0h3156.4M0 130.7h3156.4M0 261.4h3156.4M0 392.1h3156.4M0 522.8h3156.4M0 653.6h3156.4M0 784.3h3156.4M0 915h3156.4M0 1045.7h3156.4M0 1176.4h3156.4M0 1307.1h3156.4M0 1437.8h3156.4M0 1568.5h3156.4"/></g><g id="Layer_4"><path class="st4 st4-A" d="M131.5 1264.4v58.4m263.1-495.1v58.4M526.1 444v58.4"/><path class="st4 st4-B" d="M526.1 1086v58.4m394.5 324.3v58.4M2104.3 135.9v58.4"/><path class="st4 st4-C" d="M2367.3 419.1v58.4m394.6 83.7v58.4m263 214.4v58.4"/><path class="st4 st4-D" d="M2893.4 1350.5v58.4m-263-200.5v58.4m-394.6 195.7v58.4"/><path class="st4 st4-E" d="M263 165.1v58.4M131.5 685v58.4m526.1-578.3v58.4"/><path class="st4 st4-F" d="M439.6 261.4H498M45.6 522.8H104m187.2 653.6h58.4"/><path class="st4 st4-G" d="M700.1 653.6h58.4m-467.1.8h58.4M819 1307.1h58.4"/><path class="st4 st4-H" d="M298.5 1437.8h58.4m71.7-129.2H487m573.9-262.9h58.4"/><path class="st4 st4-I" d="M467.1 915h58.4m-370-129.8h58.4M47.5 1047h58.4"/><path class="st4 st4-J" d="M197.8 393.2h58.4M47.8 130.7h58.4m861.7 130.7h58.4"/><path class="st4 st4-K" d="M703.9 130.7h58.5m1116.3 131.8h58.4m339.3-130.8h58.4"/><path class="st4 st4-L" d="M1352.7 131.7h58.4m1244.7 260.4h58.4m363.5 130.7h58.4"/><path class="st4 st4-M" d="M2927.4 654.6h58.4m-322.3 130.5h58.4m206.4 260.6h58.4"/><path class="st4 st4-N" d="M1878.2 1307.1h58.4m-316.4 131.6h58.4m-599.1-.9h58.4"/><path class="st4 st4-O" d="M2684.6 1176.4h58.4m-335.2 130.7h58.4m185.8 130.7h58.4"/><path class="st4 st4-P" d="M3057 1307.1h58.4M2005 1438.7h58.5M2544 261.4h58.4"/><path class="st4 st4-R" d="M1709.7 43.3v58.4m1052.2 63.4v58.4m-394.6 461.4v58.4"/><path class="st4 st4-S" d="M1052.1 43.3v58.4"/></g></g></svg>