<svg id="Layer_1" xmlns="http://www.w3.org/2000/svg" viewBox="0 0 81.9 75"><style>.st0{opacity:.2;fill:url(#SVGID_1_);enable-background:new}.st1{stroke-width:.7}.st1,.st2{fill:none;stroke:#7d909d;stroke-miterlimit:10}</style><g id="Layer_3"><linearGradient id="SVGID_1_" gradientUnits="userSpaceOnUse" x1="41" y1="62.27" x2="41" y2="13.542" gradientTransform="matrix(1 0 0 -1 0 76)"><stop offset="0" stop-color="#7d909d"/><stop offset=".5" stop-color="#7d909d" stop-opacity=".3"/><stop offset="1" stop-color="#7d909d"/></linearGradient><path class="st0" d="M55.2 62.1V29.3L26.8 12.9v32.8z"/><path class="st1" d="M39 37.5H15.3"/><path class="st2" d="M13 35.2c1.3 0 2.3 1 2.3 2.3 0 1.3-1 2.3-2.3 2.3-1.3 0-2.3-1-2.3-2.3 0-1.3 1-2.3 2.3-2.3zm53.6 0h4.6v4.6h-4.6z"/><path class="st1" d="M66.6 37.5H43"/></g><path class="st1" d="M8.7 26H6.1v2.6m0 17.8V49h2.6m64.5 0h2.6v-2.6m0-17.8V26h-2.6"/></svg>