<svg id="Layer_1" xmlns="http://www.w3.org/2000/svg" viewBox="0 0 81.9 75"><style>.st0,.st1{enable-background:new}.st1{opacity:.2;fill:url(#SVGID_1_)}.st2{fill:#7d909d}.st3{fill:none;stroke:#7d909d;stroke-width:.7;stroke-linecap:square;stroke-miterlimit:10}</style><g id="Layer_1_1_" class="st0"><g id="Layer_3"><linearGradient id="SVGID_1_" gradientUnits="userSpaceOnUse" x1="41" y1="13.445" x2="41" y2="62.368"><stop offset="0" stop-color="#7d909d"/><stop offset=".5" stop-color="#7d909d" stop-opacity=".3"/><stop offset="1" stop-color="#7d909d"/></linearGradient><path class="st1" d="M55.2 45.7V12.9L26.8 29.3v32.8z"/></g></g><g id="Layer_2"><path class="st2" d="M71.1 35.1h4.8v4.8h-4.8zM42.3 19.7v2.8h-2.8v-2.8h2.8m1-1h-4.8v4.8h4.8v-4.8zm-1 33.7v2.8h-2.8v-2.8h2.8m1-1h-4.8v4.8h4.8v-4.8z"/><path class="st3" d="M10.9 37.5h27.5m5.1 0H71"/><path class="st2" d="M8.5 36.1c.8 0 1.4.6 1.4 1.4s-.6 1.4-1.4 1.4-1.4-.6-1.4-1.4.6-1.4 1.4-1.4m0-1c-1.3 0-2.4 1.1-2.4 2.4s1.1 2.4 2.4 2.4 2.4-1.1 2.4-2.4-1.1-2.4-2.4-2.4z"/></g></svg>