<svg id="Layer_6" xmlns="http://www.w3.org/2000/svg" width="250" height="313.4" viewBox="1975 0 250 313.4"><style>.st0,.st1{fill:none;stroke:#dcf0ff;stroke-width:.5;stroke-miterlimit:10}.st0{stroke-linejoin:bevel;opacity:.5}.st1{opacity:.2;stroke-dasharray:50 5;stroke-dashoffset:55}.st2{fill:#545b69}.st3{fill:#14171d}.st4{stroke-width:15}.st4,.st5,.st6{fill:none;stroke:#fff;opacity:0;cursor:pointer}.st5{stroke-width:8}.st6{stroke-width:25}</style><g id="stage-shapes"><path id="processing-shape" class="st0" d="M2046.6 185.7l54.1-93.7 54.1 93.7z"/></g><g id="background-mess" opacity=".5"><path class="st2" d="M53 233.7l-9.7-5.2H53zm564.4-202v3.4h4.4zM430.1 152.4l-3.5 6.1h3.5zM356.3 20.1l-17.6 6 18.1-11.5zM757.6 0l4.9 7.8 5.9 1.5 6.3-4.7L763.5 0zm311 5.1l10.8 6.6L1063 8zM868.5 23l-.4 4.3 6.1-.5zm75.4 207.1h8.4l-4.7-4.2zm182.6 53.5l10.4-2.9-9.9-.9zm-326.2-65.2l6.1 5.6 1.4-6.6zm-642.6-42.9v5.7l7.1-3.3zm1036.1 20.9l-7.8-3-2.1 7.4h4.9zm-7.9-89.1v5.1l5.8-2.5zm226.6 86.1l4.2 3.7 3.4-3.7zm8.7-164.2l6.6 4.6 2.6-2.4zm199.1 50.2v6.5h8.5v-3.3zM1798.9 97l5.8 3.1 2.7-4.3zm127-54.6l7.7 2.8 1.7-2.8zM1877 247.6h7.4l-2.6 2.6z"/><path transform="rotate(45.001 2252.532 72.096)" class="st1" d="M2250.4 70h4.3v4.3h-4.3z"/><path transform="rotate(45.001 2433.532 32.094)" class="st1" d="M2431.4 30h4.3v4.3h-4.3z"/><path transform="rotate(45.001 2465.534 182.094)" class="st1" d="M2463.4 180h4.3v4.3h-4.3z"/><path transform="rotate(45.001 3072.806 32.086)" class="st1" d="M3070.6 30h4.3v4.3h-4.3z"/><path transform="rotate(45.001 3068.9 299.3)" class="st1" d="M3066.7 297.2h4.3v4.3h-4.3z"/><path transform="rotate(45.001 3315.948 219.534)" class="st1" d="M3313.8 217.4h4.3v4.3h-4.3z"/><path transform="rotate(45.001 3248.71 76.324)" class="st1" d="M3246.5 74.2h4.3v4.3h-4.3z"/><path transform="rotate(45.001 3913.093 32.077)" class="st1" d="M3910.9 30h4.3v4.3h-4.3z"/><path transform="rotate(45.001 3909.188 299.29)" class="st1" d="M3907 297.2h4.3v4.3h-4.3z"/><path transform="rotate(45.001 4156.235 219.524)" class="st1" d="M4154.1 217.4h4.3v4.3h-4.3z"/><path transform="rotate(45.001 4088.997 76.314)" class="st1" d="M4086.8 74.2h4.3v4.3h-4.3z"/><path class="st1" d="M670.6 31.1l41.2 11.6m15.5 171.7l-28 13.6m-314.6-66.1l19.9 11.6m182.8-79.3l-3.6 6m-66.7-74.9l6.7 5.8M388.3 249l8.7-5.2m-200.4-22.6L201 235M57.4 167.7l-7.4 5.8m84.5-109.8l8.8 5.8M36.1 37.6l54.5-12.3M246.8 7.2l13.7 5.8M53.7 286.5l14.6-11.1m701.3-29l40.4 17.3m210.2-160.4l8.2-2.6m120.4-53.1l35.1 13.5m-27 160.8l22.8-6.3m193.3-15.7l-3.8 8.7m182.6-126.7l-8.9-3.3m22.9 107.1l37.3-7.9m-86.8 101.8l18.2 5.7M1609 13.6l11.3-3.2M904.1 303.7l17.3 5.4M1716.8 70l18.5-5.6m109.1-27.2l9.2 2.2m-74.3 235.2l13.2-4.5m-72.6-81.4l10 1.1m211.8 32.2l23.2-7.8m264.2-100.3h26.5m69.8-35.7h119.1m-92.4 94.6h48.3m325.2-100.7h48.3m374.8-36.9h48.4m-10.3 187.9h48.3m-653.5-14.8h48.4m-164.5 52.6h18.3m97.8-222.5h18.3M2797 240.1h18.3m193.4-194.2h18.3m292 30.5h18.3m-357.6 212.7h18.3M2191 38.4h7.6m414.8 49.5h7.6m311.1-77.5h7.6m-334.1 284.4h7.6m444.2-79.1h7.6m500.9-143.6h48.3M3989 35.2h48.4M4027 223.1h48.4m-438.2 17h18.4M3849 45.9h18.3m292 30.5h18.3M3820 289.1h18.3m-65.9-278.7h7.6m117.7 205.3h7.6"/><path class="st2" d="M1599.6 141.5l3.8 4.3 3.3-2.9z"/><animate attributeName="transform" from="0 0" to="0 0" values="0 0;-100 0;" dur="40s" begin="0" repeatCount="indefinite" calcMode="spline" keySplines="0.5 0 0.5 1;0.5 0 0.5 1"/></g><g id="particle-lines"><path id="A34_A35" class="st1" d="M1814.3 145.5s19.1-7.9 42.7-11c23.6-3.1 41.1 0 41.1 0"><animate attributeName="opacity" from=".1" to=".1" dur=".1" values="0.1;0.6;0.1;0.6" begin="A34_A35_hover.mouseover" repeatCount="1" fill="freeze"/><animate attributeName="opacity" from=".1" to=".1" dur=".1" values="0.6;0.1" begin="A34_A35_hover.mouseout" repeatCount="1" fill="freeze"/><animate attributeName="stroke-dashoffset" from="55" to="0" dur="1" begin="0" repeatCount="indefinite"/></path><path id="A34_A35_hover" class="st4" d="M1814.3 145.5s19.1-7.9 42.7-11c23.6-3.1 41.1 0 41.1 0"/><path id="A35_A37" class="st1" d="M1898.1 134.5s1.4.3 31 7.9c34.8 8.9 53.3 1.5 53.3 1.5"><animate attributeName="opacity" from=".1" to=".1" dur=".1" values="0.1;0.6;0.1;0.6" begin="A35_A37_hover.mouseover" repeatCount="1" fill="freeze"/><animate attributeName="opacity" from=".1" to=".1" dur=".1" values="0.6;0.1" begin="A35_A37_hover.mouseout" repeatCount="1" fill="freeze"/><animate attributeName="stroke-dashoffset" from="55" to="0" dur="1" begin="0" repeatCount="indefinite"/></path><path id="A35_A37_hover" class="st4" d="M1898.1 134.5s1.4.3 31 7.9c34.8 8.9 53.3 1.5 53.3 1.5"/><path id="A36_A37" class="st1" d="M1982.4 143.9s-3.6 4.9-10 8.3c-6.4 3.4-12.5 3.6-12.5 3.6"><animate attributeName="opacity" from=".1" to=".1" dur=".1" values="0.1;0.6;0.1;0.6" begin="A36_A37_hover.mouseover" repeatCount="1" fill="freeze"/><animate attributeName="opacity" from=".1" to=".1" dur=".1" values="0.6;0.1" begin="A36_A37_hover.mouseout" repeatCount="1" fill="freeze"/><animate attributeName="stroke-dashoffset" from="55" to="0" dur="1" begin="0" repeatCount="indefinite"/></path><path id="A36_A37_hover" class="st4" d="M1982.4 143.9s-3.6 4.9-10 8.3c-6.4 3.4-12.5 3.6-12.5 3.6"/><path id="A37_A38" class="st1" d="M1982.4 143.9s11.4 8 27.9 9.3c17.7 1.4 27.9-5.3 27.9-5.3"><animate attributeName="opacity" from=".1" to=".1" dur=".1" values="0.1;0.6;0.1;0.6" begin="A37_A38_hover.mouseover" repeatCount="1" fill="freeze"/><animate attributeName="opacity" from=".1" to=".1" dur=".1" values="0.6;0.1" begin="A37_A38_hover.mouseout" repeatCount="1" fill="freeze"/><animate attributeName="stroke-dashoffset" from="55" to="0" dur="1" begin="0" repeatCount="indefinite"/></path><path id="A37_A38_hover" class="st4" d="M1982.4 143.9s11.4 8 27.9 9.3c17.7 1.4 27.9-5.3 27.9-5.3"/><path id="A38_processing_engine" class="st1" d="M2039.8 148.1s14.7-7.4 31.6-.2c20.6 8.8 29.3-4.4 29.3-4.4"><animate attributeName="opacity" from=".1" to=".1" dur=".1" values="0.1;0.6;0.1;0.6" begin="A38_processing_engine_hover.mouseover" repeatCount="1" fill="freeze"/><animate attributeName="opacity" from=".1" to=".1" dur=".1" values="0.6;0.1" begin="A38_processing_engine_hover.mouseout" repeatCount="1" fill="freeze"/><animate attributeName="stroke-dashoffset" from="55" to="0" dur="1" begin="0" repeatCount="indefinite"/></path><path id="A38_processing_engine_hover" class="st4" d="M2039.8 148.1s14.7-7.4 31.6-.2c20.6 8.8 29.3-4.4 29.3-4.4"/></g><g id="particles"><path id="A35" class="st2" d="M1889.3 131.8l8.6 8 9.1-5.9-8.9-4.6z"><animate attributeName="fill" from=".1" to=".1" dur=".1" values="#545b69;white" begin="A34_A35_hover.mouseover;A35_A37_hover.mouseover" repeatCount="1" fill="freeze"/><animate attributeName="fill" from=".1" to=".1" dur=".1" values="white;#545b69" begin="A34_A35_hover.mouseout;A35_A37_hover.mouseout" repeatCount="1" fill="freeze"/></path><path id="A36" class="st2" d="M1952.7 153.2l7.7 5.1 6.7-3.3z"><animate attributeName="fill" from=".1" to=".1" dur=".1" values="#545b69;white" begin="A36_A37_hover.mouseover" repeatCount="1" fill="freeze"/><animate attributeName="fill" from=".1" to=".1" dur=".1" values="white;#545b69" begin="A36_A37_hover.mouseout" repeatCount="1" fill="freeze"/></path><path id="A37" class="st2" d="M1976.8 139.9l7.1.7 4.1 4.6-11.2 2.7z"><animate attributeName="fill" from=".1" to=".1" dur=".1" values="#545b69;white" begin="A36_A37_hover.mouseover;A35_A37_hover.mouseover;A37_A38_hover.mouseover" repeatCount="1" fill="freeze"/><animate attributeName="fill" from=".1" to=".1" dur=".1" values="white;#545b69" begin="A36_A37_hover.mouseout;A35_A37_hover.mouseout;A37_A38_hover.mouseout" repeatCount="1" fill="freeze"/></path><path id="A38" class="st2" d="M2032.1 143.8l4.9 8.1 10.5-4z"><animate attributeName="fill" from=".1" to=".1" dur=".1" values="#545b69;white" begin="A37_A38_hover.mouseover;A38_processing_engine_hover.mouseover" repeatCount="1" fill="freeze"/><animate attributeName="fill" from=".1" to=".1" dur=".1" values="white;#545b69" begin="A37_A38_hover.mouseout;A38_processing_engine_hover.mouseout" repeatCount="1" fill="freeze"/></path></g><g id="processed-lines"><path id="top_line" class="st1" d="M2100.7 143.4l817.4-24"><animate attributeName="opacity" from=".1" to=".1" dur=".1" values="0.1;0.6;0.1;0.6" begin="top_line_hover.mouseover" repeatCount="1" fill="freeze"/><animate attributeName="opacity" from=".1" to=".1" dur=".1" values="0.6;0.1" begin="top_line_hover.mouseout" repeatCount="1" fill="freeze"/><animate attributeName="stroke-dashoffset" from="55" to="0" dur="1" begin="0" repeatCount="indefinite"/></path><path id="top_line_hover" class="st5" d="M2100.7 143.4l817.4-24"/><path id="bottom_line" class="st1" d="M2100.7 143.4l817.4 24.1"><animate attributeName="opacity" from=".1" to=".1" dur=".1" values="0.1;0.6;0.1;0.6" begin="bottom_line_hover.mouseover" repeatCount="1" fill="freeze"/><animate attributeName="opacity" from=".1" to=".1" dur=".1" values="0.6;0.1" begin="bottom_line_hover.mouseout" repeatCount="1" fill="freeze"/><animate attributeName="stroke-dashoffset" from="55" to="0" dur="1" begin="0" repeatCount="indefinite"/></path><path id="bottom_line_hover" class="st5" d="M2100.7 143.4l817.4 24.1"/><path id="middle_line" class="st1" d="M2100.7 143.4h803.5"><animate attributeName="opacity" from=".1" to=".1" dur=".1" values="0.1;0.6;0.1;0.6" begin="middle_line_hover.mouseover" repeatCount="1" fill="freeze"/><animate attributeName="opacity" from=".1" to=".1" dur=".1" values="0.6;0.1" begin="middle_line_hover.mouseout" repeatCount="1" fill="freeze"/><animate attributeName="stroke-dashoffset" from="55" to="0" dur="1" begin="0" repeatCount="indefinite"/></path><path id="middle_line_hover" class="st5" d="M2100.7 143.4h803.5"/></g><path id="processing-engine" class="st2" d="M2085.6 163.2l15.1-26.2 15.1 26.2z"><animate attributeName="fill" from=".1" to=".1" dur=".1" values="#545b69;white" begin="A38_processing_engine_hover.mouseover;top_line_hover.mouseover;bottom_line_hover.mouseover;middle_line_hover.mouseover" repeatCount="1" fill="freeze"/><animate attributeName="fill" from=".1" to=".1" dur=".1" values="white;#545b69" begin="A38_processing_engine_hover.mouseout;top_line_hover.mouseout;bottom_line_hover.mouseout;middle_line_hover.mouseout" repeatCount="1" fill="freeze"/></path></svg>