<svg id="Layer_6" xmlns="http://www.w3.org/2000/svg" width="250" height="313.4" viewBox="1135 0 250 313.4"><style>.st0,.st1{fill:none;stroke:#dcf0ff;stroke-width:.5;stroke-miterlimit:10}.st0{stroke-linejoin:bevel;opacity:.5}.st1{opacity:.2;stroke-dasharray:50 5;stroke-dashoffset:55}.st2{fill:#545b69}.st3{fill:#14171d}.st4{stroke-width:15}.st4,.st5,.st6{fill:none;stroke:#fff;opacity:0;cursor:pointer}.st5{stroke-width:8}.st6{stroke-width:25}</style><g id="stage-shapes"><path id="distributor-shape" class="st0" d="M2916.4 185.7l-24.5-42.3 24.5-42.3h48.8l24.4 42.3-24.4 42.3z"/><path id="ingestion-shape" class="st0" d="M1261.6 185.7c-23.7 0-42.9-19.2-42.9-42.9s19.2-42.9 42.9-42.9 42.9 19.2 42.9 42.9c.1 23.7-19.2 42.9-42.9 42.9z"/><path id="processing-shape" class="st0" d="M2046.6 185.7l54.1-93.7 54.1 93.7z"/><path id="optimization-shape" class="st0" d="M3738.2 101.1h84.6v84.6h-84.6z"/></g><g id="background-mess" opacity=".5"><path class="st2" d="M53 233.7l-9.7-5.2H53zm564.4-202v3.4h4.4zM430.1 152.4l-3.5 6.1h3.5zM356.3 20.1l-17.6 6 18.1-11.5zM757.6 0l4.9 7.8 5.9 1.5 6.3-4.7L763.5 0zm311 5.1l10.8 6.6L1063 8zM868.5 23l-.4 4.3 6.1-.5zm75.4 207.1h8.4l-4.7-4.2zm182.6 53.5l10.4-2.9-9.9-.9zm-326.2-65.2l6.1 5.6 1.4-6.6zm-642.6-42.9v5.7l7.1-3.3zm1036.1 20.9l-7.8-3-2.1 7.4h4.9zm-7.9-89.1v5.1l5.8-2.5zm226.6 86.1l4.2 3.7 3.4-3.7zm8.7-164.2l6.6 4.6 2.6-2.4zm199.1 50.2v6.5h8.5v-3.3zM1798.9 97l5.8 3.1 2.7-4.3zm127-54.6l7.7 2.8 1.7-2.8zM1877 247.6h7.4l-2.6 2.6z"/><path transform="rotate(45.001 2252.532 72.096)" class="st1" d="M2250.4 70h4.3v4.3h-4.3z"/><path transform="rotate(45.001 2433.532 32.094)" class="st1" d="M2431.4 30h4.3v4.3h-4.3z"/><path transform="rotate(45.001 2465.534 182.094)" class="st1" d="M2463.4 180h4.3v4.3h-4.3z"/><path transform="rotate(45.001 3072.806 32.086)" class="st1" d="M3070.6 30h4.3v4.3h-4.3z"/><path transform="rotate(45.001 3068.9 299.3)" class="st1" d="M3066.7 297.2h4.3v4.3h-4.3z"/><path transform="rotate(45.001 3315.948 219.534)" class="st1" d="M3313.8 217.4h4.3v4.3h-4.3z"/><path transform="rotate(45.001 3248.71 76.324)" class="st1" d="M3246.5 74.2h4.3v4.3h-4.3z"/><path transform="rotate(45.001 3913.093 32.077)" class="st1" d="M3910.9 30h4.3v4.3h-4.3z"/><path transform="rotate(45.001 3909.188 299.29)" class="st1" d="M3907 297.2h4.3v4.3h-4.3z"/><path transform="rotate(45.001 4156.235 219.524)" class="st1" d="M4154.1 217.4h4.3v4.3h-4.3z"/><path transform="rotate(45.001 4088.997 76.314)" class="st1" d="M4086.8 74.2h4.3v4.3h-4.3z"/><path class="st1" d="M670.6 31.1l41.2 11.6m15.5 171.7l-28 13.6m-314.6-66.1l19.9 11.6m182.8-79.3l-3.6 6m-66.7-74.9l6.7 5.8M388.3 249l8.7-5.2m-200.4-22.6L201 235M57.4 167.7l-7.4 5.8m84.5-109.8l8.8 5.8M36.1 37.6l54.5-12.3M246.8 7.2l13.7 5.8M53.7 286.5l14.6-11.1m701.3-29l40.4 17.3m210.2-160.4l8.2-2.6m120.4-53.1l35.1 13.5m-27 160.8l22.8-6.3m193.3-15.7l-3.8 8.7m182.6-126.7l-8.9-3.3m22.9 107.1l37.3-7.9m-86.8 101.8l18.2 5.7M1609 13.6l11.3-3.2M904.1 303.7l17.3 5.4M1716.8 70l18.5-5.6m109.1-27.2l9.2 2.2m-74.3 235.2l13.2-4.5m-72.6-81.4l10 1.1m211.8 32.2l23.2-7.8m264.2-100.3h26.5m69.8-35.7h119.1m-92.4 94.6h48.3m325.2-100.7h48.3m374.8-36.9h48.4m-10.3 187.9h48.3m-653.5-14.8h48.4m-164.5 52.6h18.3m97.8-222.5h18.3M2797 240.1h18.3m193.4-194.2h18.3m292 30.5h18.3m-357.6 212.7h18.3M2191 38.4h7.6m414.8 49.5h7.6m311.1-77.5h7.6m-334.1 284.4h7.6m444.2-79.1h7.6m500.9-143.6h48.3M3989 35.2h48.4M4027 223.1h48.4m-438.2 17h18.4M3849 45.9h18.3m292 30.5h18.3M3820 289.1h18.3m-65.9-278.7h7.6m117.7 205.3h7.6"/><path class="st2" d="M1599.6 141.5l3.8 4.3 3.3-2.9z"/><animate attributeName="transform" from="0 0" to="0 0" values="0 0;-100 0;" dur="40s" begin="0" repeatCount="indefinite" calcMode="spline" keySplines="0.5 0 0.5 1;0.5 0 0.5 1"/></g><g id="particle-lines"><path id="A15_A16" class="st1" d="M1073.8 61.4s-8 21.4 8 43.3S1128 140 1128 140"><animate attributeName="opacity" from=".1" to=".1" dur=".1" values="0.1;0.6;0.1;0.6" begin="A15_A16_hover.mouseover" repeatCount="1" fill="freeze"/><animate attributeName="opacity" from=".1" to=".1" dur=".1" values="0.6;0.1" begin="A15_A16_hover.mouseout" repeatCount="1" fill="freeze"/><animate attributeName="stroke-dashoffset" from="55" to="0" dur="1" begin="0" repeatCount="indefinite"/></path><path id="A15_A16_hover" class="st4" d="M1073.8 61.4s-8 21.4 8 43.3S1128 140 1128 140"/><path id="A14_A16" class="st1" d="M1063.9 198.3s4.5-12.8 31.5-28.7 32.5-29.6 32.5-29.6"><animate attributeName="opacity" from=".1" to=".1" dur=".1" values="0.1;0.6;0.1;0.6" begin="A14_A16_hover.mouseover" repeatCount="1" fill="freeze"/><animate attributeName="opacity" from=".1" to=".1" dur=".1" values="0.6;0.1" begin="A14_A16_hover.mouseout" repeatCount="1" fill="freeze"/><animate attributeName="stroke-dashoffset" from="55" to="0" dur="1" begin="0" repeatCount="indefinite"/></path><path id="A14_A16_hover" class="st4" d="M1063.9 198.3s4.5-12.8 31.5-28.7 32.5-29.6 32.5-29.6"/><path id="A15_A17" class="st1" d="M1073.8 61.4s30.1 4.1 52.9 33.4c22.8 29.2 47.9 30.2 47.9 30.2"><animate attributeName="opacity" from=".1" to=".1" dur=".1" values="0.1;0.6;0.1;0.6" begin="A15_A17_hover.mouseover" repeatCount="1" fill="freeze"/><animate attributeName="opacity" from=".1" to=".1" dur=".1" values="0.6;0.1" begin="A15_A17_hover.mouseout" repeatCount="1" fill="freeze"/><animate attributeName="stroke-dashoffset" from="55" to="0" dur="1" begin="0" repeatCount="indefinite"/></path><path id="A15_A17_hover" class="st4" d="M1073.8 61.4s30.1 4.1 52.9 33.4c22.8 29.2 47.9 30.2 47.9 30.2"/><path id="A16_A17" class="st1" d="M1127.9 140s14.6.2 25.4-4.2c10.8-4.4 21.2-10.8 21.2-10.8"><animate attributeName="opacity" from=".1" to=".1" dur=".1" values="0.1;0.6;0.1;0.6" begin="A16_A17_hover.mouseover" repeatCount="1" fill="freeze"/><animate attributeName="opacity" from=".1" to=".1" dur=".1" values="0.6;0.1" begin="A16_A17_hover.mouseout" repeatCount="1" fill="freeze"/><animate attributeName="stroke-dashoffset" from="55" to="0" dur="1" begin="0" repeatCount="indefinite"/></path><path id="A16_A17_hover" class="st4" d="M1127.9 140s14.6.2 25.4-4.2c10.8-4.4 21.2-10.8 21.2-10.8"/><path id="A16_A18" class="st1" d="M1127.9 140s11.1 9.4 33.5 20.1c22.4 10.8 44.2 13.5 44.2 13.5"><animate attributeName="opacity" from=".1" to=".1" dur=".1" values="0.1;0.6;0.1;0.6" begin="A16_A18_hover.mouseover" repeatCount="1" fill="freeze"/><animate attributeName="opacity" from=".1" to=".1" dur=".1" values="0.6;0.1" begin="A16_A18_hover.mouseout" repeatCount="1" fill="freeze"/><animate attributeName="stroke-dashoffset" from="55" to="0" dur="1" begin="0" repeatCount="indefinite"/></path><path id="A16_A18_hover" class="st4" d="M1127.9 140s11.1 9.4 33.5 20.1c22.4 10.8 44.2 13.5 44.2 13.5"/><path id="A14_A18" class="st1" d="M1063.9 198.3s30.6 10.6 76 0 65.7-24.7 65.7-24.7"><animate attributeName="opacity" from=".1" to=".1" dur=".1" values="0.1;0.6;0.1;0.6" begin="A14_A18_hover.mouseover" repeatCount="1" fill="freeze"/><animate attributeName="opacity" from=".1" to=".1" dur=".1" values="0.6;0.1" begin="A14_A18_hover.mouseout" repeatCount="1" fill="freeze"/><animate attributeName="stroke-dashoffset" from="55" to="0" dur="1" begin="0" repeatCount="indefinite"/></path><path id="A14_A18_hover" class="st4" d="M1063.9 198.3s30.6 10.6 76 0 65.7-24.7 65.7-24.7"/><path id="A18_A19" class="st1" d="M1205.6 173.6s18.1-8.7 20.5-17.7c2.4-8.9-4.9-13.7-4.9-13.7"><animate attributeName="opacity" from=".1" to=".1" dur=".1" values="0.1;0.6;0.1;0.6" begin="A18_A19_hover.mouseover" repeatCount="1" fill="freeze"/><animate attributeName="opacity" from=".1" to=".1" dur=".1" values="0.6;0.1" begin="A18_A19_hover.mouseout" repeatCount="1" fill="freeze"/><animate attributeName="stroke-dashoffset" from="55" to="0" dur="1" begin="0" repeatCount="indefinite"/></path><path id="A18_A19_hover" class="st4" d="M1205.6 173.6s18.1-8.7 20.5-17.7c2.4-8.9-4.9-13.7-4.9-13.7"/><path id="A17_A19" class="st1" d="M1174.5 124.9s8.7 8 21.8 12.2c13.1 4.2 24.8 5.2 24.8 5.2"><animate attributeName="opacity" from=".1" to=".1" dur=".1" values="0.1;0.6;0.1;0.6" begin="A17_A19_hover.mouseover" repeatCount="1" fill="freeze"/><animate attributeName="opacity" from=".1" to=".1" dur=".1" values="0.6;0.1" begin="A17_A19_hover.mouseout" repeatCount="1" fill="freeze"/><animate attributeName="stroke-dashoffset" from="55" to="0" dur="1" begin="0" repeatCount="indefinite"/></path><path id="A17_A19_hover" class="st4" d="M1174.5 124.9s8.7 8 21.8 12.2c13.1 4.2 24.8 5.2 24.8 5.2"/><path id="A18_A21" class="st1" d="M1205.6 173.6s17 3 34.8-8.5 24.5-11.5 24.5-11.5"><animate attributeName="opacity" from=".1" to=".1" dur=".1" values="0.1;0.6;0.1;0.6" begin="A18_A21_hover.mouseover" repeatCount="1" fill="freeze"/><animate attributeName="opacity" from=".1" to=".1" dur=".1" values="0.6;0.1" begin="A18_A21_hover.mouseout" repeatCount="1" fill="freeze"/><animate attributeName="stroke-dashoffset" from="55" to="0" dur="1" begin="0" repeatCount="indefinite"/></path><path id="A18_A21_hover" class="st4" d="M1205.6 173.6s17 3 34.8-8.5 24.5-11.5 24.5-11.5"/><path id="A19_A20" class="st1" d="M1221.1 142.3s6.6-6.8 16.6-11.3c10-4.5 16.6-1.9 16.6-1.9"><animate attributeName="opacity" from=".1" to=".1" dur=".1" values="0.1;0.6;0.1;0.6" begin="A19_A20_hover.mouseover" repeatCount="1" fill="freeze"/><animate attributeName="opacity" from=".1" to=".1" dur=".1" values="0.6;0.1" begin="A19_A20_hover.mouseout" repeatCount="1" fill="freeze"/><animate attributeName="stroke-dashoffset" from="55" to="0" dur="1" begin="0" repeatCount="indefinite"/></path><path id="A19_A20_hover" class="st4" d="M1221.1 142.3s6.6-6.8 16.6-11.3c10-4.5 16.6-1.9 16.6-1.9"/><path id="A21_A22" class="st1" d="M1264.9 153.6s14.8-.9 17.5-5.7c2.6-4.9-9.2-12.6-9.2-12.6"><animate attributeName="opacity" from=".1" to=".1" dur=".1" values="0.1;0.6;0.1;0.6" begin="A21_A22_hover.mouseover" repeatCount="1" fill="freeze"/><animate attributeName="opacity" from=".1" to=".1" dur=".1" values="0.6;0.1" begin="A21_A22_hover.mouseout" repeatCount="1" fill="freeze"/><animate attributeName="stroke-dashoffset" from="55" to="0" dur="1" begin="0" repeatCount="indefinite"/></path><path id="A21_A22_hover" class="st4" d="M1264.9 153.6s14.8-.9 17.5-5.7c2.6-4.9-9.2-12.6-9.2-12.6"/><path id="A20_A22" class="st1" d="M1254.3 129.2s4.1 3.5 9.4 5.2 9.4.9 9.4.9"><animate attributeName="opacity" from=".1" to=".1" dur=".1" values="0.1;0.6;0.1;0.6" begin="A20_A22_hover.mouseover" repeatCount="1" fill="freeze"/><animate attributeName="opacity" from=".1" to=".1" dur=".1" values="0.6;0.1" begin="A20_A22_hover.mouseout" repeatCount="1" fill="freeze"/><animate attributeName="stroke-dashoffset" from="55" to="0" dur="1" begin="0" repeatCount="indefinite"/></path><path id="A20_A22_hover" class="st4" d="M1254.3 129.2s4.1 3.5 9.4 5.2 9.4.9 9.4.9"/><path id="A19_A21" class="st1" d="M1221.1 142.3s22.8-.9 32 2.1c9.3 3 11.8 9.2 11.8 9.2"><animate attributeName="opacity" from=".1" to=".1" dur=".1" values="0.1;0.6;0.1;0.6" begin="A19_A21_hover.mouseover" repeatCount="1" fill="freeze"/><animate attributeName="opacity" from=".1" to=".1" dur=".1" values="0.6;0.1" begin="A19_A21_hover.mouseout" repeatCount="1" fill="freeze"/><animate attributeName="stroke-dashoffset" from="55" to="0" dur="1" begin="0" repeatCount="indefinite"/></path><path id="A19_A21_hover" class="st4" d="M1221.1 142.3s22.8-.9 32 2.1c9.3 3 11.8 9.2 11.8 9.2"/><path id="A22_A23" class="st1" d="M1273.2 135.3s9.1 7.2 26.7 5.7 30.2 6.5 30.2 6.5"><animate attributeName="opacity" from=".1" to=".1" dur=".1" values="0.1;0.6;0.1;0.6" begin="A22_A23_hover.mouseover" repeatCount="1" fill="freeze"/><animate attributeName="opacity" from=".1" to=".1" dur=".1" values="0.6;0.1" begin="A22_A23_hover.mouseout" repeatCount="1" fill="freeze"/><animate attributeName="stroke-dashoffset" from="55" to="0" dur="1" begin="0" repeatCount="indefinite"/></path><path id="A22_A23_hover" class="st4" d="M1273.2 135.3s9.1 7.2 26.7 5.7 30.2 6.5 30.2 6.5"/><path id="A21_A23" class="st1" d="M1264.9 153.6s9.3 2.8 27.1-4.8c16.6-7.1 38.1-1.4 38.1-1.4"><animate attributeName="opacity" from=".1" to=".1" dur=".1" values="0.1;0.6;0.1;0.6" begin="A21_A23_hover.mouseover" repeatCount="1" fill="freeze"/><animate attributeName="opacity" from=".1" to=".1" dur=".1" values="0.6;0.1" begin="A21_A23_hover.mouseout" repeatCount="1" fill="freeze"/><animate attributeName="stroke-dashoffset" from="55" to="0" dur="1" begin="0" repeatCount="indefinite"/></path><path id="A21_A23_hover" class="st4" d="M1264.9 153.6s9.3 2.8 27.1-4.8c16.6-7.1 38.1-1.4 38.1-1.4"/><path id="A23_A25" class="st1" d="M1330.1 147.5s10.3 3.9 31.9.5c21.6-3.5 29.8-12.9 29.8-12.9"><animate attributeName="opacity" from=".1" to=".1" dur=".1" values="0.1;0.6;0.1;0.6" begin="A23_A25_hover.mouseover" repeatCount="1" fill="freeze"/><animate attributeName="opacity" from=".1" to=".1" dur=".1" values="0.6;0.1" begin="A23_A25_hover.mouseout" repeatCount="1" fill="freeze"/><animate attributeName="stroke-dashoffset" from="55" to="0" dur="1" begin="0" repeatCount="indefinite"/></path><path id="A23_A25_hover" class="st4" d="M1330.1 147.5s10.3 3.9 31.9.5c21.6-3.5 29.8-12.9 29.8-12.9"/><path id="A25_A27" class="st1" d="M1391.8 135s16.7-5.8 41.4-7.5c24.7-1.7 38.9.5 38.9.5"><animate attributeName="opacity" from=".1" to=".1" dur=".1" values="0.1;0.6;0.1;0.6" begin="A25_A27_hover.mouseover" repeatCount="1" fill="freeze"/><animate attributeName="opacity" from=".1" to=".1" dur=".1" values="0.6;0.1" begin="A25_A27_hover.mouseout" repeatCount="1" fill="freeze"/><animate attributeName="stroke-dashoffset" from="55" to="0" dur="1" begin="0" repeatCount="indefinite"/></path><path id="A25_A27_hover" class="st4" d="M1391.8 135s16.7-5.8 41.4-7.5c24.7-1.7 38.9.5 38.9.5"/><path id="A25_A26" class="st1" d="M1391.8 135s16.2-1.4 36.2 2.1 31.8 7.4 31.8 7.4"><animate attributeName="opacity" from=".1" to=".1" dur=".1" values="0.1;0.6;0.1;0.6" begin="A25_A26_hover.mouseover" repeatCount="1" fill="freeze"/><animate attributeName="opacity" from=".1" to=".1" dur=".1" values="0.6;0.1" begin="A25_A26_hover.mouseout" repeatCount="1" fill="freeze"/><animate attributeName="stroke-dashoffset" from="55" to="0" dur="1" begin="0" repeatCount="indefinite"/></path><path id="A25_A26_hover" class="st4" d="M1391.8 135s16.2-1.4 36.2 2.1 31.8 7.4 31.8 7.4"/><path id="A24_A25" class="st1" d="M1318.6 127.6s11.1.3 36.4 7.9c25.3 7.6 36.8-.4 36.8-.4"><animate attributeName="opacity" from=".1" to=".1" dur=".1" values="0.1;0.6;0.1;0.6" begin="A24_A25_hover.mouseover" repeatCount="1" fill="freeze"/><animate attributeName="opacity" from=".1" to=".1" dur=".1" values="0.6;0.1" begin="A24_A25_hover.mouseout" repeatCount="1" fill="freeze"/><animate attributeName="stroke-dashoffset" from="55" to="0" dur="1" begin="0" repeatCount="indefinite"/></path><path id="A24_A25_hover" class="st4" d="M1318.6 127.6s11.1.3 36.4 7.9c25.3 7.6 36.8-.4 36.8-.4"/></g><g id="particles"><path id="A17" class="st2" d="M1169.4 120.7l.4 9.9 9.9-1.4-3.3-9.9z"><animate attributeName="fill" from=".1" to=".1" dur=".1" values="#545b69;white" begin="A15_A17_hover.mouseover;A16_A17_hover.mouseover;A17_A19_hover.mouseover" repeatCount="1" fill="freeze"/><animate attributeName="fill" from=".1" to=".1" dur=".1" values="white;#545b69" begin="A15_A17_hover.mouseout;A16_A17_hover.mouseout;A17_A19_hover.mouseout" repeatCount="1" fill="freeze"/></path><path id="A18" class="st2" d="M1201.4 178.1l9.9-6.1-11.3-2.8z"><animate attributeName="fill" from=".1" to=".1" dur=".1" values="#545b69;white" begin="A14_A18_hover.mouseover;A16_A18_hover.mouseover;A18_A19_hover.mouseover;A18_A21_hover.mouseover" repeatCount="1" fill="freeze"/><animate attributeName="fill" from=".1" to=".1" dur=".1" values="white;#545b69" begin="A14_A18_hover.mouseout;A16_A18_hover.mouseout;A18_A19_hover.mouseout;A18_A21_hover.mouseout" repeatCount="1" fill="freeze"/></path><path id="A19" class="st2" d="M1210.3 146.1l21.7-4.2-19.3-3.3z"><animate attributeName="fill" from=".1" to=".1" dur=".1" values="#545b69;white" begin="A17_A19_hover.mouseover;A18_A19_hover.mouseover;A19_A20_hover.mouseover;A19_A21_hover.mouseover" repeatCount="1" fill="freeze"/><animate attributeName="fill" from=".1" to=".1" dur=".1" values="white;#545b69" begin="A17_A19_hover.mouseout;A18_A19_hover.mouseout;A19_A20_hover.mouseout;A19_A21_hover.mouseout" repeatCount="1" fill="freeze"/></path><path id="A20" class="st2" d="M1251.7 124l-1.8 10.3 8.9-1.8z"><animate attributeName="fill" from=".1" to=".1" dur=".1" values="#545b69;white" begin="A19_A20_hover.mouseover;A20_A22_hover.mouseover" repeatCount="1" fill="freeze"/><animate attributeName="fill" from=".1" to=".1" dur=".1" values="white;#545b69" begin="A19_A20_hover.mouseout;A20_A22_hover.mouseout" repeatCount="1" fill="freeze"/></path><path id="A21" class="st2" d="M1261.6 153.2l6.6 2.8-1.4-4.7z"><animate attributeName="fill" from=".1" to=".1" dur=".1" values="#545b69;white" begin="A18_A21_hover.mouseover;A19_A21_hover.mouseover;A21_A22_hover.mouseover;A21_A23_hover.mouseover" repeatCount="1" fill="freeze"/><animate attributeName="fill" from=".1" to=".1" dur=".1" values="white;#545b69" begin="A18_A21_hover.mouseout;A19_A21_hover.mouseout;A21_A22_hover.mouseout;A21_A23_hover.mouseout" repeatCount="1" fill="freeze"/></path><path id="A22" class="st2" d="M1266.8 135.8l8.5 3.7 4.2-3.7-3.8-4.8z"><animate attributeName="fill" from=".1" to=".1" dur=".1" values="#545b69;white" begin="A20_A22_hover.mouseover;A21_A22_hover.mouseover;A22_A23_hover.mouseover" repeatCount="1" fill="freeze"/><animate attributeName="fill" from=".1" to=".1" dur=".1" values="white;#545b69" begin="A20_A22_hover.mouseout;A21_A22_hover.mouseout;A22_A23_hover.mouseout" repeatCount="1" fill="freeze"/></path><path id="A23" class="st2" d="M1327.5 143l11.8 3.3-8.5 4.2-9.9 1.4z"><animate attributeName="fill" from=".1" to=".1" dur=".1" values="#545b69;white" begin="A22_A23_hover.mouseover;A21_A23_hover.mouseover;A23_A25_hover.mouseover" repeatCount="1" fill="freeze"/><animate attributeName="fill" from=".1" to=".1" dur=".1" values="white;#545b69" begin="A22_A23_hover.mouseout;A21_A23_hover.mouseout;A23_A25_hover.mouseout" repeatCount="1" fill="freeze"/></path><path id="A24" class="st2" d="M1316.7 123.8l-1 7.5 5.7-2.8z"><animate attributeName="fill" from=".1" to=".1" dur=".1" values="#545b69;white" begin="A24_A25_hover.mouseover" repeatCount="1" fill="freeze"/><animate attributeName="fill" from=".1" to=".1" dur=".1" values="white;#545b69" begin="A24_A25_hover.mouseout" repeatCount="1" fill="freeze"/></path></g></svg>