<svg id="Layer_1" xmlns="http://www.w3.org/2000/svg" viewBox="0 0 81.9 75"><style>.st0{opacity:.2;fill:url(#SVGID_1_);enable-background:new}.st1{fill:none;stroke:#7d909d;stroke-width:.7;stroke-miterlimit:10}</style><linearGradient id="SVGID_1_" gradientUnits="userSpaceOnUse" x1="41" y1="62.27" x2="41" y2="13.542" gradientTransform="matrix(1 0 0 -1 0 76)"><stop offset="0" stop-color="#7d909d"/><stop offset=".5" stop-color="#7d909d" stop-opacity=".3"/><stop offset="1" stop-color="#7d909d"/></linearGradient><path class="st0" d="M55.2 62.1V29.3L26.8 12.9v32.8z"/><path class="st1" d="M39 37.5H6.1m69.7 0H43m-4.9-2.9c1.6-1.6 4.2-1.6 5.8 0m-.1 5.8c-1.6 1.6-4.2 1.6-5.8 0m-2.8-8.7c3.2-3.2 8.4-3.2 11.6 0m-.1 11.6c-3.2 3.2-8.4 3.2-11.6 0m1.5-10.1c2.4-2.4 6.3-2.4 8.7 0m0 8.6c-2.4 2.4-6.3 2.4-8.7 0"/></svg>