<svg id="Layer_1" xmlns="http://www.w3.org/2000/svg" width="120" height="120" viewBox="-237 360.9 120 120"><style>.st0{display:none}.st1{display:inline;fill:url(#SVGID_1_)}.st2{fill:url(#SVGID_2_)}.st3,.st4{opacity:.2}.st3,.st4,.st5,.st6{enable-background:new}.st3{stroke:#f5f5f5;stroke-width:3;stroke-miterlimit:10;fill:none}.st4,.st5,.st6{fill:#f5f5f5}.st5{opacity:.8}.st6{opacity:.4}.st7,.st8{display:inline;fill:#fff}.st8{fill:none;stroke:#fff;stroke-miterlimit:10}</style><g id="Layer_4" class="st0"><radialGradient id="SVGID_1_" cx="-175.608" cy="420.512" r="57.414" gradientTransform="matrix(1 0 0 -1 0 841.67)" gradientUnits="userSpaceOnUse"><stop offset=".603" stop-color="#fff" stop-opacity=".7"/><stop offset="1" stop-color="#fff" stop-opacity="0"/></radialGradient><circle class="st1" cx="-177" cy="420.9" r="60"/></g><g id="Layer_2"><linearGradient id="SVGID_2_" gradientUnits="userSpaceOnUse" x1="-176.9" y1="371.457" x2="-176.9" y2="440.685" gradientTransform="matrix(1 0 0 -1 0 841.67)"><stop offset="0" stop-color="#8190af"/><stop offset="1" stop-color="#1f2446"/></linearGradient><path class="st2" d="M-218.3 424.8l27.5 47.5 47.4-27.5 7.9-26.2-27.6-47.4-47.3 26.8z"/><path class="st3" d="M-218.3 424.8l27.5 47.5 47.4-27.5 7.9-26.2-27.6-47.4-47.3 26.8z"/><path class="st4" d="M-218.3 424.8l47.4-27.4 27.5 47.4-47.4 27.5-27.5-47.5z"/><path class="st5" d="M-170.9 397.4l7.8-26.2-47.3 26.8-7.9 26.8 47.4-27.4z"/><path class="st6" d="M-143.4 444.8l7.8-26.2-27.5-47.4-7.8 26.2 27.5 47.4z"/></g><g id="Layer_5" class="st0"><path transform="rotate(150 -200.934 429.715)" class="st7" d="M-203.4 427.3h4.9v4.9h-4.9z"/><path transform="rotate(150 -188.222 422.407)" class="st7" d="M-190.7 420h4.9v4.9h-4.9z"/><path transform="rotate(150 -175.56 415.013)" class="st7" d="M-178 412.6h4.9v4.9h-4.9z"/><path transform="rotate(150 -193.627 442.427)" class="st7" d="M-196.1 440h4.9v4.9h-4.9z"/><path transform="rotate(150 -180.964 435.033)" class="st8" d="M-183.4 432.6h4.9v4.9h-4.9z"/><path transform="rotate(150 -168.252 427.725)" class="st7" d="M-170.7 425.3h4.9v4.9h-4.9z"/><path transform="rotate(150 -186.319 455.14)" class="st7" d="M-188.8 452.7h4.9v4.9h-4.9z"/><path transform="rotate(150 -173.656 447.745)" class="st7" d="M-176.1 445.3h4.9v4.9h-4.9z"/><path transform="rotate(150 -160.944 440.438)" class="st8" d="M-163.4 438h4.9v4.9h-4.9z"/></g></svg>