<svg id="Layer_1" xmlns="http://www.w3.org/2000/svg" viewBox="0 0 81.9 75"><style>.st0{opacity:.2;fill:url(#SVGID_1_);enable-background:new}.st1{fill:#7d909d}.st2,.st3{fill:none;stroke:#7d909d;stroke-width:.7;stroke-miterlimit:10}.st3{stroke-linecap:square}</style><g id="Layer_1_1_"><g id="Layer_3"><linearGradient id="SVGID_1_" gradientUnits="userSpaceOnUse" x1="41" y1="13.121" x2="41" y2="61.965"><stop offset="0" stop-color="#7d909d"/><stop offset=".5" stop-color="#7d909d" stop-opacity=".3"/><stop offset="1" stop-color="#7d909d"/></linearGradient><path class="st0" d="M55.2 45.7V12.9L26.8 29.3v32.8z"/></g></g><g id="Layer_2"><path class="st1" d="M6.1 28.1h4.8v4.8H6.1z"/><path class="st2" d="M10.9 30.5h27.5"/><path class="st3" d="M43.7 30.5h27.5"/><path class="st1" d="M73.6 29.1c.8 0 1.4.6 1.4 1.4s-.6 1.4-1.4 1.4-1.4-.6-1.4-1.4.6-1.4 1.4-1.4m0-1c-1.3 0-2.4 1.1-2.4 2.4s1.1 2.4 2.4 2.4 2.4-1.1 2.4-2.4-1.1-2.4-2.4-2.4zm-2.5 14h4.8v4.8h-4.8z"/><path class="st2" d="M10.5 44.5h27.9"/><path class="st3" d="M43.5 44.5H71"/><path class="st1" d="M8.5 43.1c.8 0 1.4.6 1.4 1.4s-.6 1.4-1.4 1.4-1.4-.6-1.4-1.4.6-1.4 1.4-1.4m0-1c-1.3 0-2.4 1.1-2.4 2.4s1.1 2.4 2.4 2.4 2.4-1.1 2.4-2.4-1.1-2.4-2.4-2.4z"/></g></svg>