<svg id="Layer_1" xmlns="http://www.w3.org/2000/svg" width="100" height="100" viewBox="-349 101 100 100"><style>.st0{opacity:.15}.st1{fill:none;stroke:#82dcff;stroke-width:.5;stroke-miterlimit:10}.st2{fill:url(#SVG_VAL2_1)}.st3{fill:url(#SVG_VAL2_2)}.st4{fill:url(#SVG_VAL2_3)}.st5{fill:url(#SVG_VAL2_4)}.st6{opacity:.25}.st7{fill:none;stroke:#82dcff;stroke-miterlimit:10}</style><g id="Layer_4" class="st0"><path class="st1" d="M-300.5 113.8l1.5 37.2 16.9 8.4m-36.4 2.5L-299 151l4.2 19.2-14.1 18m14.1-18l29.8 9.9"/></g><g id="Layer_5"><linearGradient id="SVG_VAL2_1" gradientUnits="userSpaceOnUse" x1="-300.418" y1="268.533" x2="-314.776" y2="214.689" gradientTransform="translate(0 -96)"><stop offset="0" stop-color="#82dcff"/><stop offset="1" stop-color="#3c7dbd"/></linearGradient><path class="st2" d="M-314.6 146l18.2-6.8-.2-.8-18 6.5v-1h-5v5h4.7l16 13 .8-.8-16.5-13.2z"/><linearGradient id="SVG_VAL2_2" gradientUnits="userSpaceOnUse" x1="-286.79" y1="264.899" x2="-301.149" y2="211.054" gradientTransform="translate(0 -96)"><stop offset="0" stop-color="#82dcff"/><stop offset="1" stop-color="#3c7dbd"/></linearGradient><path class="st3" d="M-289.5 137.9h4.9v-5h-4.9v.9l-20.1-9-.4 1 20.5 9.1v.9l-7.1 2.6.2.8 6.9-2.3z"/><linearGradient id="SVG_VAL2_3" gradientUnits="userSpaceOnUse" x1="-289.993" y1="264.052" x2="-307.544" y2="198.236" gradientTransform="translate(0 -96)"><stop offset="0" stop-color="#82dcff"/><stop offset="1" stop-color="#3c7dbd"/></linearGradient><path class="st4" d="M-286.9 170.4l-11.2-9.3-.8.8 11.9 9.5v3.8h4.9v-4.8z"/><linearGradient id="SVG_VAL2_4" gradientUnits="userSpaceOnUse" x1="-307.616" y1="270.452" x2="-321.974" y2="216.608" gradientTransform="translate(0 -96)"><stop offset="0" stop-color="#82dcff"/><stop offset="1" stop-color="#3c7dbd"/></linearGradient><path class="st5" d="M-319.1 116.9h-6v6h6v-6zm-1 4.9h-4v-4h4v4z"/></g><g id="Layer_3" class="st6"><path class="st7" d="M-282.1 159.4l8.2-37.3-26.6-8.3-29.3 10.3 11.3 37.8-14.5 18.2 24.1 8.1 43.9-8.1z"/><path class="st7" d="M-333 180.1l25.6-3.7 42.4 3.7m-42.4-3.7l1.9-10.9 23.4-6.1m-36.4 2.5l13 3.6 1.1-34-25.4-7.4m25.4 7.4l30.5-9.4"/></g></svg>