<svg id="Layer_1" xmlns="http://www.w3.org/2000/svg" width="100" height="100" viewBox="-349 101 100 100"><style>.st0{opacity:.15}.st1{fill:none;stroke:#82dcff;stroke-width:.5;stroke-miterlimit:10}.st2{fill:url(#SVGID_1_)}.st3{opacity:.25}.st4{fill:none;stroke:#82dcff;stroke-miterlimit:10}</style><g class="st0"><path class="st1" d="M-320.7 172.6l17.2-15.6 34.5-.3"/><path class="st1" d="M-309.7 111.6l6.2 45.4 16.5 34.2"/></g><g id="Layer_5_1_"><linearGradient id="SVGID_1_" gradientUnits="userSpaceOnUse" x1="-315.633" y1="264.366" x2="-281.211" y2="229.944" gradientTransform="translate(0 -96)"><stop offset="0" stop-color="#3c7dbd"/><stop offset=".504" stop-color="#82dcff"/><stop offset="1" stop-color="#3c7dbd"/></linearGradient><path class="st2" d="M-262.6 151.4h-20v-2.2h-2.2c-1.2-7-7.2-12.3-14.5-12.3v1c6.7 0 12.3 4.9 13.5 11.3h-1.7v2.2H-311v-2.2h-5v2.2h-19.7v1h19.7v1.8h2.2c1.2 7 7.2 12.3 14.5 12.3v-1c-6.7 0-12.3-4.9-13.5-11.3h1.7v-1.8h23.5v1.8h5v-1.8h19.9l.1-1z"/></g><g class="st3"><path class="st4" d="M-329 146.7l19.3-35.1 31.7 20 9 25.1-18 34.5-33.7-18.6z"/><path class="st4" d="M-309.7 111.6l-5 29.8 29.1 21.2-1.4 28.6m1.4-28.6l16.6-5.9"/><path class="st4" d="M-314.7 141.4l-6 31.2 35.1-10 7.6-31-36.7 9.8-14.3 5.3"/></g></svg>