<svg id="Layer_1" xmlns="http://www.w3.org/2000/svg" width="100" height="100" viewBox="-349 101 100 100"><style>.st0{opacity:.15}.st1{fill:none;stroke:#82dcff;stroke-width:.5;stroke-miterlimit:10}.st2{fill:url(#SVGID_1_)}.st3{opacity:.25}.st4{fill:none;stroke:#82dcff;stroke-miterlimit:10}</style><g id="Layer_4" class="st0"><path class="st1" d="M-295.8 114.1l-5 38.6-36.6-3.8m11.2 25.7l25.4-21.9 14.2 17.4 6.7 17.8m-6.7-17.8l25.2-14.5"/></g><g id="Layer_5"><linearGradient id="SVGID_1_" gradientUnits="userSpaceOnUse" x1="-348" y1="150" x2="-249" y2="150"><stop offset="0" stop-color="#3c7dbd"/><stop offset=".51" stop-color="#82dcff"/><stop offset="1" stop-color="#3c7dbd"/></linearGradient><path class="st2" d="M-275.7 149.6v-1.9h-1v1.9h-3v-7h-1v7h-3v-10.5h-1v10.5h-3v-7.9h-1v7.9h-3v-3.1h-1v3.1h-3.6v-1.9h-5v1.9H-348v1h30.1v2.8h1v-2.8h3v6.2h1v-6.2h3v10.3h1v-10.3h3v4.3h1v-4.3h3.6v2h5v-2h47.3v-1z"/></g><g id="Layer_3" class="st3"><path class="st4" d="M-261.4 155.6l-34.4-41.5-32.8 14.9-8.8 19.9 11.2 25.7 46.3 13.3 16.6-10.9z"/><path class="st4" d="M-295.8 114.1l2.5 21.3-23.5 8.8-11.8-15.2m-8.8 19.9l20.6-4.7 6 24.8-15.4 5.6m15.4-5.6l21.8 10.6 9.1 8.3m-9.1-8.3l15.7-9.5 10 6.9m-10-6.9l-20-34.7"/></g></svg>