<svg id="Layer_1" xmlns="http://www.w3.org/2000/svg" width="100" height="100" viewBox="-349 101 100 100"><style>.st0{opacity:.15}.st1{fill:none;stroke:#82dcff;stroke-width:.5;stroke-miterlimit:10}.st2{fill:url(#SVGID_1_)}.st3{opacity:.25}.st4{fill:none;stroke:#82dcff;stroke-miterlimit:10}</style><g id="Layer_4" class="st0"><path class="st1" d="M-327.1 137.5l20.8 23.4 36.2-20.8m-33.1 53l-3.1-32.2"/></g><g id="Layer_5"><linearGradient id="SVGID_1_" gradientUnits="userSpaceOnUse" x1="-323.312" y1="131.44" x2="-270.591" y2="184.049" gradientTransform="matrix(1 0 0 -1 0 304)"><stop offset="0" stop-color="#3c7dbd"/><stop offset=".504" stop-color="#82dcff"/><stop offset="1" stop-color="#3c7dbd"/></linearGradient><path class="st2" d="M-286.2 144.7v-8.5l16.4-16.4-.6-.8-16.5 16.5h-8.5v8.5l-7.5 7.5h-8.5v8.5l-17.3 17.3.7.7 17.3-17.3h8.5v-8.5l7.5-7.5h8.5zm-1-1h-6.5l6.5-6.5v6.5zm-7.2-7.2h6.5l-6.5 6.5v-6.5zm-16 15.9h6.5l-6.5 6.6v-6.6zm7.3 7.3h-6.5l6.5-6.5v6.5z"/></g><g id="Layer_3" class="st3"><path class="st4" d="M-327.1 137.5l23.9-28.3 33.1 30.9-6.6 27.8-26.5 25.2-21.6-33.8z"/><path class="st4" d="M-324.8 159.3l21.6-19.2v-30.9m0 30.9l14.4 19.2 18.7-19.2m-18.7 19.2l-14.4 33.8"/></g></svg>