<svg id="Layer_1" xmlns="http://www.w3.org/2000/svg" width="120" height="120" viewBox="-237 360.9 120 120"><style>.st0{fill:url(#SVGID_1_)}.st1{fill:url(#a_1_)}.st2{opacity:.2;fill:none;stroke:#f5f5f5;stroke-width:3;stroke-miterlimit:10}.st2,.st3,.st4{enable-background:new}.st3{fill:#f5f5f5;opacity:.8}.st4{opacity:.6}.st4,.st5,.st6{fill:#f5f5f5}.st5{fill-opacity:0}.st6{opacity:.2;enable-background:new}.st7{fill:none;stroke:#fff;stroke-miterlimit:10}.st8{fill:#fff}</style><g id="Layer_4"><radialGradient id="SVGID_1_" cx="-175.608" cy="420.565" r="57.414" gradientTransform="matrix(1 0 0 -1 0 841.67)" gradientUnits="userSpaceOnUse"><stop offset=".554" stop-color="#fff" stop-opacity=".7"/><stop offset="1" stop-color="#fff" stop-opacity="0"/></radialGradient><circle class="st0" cx="-177" cy="420.9" r="60"/></g><g id="Layer_2"><linearGradient id="a_1_" gradientUnits="userSpaceOnUse" x1="-175.65" y1="368.662" x2="-175.65" y2="430.973" gradientTransform="matrix(1 0 0 -1 0 841.67)"><stop offset="0" stop-color="#82dcff"/><stop offset="1" stop-color="#043189"/></linearGradient><path id="a_4_" class="st1" d="M-188.7 373.3l-22.7 36-3.1 47.7 43 11 34.7-23-14.2-39.2-37.7-32.5z"/><path id="a_5_" class="st2" d="M-188.7 373.3l-22.7 36-3.1 47.7 43 11 34.7-23-14.2-39.2-37.7-32.5z"/><path class="st3" d="M-162.5 431.3l25.7 13.7-14.2-39.2-37.7-32.5z"/><path class="st4" d="M-193.2 428.6l4.5-55.3 26.2 58-17.3 22.6z"/><path class="st3" d="M-214.5 457l21.3-28.4 4.5-55.3-22.7 36z"/><path class="st5" d="M-214.5 457l43 11-8.3-14.1-13.4-25.3z"/><path class="st6" d="M-179.8 453.9l17.3-22.6 25.7 13.7-34.7 23z"/></g><g id="Layer_5"><path class="st7" d="M-208.7 443.6h4.9v4.9h-4.9z"/><path class="st8" d="M-195.6 426.2h4.9v4.9h-4.9zm13.3 25.2h4.9v4.9h-4.9zm17.4-22.5h4.9v4.9h-4.9z"/><path class="st7" d="M-147 438.5h4.9v4.9h-4.9zm-57.4 5.1l11.2-15 13.4 25.3 17.3-22.6 15.5 8.3"/></g></svg>