<svg id="Layer_1" xmlns="http://www.w3.org/2000/svg" width="120" height="120" viewBox="-237 360.9 120 120"><style>.st0{fill:url(#SVGID_1_)}.st1{fill:url(#SVGID_2_)}.st2{opacity:.2;fill:none;stroke:#f5f5f5;stroke-width:3;stroke-miterlimit:10;enable-background:new}.st3{fill:#f5f5f5;fill-opacity:0}.st4{opacity:.6}.st4,.st5,.st6{fill:#f5f5f5;enable-background:new}.st5{opacity:.8}.st6{opacity:.2}.st7{fill:#fff}.st8{fill:none;stroke:#fff;stroke-miterlimit:10}</style><g id="Layer_4"><radialGradient id="SVGID_1_" cx="-175.629" cy="420.512" r="57.414" gradientTransform="matrix(1 0 0 -1 0 841.67)" gradientUnits="userSpaceOnUse"><stop offset=".603" stop-color="#fff" stop-opacity=".7"/><stop offset="1" stop-color="#fff" stop-opacity="0"/></radialGradient><circle class="st0" cx="-177" cy="420.9" r="60"/></g><g id="Layer_2"><linearGradient id="SVGID_2_" gradientUnits="userSpaceOnUse" x1="-176.9" y1="365.905" x2="-176.9" y2="445.688" gradientTransform="matrix(1 0 0 -1 0 841.67)"><stop offset="0" stop-color="#82dcff"/><stop offset="1" stop-color="#043189"/></linearGradient><path class="st1" d="M-182.7 473.2l33.1-31.3 8.2-34.7-41.3-38.4-29.7 35.2 2.8 27.2z"/><path class="st2" d="M-182.7 473.2l33.1-31.3 8.2-34.7-41.3-38.4-29.7 35.2 2.8 27.2z"/><path class="st3" d="M-182.7 473.2l18-42.1-18-23.9-26.9 24z"/><path class="st4" d="M-164.7 431.1l23.3-23.9-41.3-38.4v38.4z"/><path class="st5" d="M-182.7 407.2l-26.9 24-2.8-27.2 29.7-35.2z"/><path class="st6" d="M-164.7 431.1l23.3-23.9-8.2 34.7-33.1 31.3z"/></g><g id="Layer_5"><path class="st7" d="M-125.9 404.8h4.9v4.9h-4.9z"/><path class="st8" d="M-185.1 387.7h4.9v4.9h-4.9zm20.4 43.4l9.5-9.7m4.4-4.5l9.4-9.7h17.9m-86.1 24l10.8-9.6m5.3-4.7l10.8-9.7v-14.6"/></g></svg>