<svg id="Layer_2" xmlns="http://www.w3.org/2000/svg" width="1440" height="1541" viewBox="0 0 1440 1541"><style>.st0{opacity:.4;fill:none;stroke:#fff;stroke-miterlimit:10}</style><path class="st0" d="M106.6 240.6h8.6v8.6h-8.6zm-50.2 417c-2 0-3.6-1.6-3.6-3.6s1.6-3.6 3.6-3.6S60 652 60 654s-1.6 3.6-3.6 3.6zM1085.7 107c-2.8 0-5.1-2.3-5.1-5.1s2.3-5.1 5.1-5.1 5.1 2.3 5.1 5.1-2.3 5.1-5.1 5.1zM275.2 937.9l4.8-8.3 4.8 8.3zM81.5 1253.6l-2-3.5 2-3.5h4l2 3.5-2 3.5zm233.1-204.3h5v5h-5zm1035-662.3h6v6h-6zm-162.3 153.2l5.2-9 5.2 9zm187 477.2l-2.5-4.3 2.5-4.4h5l2.5 4.4-2.5 4.3zm-204.6 366.3h6v6h-6z"/><circle class="st0" cx="1363.1" cy="1443.3" r="3.9"/></svg>