<?xml version="1.0" encoding="utf-8"?>
<!-- Generator: Adobe Illustrator 19.1.0, SVG Export Plug-In . SVG Version: 6.00 Build 0)  -->
<!DOCTYPE svg PUBLIC "-//W3C//DTD SVG 1.1//EN" "http://www.w3.org/Graphics/SVG/1.1/DTD/svg11.dtd">
<svg version="1.1" id="Layer_1" xmlns="http://www.w3.org/2000/svg" xmlns:xlink="http://www.w3.org/1999/xlink" x="0px" y="0px"
	 width="120px" height="120px" viewBox="-237 360.9 120 120" style="enable-background:new -237 360.9 120 120;"
	 xml:space="preserve">
<style type="text/css">
	.st0{fill:url(#SVGID_1_);}
	.st1{fill:url(#a_1_);}
	.st2{opacity:0.21;fill:none;stroke:#F5F5F5;stroke-width:3;stroke-miterlimit:10;enable-background:new    ;}
	.st3{opacity:0.7;fill:#F5F5F5;enable-background:new    ;}
	.st4{opacity:0.5;fill:#F5F5F5;enable-background:new    ;}
	.st5{opacity:0.2;fill:#F5F5F5;enable-background:new    ;}
	.st6{fill:#F5F5F5;fill-opacity:0;}
	.st7{opacity:0.9;fill:#F5F5F5;enable-background:new    ;}
	.st8{fill:#FFFFFF;}
	.st9{fill:none;stroke:#FFFFFF;}
	.st10{fill:none;stroke:#FFFFFF;stroke-linecap:square;stroke-dasharray:10,5,3,5;}
	.st11{fill:none;stroke:#FFFFFF;stroke-dasharray:4,2,1,4;}
</style>
<g id="Layer_4">
	
		<radialGradient id="SVGID_1_" cx="-175.6072" cy="420.539" r="57.4145" gradientTransform="matrix(1 0 0 -1 0 841.67)" gradientUnits="userSpaceOnUse">
		<stop  offset="0.6029" style="stop-color:#FFFFFF;stop-opacity:0.7"/>
		<stop  offset="1" style="stop-color:#FFFFFF;stop-opacity:0"/>
	</radialGradient>
	<circle class="st0" cx="-177" cy="420.9" r="60"/>
</g>
<g id="Layer_2">
	<g>
		
			<linearGradient id="a_1_" gradientUnits="userSpaceOnUse" x1="-177.25" y1="374.1048" x2="-177.25" y2="422.7506" gradientTransform="matrix(1 0 0 -1 0 841.67)">
			<stop  offset="0" style="stop-color:#82DCFF"/>
			<stop  offset="1" style="stop-color:#043189"/>
		</linearGradient>
		<path id="a" class="st1" d="M-221.9,418l13.2,30.2l54.4,15.6l19.5-12.8l2.2-25.2l-40.4-48.7l-38.6,17.5L-221.9,418z"/>
		<path id="a_3_" class="st2" d="M-221.9,418l13.2,30.2l54.4,15.6l19.5-12.8l2.2-25.2l-40.4-48.7l-38.6,17.5L-221.9,418z"/>
		<polygon class="st3" points="-173,377.1 -170.1,402.1 -146.6,442.9 -134.8,451.1 -132.6,425.9 		"/>
		<polygon class="st4" points="-146.6,442.9 -170.1,402.1 -197.7,412.5 -190.6,441.6 -165,454.1 		"/>
		<polygon class="st5" points="-146.6,442.9 -165,454.1 -154.3,463.8 -134.8,451.1 		"/>
		<polygon class="st6" points="-165,454.1 -190.6,441.6 -208.7,448.2 -154.3,463.8 		"/>
		<polygon class="st3" points="-190.6,441.6 -208.7,448.2 -221.9,418 -211.5,394.6 -197.7,412.5 		"/>
		<polygon class="st7" points="-197.7,412.5 -170.1,402.1 -173,377.1 -211.5,394.6 		"/>
	</g>
</g>
<g id="Layer_5">
	<rect x="-177.3" y="425.7" class="st8" width="4.9" height="4.9"/>
	<path class="st9" d="M-133.4,469.5l-41.5-41.4"/>
	<path class="st10" d="M-174.9,442.9c8.3,0,15-6.7,15-15c0-6.7-4.4-12.3-10.4-14.3c-1.4-0.4-3-0.7-4.6-0.7c-8.3,0-15,6.7-15,15
		C-189.9,436.2-183.2,442.9-174.9,442.9z"/>
	<circle class="st11" cx="-174.5" cy="428.3" r="9"/>
</g>
</svg>
