<?xml version="1.0" encoding="utf-8"?>
<!-- Generator: Adobe Illustrator 19.1.0, SVG Export Plug-In . SVG Version: 6.00 Build 0)  -->
<!DOCTYPE svg PUBLIC "-//W3C//DTD SVG 1.1//EN" "http://www.w3.org/Graphics/SVG/1.1/DTD/svg11.dtd">
<svg version="1.1" id="Layer_1" xmlns="http://www.w3.org/2000/svg" xmlns:xlink="http://www.w3.org/1999/xlink" x="0px" y="0px"
	 width="120px" height="120px" viewBox="-237 360.9 120 120" style="enable-background:new -237 360.9 120 120;"
	 xml:space="preserve">
<style type="text/css">
	.st0{display:none;}
	.st1{display:inline;fill:url(#SVGID_1_);}
	.st2{fill:url(#SVGID_2_);}
	.st3{opacity:0.2;fill:none;stroke:#F5F5F5;stroke-width:3;stroke-miterlimit:10;enable-background:new    ;}
	.st4{opacity:0.2;fill:#F5F5F5;enable-background:new    ;}
	.st5{opacity:0.8;fill:#F5F5F5;enable-background:new    ;}
	.st6{opacity:0.4;fill:#F5F5F5;enable-background:new    ;}
	.st7{display:inline;fill:#FFFFFF;}
	.st8{display:inline;fill:none;stroke:#FFFFFF;stroke-miterlimit:10;}
</style>
<g id="Layer_4" class="st0">
	
		<radialGradient id="SVGID_1_" cx="-175.6077" cy="420.5117" r="57.4145" gradientTransform="matrix(1 0 0 -1 0 841.67)" gradientUnits="userSpaceOnUse">
		<stop  offset="0.6029" style="stop-color:#FFFFFF;stop-opacity:0.7"/>
		<stop  offset="1" style="stop-color:#FFFFFF;stop-opacity:0"/>
	</radialGradient>
	<circle class="st1" cx="-177" cy="420.9" r="60"/>
</g>
<g id="Layer_2">
	<g>
		
			<linearGradient id="SVGID_2_" gradientUnits="userSpaceOnUse" x1="-176.9" y1="371.4571" x2="-176.9" y2="440.6855" gradientTransform="matrix(1 0 0 -1 0 841.67)">
			<stop  offset="0" style="stop-color:#8190AF"/>
			<stop  offset="1" style="stop-color:#1F2446"/>
		</linearGradient>
		<polygon class="st2" points="-218.3,424.8 -190.8,472.3 -143.4,444.8 -135.5,418.6 -163.1,371.2 -210.4,398 		"/>
		<polygon class="st3" points="-218.3,424.8 -190.8,472.3 -143.4,444.8 -135.5,418.6 -163.1,371.2 -210.4,398 		"/>
		<g>
			<path class="st4" d="M-218.3,424.8l47.4-27.4l27.5,47.4l-47.4,27.5L-218.3,424.8z"/>
			<path class="st5" d="M-170.9,397.4l7.8-26.2l-47.3,26.8l-7.9,26.8L-170.9,397.4z"/>
			<path class="st6" d="M-143.4,444.8l7.8-26.2l-27.5-47.4l-7.8,26.2L-143.4,444.8z"/>
		</g>
	</g>
</g>
<g id="Layer_5" class="st0">
	<rect x="-203.4" y="427.3" transform="matrix(-0.866 0.5 -0.5 -0.866 -160.0863 902.3148)" class="st7" width="4.9" height="4.9"/>
	<rect x="-190.7" y="420" transform="matrix(-0.866 0.5 -0.5 -0.866 -140.0186 882.3223)" class="st7" width="4.9" height="4.9"/>
	<rect x="-178" y="412.6" transform="matrix(-0.866 0.5 -0.5 -0.866 -120.0877 862.1933)" class="st7" width="4.9" height="4.9"/>
	<rect x="-196.1" y="440" transform="matrix(-0.866 0.5 -0.5 -0.866 -140.0937 922.3824)" class="st7" width="4.9" height="4.9"/>
	<rect x="-183.4" y="432.6" transform="matrix(-0.866 0.5 -0.5 -0.866 -120.1628 902.2534)" class="st8" width="4.9" height="4.9"/>
	<rect x="-170.7" y="425.3" transform="matrix(-0.866 0.5 -0.5 -0.866 -100.0951 882.2608)" class="st7" width="4.9" height="4.9"/>
	<rect x="-188.8" y="452.7" transform="matrix(-0.866 0.5 -0.5 -0.866 -120.1012 942.4502)" class="st7" width="4.9" height="4.9"/>
	<rect x="-176.1" y="445.3" transform="matrix(-0.866 0.5 -0.5 -0.866 -100.1702 922.3209)" class="st7" width="4.9" height="4.9"/>
	<rect x="-163.4" y="438" transform="matrix(-0.866 0.5 -0.5 -0.866 -80.1026 902.3285)" class="st8" width="4.9" height="4.9"/>
</g>
</svg>
