<?xml version="1.0" encoding="utf-8"?>
<!-- Generator: Adobe Illustrator 19.1.0, SVG Export Plug-In . SVG Version: 6.00 Build 0)  -->
<!DOCTYPE svg PUBLIC "-//W3C//DTD SVG 1.1//EN" "http://www.w3.org/Graphics/SVG/1.1/DTD/svg11.dtd">
<svg version="1.1" id="Layer_1" xmlns="http://www.w3.org/2000/svg" xmlns:xlink="http://www.w3.org/1999/xlink" x="0px" y="0px"
	 width="120px" height="120px" viewBox="-237 360.9 120 120" style="enable-background:new -237 360.9 120 120;"
	 xml:space="preserve">
<style type="text/css">
	.st0{fill:url(#SVGID_1_);}
	.st1{fill:url(#SVGID_2_);}
	.st2{opacity:0.2;fill:none;stroke:#F5F5F5;stroke-width:3;stroke-miterlimit:10;enable-background:new    ;}
	.st3{fill:#F5F5F5;fill-opacity:0;}
	.st4{opacity:0.6;fill:#F5F5F5;enable-background:new    ;}
	.st5{opacity:0.8;fill:#F5F5F5;enable-background:new    ;}
	.st6{opacity:0.2;fill:#F5F5F5;enable-background:new    ;}
	.st7{fill:#FFFFFF;}
	.st8{fill:none;stroke:#FFFFFF;stroke-miterlimit:10;}
</style>
<g id="Layer_4">
	
		<radialGradient id="SVGID_1_" cx="-175.6293" cy="420.5117" r="57.4145" gradientTransform="matrix(1 0 0 -1 0 841.67)" gradientUnits="userSpaceOnUse">
		<stop  offset="0.6029" style="stop-color:#FFFFFF;stop-opacity:0.7"/>
		<stop  offset="1" style="stop-color:#FFFFFF;stop-opacity:0"/>
	</radialGradient>
	<circle class="st0" cx="-177" cy="420.9" r="60"/>
</g>
<g id="Layer_2">
	<g>
		
			<linearGradient id="SVGID_2_" gradientUnits="userSpaceOnUse" x1="-176.9" y1="365.9046" x2="-176.9" y2="445.6881" gradientTransform="matrix(1 0 0 -1 0 841.67)">
			<stop  offset="0" style="stop-color:#82DCFF"/>
			<stop  offset="1" style="stop-color:#043189"/>
		</linearGradient>
		<polygon class="st1" points="-182.7,473.2 -149.6,441.9 -141.4,407.2 -182.7,368.8 -212.4,404 -209.6,431.2 		"/>
		<polygon class="st2" points="-182.7,473.2 -149.6,441.9 -141.4,407.2 -182.7,368.8 -212.4,404 -209.6,431.2 		"/>
		<polygon class="st3" points="-182.7,473.2 -164.7,431.1 -182.7,407.2 -209.6,431.2 		"/>
		<polygon class="st4" points="-164.7,431.1 -141.4,407.2 -182.7,368.8 -182.7,407.2 		"/>
		<polygon class="st5" points="-182.7,407.2 -209.6,431.2 -212.4,404 -182.7,368.8 		"/>
		<polygon class="st6" points="-164.7,431.1 -141.4,407.2 -149.6,441.9 -182.7,473.2 		"/>
	</g>
</g>
<g id="Layer_5">
	<rect x="-125.9" y="404.8" class="st7" width="4.9" height="4.9"/>
	<rect x="-185.1" y="387.7" class="st8" width="4.9" height="4.9"/>
	<g>
		<g>
			<line class="st8" x1="-164.7" y1="431.1" x2="-155.2" y2="421.4"/>
			<polyline class="st8" points="-150.8,416.9 -141.4,407.2 -123.5,407.2 			"/>
		</g>
	</g>
	<g>
		<g>
			<line class="st8" x1="-209.6" y1="431.2" x2="-198.8" y2="421.6"/>
			<polyline class="st8" points="-193.5,416.9 -182.7,407.2 -182.7,392.6 			"/>
		</g>
	</g>
</g>
</svg>
