<?xml version="1.0" encoding="utf-8"?>
<!-- Generator: Adobe Illustrator 20.1.0, SVG Export Plug-In . SVG Version: 6.00 Build 0)  -->
<svg version="1.1" id="Layer_1" xmlns="http://www.w3.org/2000/svg" xmlns:xlink="http://www.w3.org/1999/xlink" x="0px" y="0px"
	 viewBox="0 0 81.9 75" style="enable-background:new 0 0 81.9 75;" xml:space="preserve">
<style type="text/css">
	.st0{enable-background:new    ;}
	.st1{opacity:0.2;fill:url(#SVGID_1_);enable-background:new    ;}
	.st2{fill:#7D909D;}
	.st3{fill:none;stroke:#7D909D;stroke-width:0.7;stroke-linecap:square;stroke-miterlimit:10;}
</style>
<g id="Layer_1_1_" class="st0">
	<g id="Layer_3">
		<linearGradient id="SVGID_1_" gradientUnits="userSpaceOnUse" x1="41" y1="13.4454" x2="41" y2="62.3678">
			<stop  offset="0" style="stop-color:#7D909D"/>
			<stop  offset="0.5" style="stop-color:#7D909D;stop-opacity:0.3"/>
			<stop  offset="1" style="stop-color:#7D909D"/>
		</linearGradient>
		<polygon class="st1" points="55.2,45.7 55.2,12.9 26.8,29.3 26.8,62.1 		"/>
	</g>
</g>
<g id="Layer_2">
	<g>
		<rect x="71.1" y="35.1" class="st2" width="4.8" height="4.8"/>
		<g>
			<path class="st2" d="M42.3,19.7v2.8h-2.8v-2.8H42.3 M43.3,18.7h-4.8v4.8h4.8V18.7L43.3,18.7z"/>
		</g>
		<g>
			<path class="st2" d="M42.3,52.4v2.8h-2.8v-2.8H42.3 M43.3,51.4h-4.8v4.8h4.8V51.4L43.3,51.4z"/>
		</g>
		<g>
			<g>
				<line class="st3" x1="10.9" y1="37.5" x2="38.4" y2="37.5"/>
				<line class="st3" x1="43.5" y1="37.5" x2="71" y2="37.5"/>
			</g>
		</g>
		<g>
			<path class="st2" d="M8.5,36.1c0.8,0,1.4,0.6,1.4,1.4s-0.6,1.4-1.4,1.4s-1.4-0.6-1.4-1.4S7.7,36.1,8.5,36.1 M8.5,35.1
				c-1.3,0-2.4,1.1-2.4,2.4s1.1,2.4,2.4,2.4s2.4-1.1,2.4-2.4S9.8,35.1,8.5,35.1L8.5,35.1z"/>
		</g>
	</g>
</g>
</svg>
