<?xml version="1.0" encoding="utf-8"?>
<!-- Generator: Adobe Illustrator 20.1.0, SVG Export Plug-In . SVG Version: 6.00 Build 0)  -->
<svg version="1.1" id="Layer_1" xmlns="http://www.w3.org/2000/svg" xmlns:xlink="http://www.w3.org/1999/xlink" x="0px" y="0px"
	 viewBox="0 0 81.9 75" style="enable-background:new 0 0 81.9 75;" xml:space="preserve">
<style type="text/css">
	.st0{opacity:0.2;fill:url(#SVGID_1_);enable-background:new    ;}
	.st1{fill:#7D909D;}
	.st2{fill:none;stroke:#7D909D;stroke-width:0.7;stroke-miterlimit:10;}
	.st3{fill:none;stroke:#7D909D;stroke-width:0.7;stroke-linecap:square;stroke-miterlimit:10;}
</style>
<g id="Layer_1_1_">
	<g id="Layer_3">
		<linearGradient id="SVGID_1_" gradientUnits="userSpaceOnUse" x1="41" y1="13.1212" x2="41" y2="61.9652">
			<stop  offset="0" style="stop-color:#7D909D"/>
			<stop  offset="0.5" style="stop-color:#7D909D;stop-opacity:0.3"/>
			<stop  offset="1" style="stop-color:#7D909D"/>
		</linearGradient>
		<polygon class="st0" points="55.2,45.7 55.2,12.9 26.8,29.3 26.8,62.1 		"/>
	</g>
</g>
<g id="Layer_2">
	<g>
		<rect x="6.1" y="28.1" class="st1" width="4.8" height="4.8"/>
		<g>
			<g>
				<line class="st2" x1="10.9" y1="30.5" x2="38.4" y2="30.5"/>
				<line class="st3" x1="43.7" y1="30.5" x2="71.2" y2="30.5"/>
			</g>
		</g>
		<g>
			<path class="st1" d="M73.6,29.1c0.8,0,1.4,0.6,1.4,1.4s-0.6,1.4-1.4,1.4s-1.4-0.6-1.4-1.4S72.8,29.1,73.6,29.1 M73.6,28.1
				c-1.3,0-2.4,1.1-2.4,2.4s1.1,2.4,2.4,2.4s2.4-1.1,2.4-2.4S74.9,28.1,73.6,28.1L73.6,28.1z"/>
		</g>
		<rect x="71.1" y="42.1" class="st1" width="4.8" height="4.8"/>
		<g>
			<g>
				<line class="st2" x1="10.5" y1="44.5" x2="38.4" y2="44.5"/>
				<line class="st3" x1="43.5" y1="44.5" x2="71" y2="44.5"/>
			</g>
		</g>
		<g>
			<path class="st1" d="M8.5,43.1c0.8,0,1.4,0.6,1.4,1.4s-0.6,1.4-1.4,1.4s-1.4-0.6-1.4-1.4S7.7,43.1,8.5,43.1 M8.5,42.1
				c-1.3,0-2.4,1.1-2.4,2.4s1.1,2.4,2.4,2.4s2.4-1.1,2.4-2.4S9.8,42.1,8.5,42.1L8.5,42.1z"/>
		</g>
	</g>
</g>
</svg>
