<?xml version="1.0" encoding="utf-8"?>
<!-- Generator: Adobe Illustrator 19.1.0, SVG Export Plug-In . SVG Version: 6.00 Build 0)  -->
<!DOCTYPE svg PUBLIC "-//W3C//DTD SVG 1.1//EN" "http://www.w3.org/Graphics/SVG/1.1/DTD/svg11.dtd">
<svg version="1.1" id="Layer_1" xmlns="http://www.w3.org/2000/svg" xmlns:xlink="http://www.w3.org/1999/xlink" x="0px" y="0px"
	 width="1438px" height="828px" viewBox="421 6.9 1438 828" style="enable-background:new 421 6.9 1438 828;" xml:space="preserve">
<style type="text/css">
	.st0{fill:url(#SVGID_1_);}
	.st1{opacity:0.1;}
	.st2{fill:#001321;}
	.st3{opacity:0.6;}
	
		.st4{opacity:0.5;fill:none;stroke:#FFFFFF;stroke-miterlimit:10;stroke-dasharray:50,5;stroke-dashoffset:55;enable-background:new    ;}
</style>
<g id="Layer_2_2_">
	
		<linearGradient id="SVGID_1_" gradientUnits="userSpaceOnUse" x1="1140" y1="828.715" x2="1140" y2="15.1822" gradientTransform="matrix(1 0 0 1 0 -4.44)">
		<stop  offset="0" style="stop-color:#ACB9C6"/>
		<stop  offset="0.95" style="stop-color:#455868"/>
	</linearGradient>
	<rect x="421" y="6.9" class="st0" width="1438" height="827.7"/>
</g>
<g id="Layer_4_1_" class="st1">
	<polygon class="st2" points="644.8,605.9 628.2,597 644.8,597 	"/>
	<polygon class="st2" points="1811.2,236.9 1794.8,228 1811.2,228 	"/>
	<polygon class="st2" points="1450.8,41.3 1434.3,32.4 1450.8,32.4 	"/>
	<polygon class="st2" points="1777.7,658.4 1761.2,649.5 1777.7,649.5 	"/>
	<polygon class="st2" points="1241.4,379.8 1224.9,370.9 1241.4,370.9 	"/>
	<polygon class="st2" points="450.3,314.4 458.7,327.7 468.8,330.3 479.5,322.2 460.4,314.4 	"/>
	<polygon id="A1" class="st2" points="431,524.9 443.7,537.5 448.8,519.8 	"/>
	<polygon id="A3_1_" class="st2" points="734.7,77 737.1,86.9 743.3,85.7 741.9,78.6 	"/>
	<polygon id="A7" class="st2" points="1331.6,740 1349.8,715 1367.2,730 1344.5,757.4 	"/>
	<polygon id="A9" class="st2" points="1471.5,357 1456.1,363.5 1463.8,376.1 1481.5,376.1 	"/>
	<polygon id="A9_3_" class="st2" points="724.1,489.6 708.7,496.1 716.4,508.7 734.1,508.7 	"/>
	<polygon id="A9_2_" class="st2" points="1366.2,601.4 1350.8,607.9 1358.5,620.5 1376.2,620.5 	"/>
	<polygon id="A9_1_" class="st2" points="1759.3,145.5 1753.8,147.8 1756.5,152.2 1762.8,152.2 	"/>
	<polygon class="st2" points="1526.5,622.7 1538.7,629.1 1547.7,617.6 1531.7,614.7 	"/>
	<polygon class="st2" points="613.2,469.1 621.2,485.4 630.4,477.3 	"/>
	<polygon class="st2" points="882.3,711.5 891.3,729.3 913.7,720.4 909,711.5 	"/>
	<polygon class="st2" points="583.2,152.2 586,159.9 599.6,156.1 594.7,152.2 	"/>
	<polygon class="st2" points="1392.2,715.2 1392.2,729.5 1410.6,723.9 1414.8,715.2 	"/>
	<polygon class="st2" points="1293.2,787.9 1304,797.5 1319,778.3 1306.1,778.3 	"/>
	<polygon class="st2" points="1002.3,822.3 1018.8,831.9 1024.1,822.3 1015.8,816.4 	"/>
	<polygon class="st2" points="1261.4,802.1 1270.4,816.9 1278.1,807.9 1272.8,798.5 	"/>
	<polygon class="st2" points="916.2,751.9 925.2,766.7 932.9,757.7 927.7,748.3 	"/>
	<polygon class="st2" points="1317.4,676.3 1340.4,683.3 1356.4,669.3 1329.4,665.3 	"/>
	<polygon class="st2" points="974.7,778.5 984.7,799.5 1000.7,787.5 987.7,778.5 	"/>
	<polygon class="st2" points="914.1,663.8 924.1,684.8 935.1,675.8 929.1,667.8 	"/>
	<polygon class="st2" points="972.3,813.1 960.3,790.1 951.3,799.1 	"/>
	<polygon class="st2" points="960.8,726.8 971.8,744.8 983.8,729.8 972.8,718.8 	"/>
	<path class="st2" d="M824.9,564.7c3,0,32,11,32,11l8-15l-21-6L824.9,564.7z"/>
	<polygon class="st2" points="734.5,618.8 746.5,627.8 763.5,615.8 752.5,611.8 	"/>
	<polygon class="st2" points="710.4,441.8 711.4,468.8 721.4,462.8 719.4,447.8 	"/>
	<polygon class="st2" points="550.4,333.3 557.4,354.3 579.4,338.3 565.4,322.3 	"/>
	<polygon class="st2" points="652,533.5 666,544.5 674,524.5 656,524.5 	"/>
	<polygon class="st2" points="760.2,183.3 774.2,197.3 779.2,176.3 	"/>
	<polygon class="st2" points="668,712.9 676,727.9 691,718.9 	"/>
	<polygon class="st2" points="735.5,756.6 752.5,768.6 758.5,759.6 	"/>
	<polygon class="st2" points="806.8,703.4 819.8,720.4 831.8,709.4 819.8,697.4 	"/>
	<polygon class="st2" points="497,420.4 510,437.4 522,426.4 510,414.4 	"/>
	<polyline class="st2" points="553.9,425 555.4,428.4 562.9,446 575.9,436 563.9,424 	"/>
	<polygon class="st2" points="449,388.9 454,410.9 470,400.9 465,387.9 	"/>
	<polygon class="st2" points="690.3,174.9 696.3,188.9 714.3,171.9 	"/>
	<polygon class="st2" points="440.7,64.9 446.7,78.9 464.7,61.9 	"/>
	<polygon class="st2" points="1705.1,276.7 1711.1,290.7 1729.1,273.7 	"/>
	<polygon class="st2" points="514,93 516,110 523,100 	"/>
	<polygon class="st2" points="875,307.9 877,321.4 886.5,323.4 	"/>
	<polygon class="st2" points="879,88.4 880.5,106.4 884.5,92.4 	"/>
	<polygon class="st2" points="685.8,340.3 691.2,346.3 692.2,338.3 	"/>
	<polygon class="st2" points="524.5,265.9 527,285.4 534,278.4 	"/>
	<polygon class="st2" points="1358.8,105.8 1361.2,125.3 1368.2,118.3 	"/>
	<polygon class="st2" points="889.2,356.8 891.7,376.3 898.7,369.3 	"/>
	<path class="st2" d="M436.5,238.9c0.5,1.5,8,16,7.5,14.5s7.5-9,7.5-9l-1-8.5L436.5,238.9z"/>
	<polygon class="st2" points="439,450.4 435.5,460.9 442.5,458.9 444.5,449.4 	"/>
	<polygon class="st2" points="438.5,627.4 440.5,642.4 446,634.9 	"/>
	<polygon class="st2" points="575.7,519.2 588.7,531.2 590.7,517.7 	"/>
	<polygon class="st2" points="807.9,778.4 804.4,787.9 819.4,785.4 	"/>
	<polygon class="st2" points="549,719.9 548.5,730.9 554.5,726.9 	"/>
	<polygon class="st2" points="560.5,619.4 570.5,619.9 574,609.4 	"/>
	<polygon class="st2" points="878.5,616.4 888,622.9 898,610.9 	"/>
	<polygon class="st2" points="1000.8,728.5 990.8,742.5 1000.3,744 	"/>
	<polygon class="st2" points="1378.7,744.2 1382.2,762.2 1389.2,751.7 	"/>
	<polygon class="st2" points="1363.5,702.8 1368,712.8 1373,702.8 	"/>
	<polygon class="st2" points="1549.5,559.7 1558,579.7 1563.5,567.7 	"/>
	<polygon class="st2" points="1591.7,598.5 1591.2,609.5 1598.7,603.5 1600.2,598.5 	"/>
	<polygon class="st2" points="1404.5,570.9 1406,592.4 1418,587.9 1416.5,576.4 	"/>
	<polygon class="st2" points="1693.5,375.4 1692.5,392.4 1703.5,389.9 1704,382.4 	"/>
	<polygon class="st2" points="1376.2,379.1 1375.2,396.1 1386.2,393.6 1386.7,386.1 	"/>
	<polygon class="st2" points="1761.7,279.5 1758.7,292.5 1768.2,288.5 1767.7,279 	"/>
	<polygon class="st2" points="1579.2,257.9 1576.2,270.9 1585.7,266.9 1585.2,257.4 	"/>
	<polygon class="st2" points="1652.2,709.3 1649.2,722.3 1658.8,718.3 1658.2,708.8 	"/>
	<polygon class="st2" points="1730.2,309.4 1727.2,322.4 1736.7,318.4 1736.2,308.9 	"/>
	<polygon class="st2" points="1554.8,389.8 1551.8,402.8 1561.2,398.8 1560.8,389.3 	"/>
	<polygon class="st2" points="1292.2,633.6 1289.2,646.6 1298.7,642.6 1298.2,633.1 	"/>
	<polygon class="st2" points="1734.1,592.2 1731.1,605.2 1740.6,601.2 1740.1,591.7 	"/>
	<polygon class="st2" points="1376.9,267.4 1373.9,280.4 1383.4,276.4 1382.9,266.9 	"/>
	<polygon class="st2" points="1562.4,154 1559.4,167 1568.9,163 1568.4,153.5 	"/>
	<polygon class="st2" points="1842.5,227.4 1835,244.9 1842,246.9 1847,231.9 	"/>
	<polygon class="st2" points="1732.6,87.6 1725.1,105.1 1732.1,107.1 1737.1,92.1 	"/>
	<polygon class="st2" points="1822.3,145.8 1833.3,160.3 1838.3,147.8 1835.3,142.8 	"/>
	<polygon class="st2" points="1815.5,174.9 1822.5,180.9 1814.5,191.9 	"/>
	<polygon class="st2" points="799.3,510.2 806.3,516.2 798.3,527.2 	"/>
	<polygon class="st2" points="1665.2,81.9 1672.2,87.9 1664.2,98.9 	"/>
	<polygon class="st2" points="1685.5,175.2 1691,192.2 1695,187.2 	"/>
	<polygon class="st2" points="1616.7,305.5 1602.7,318 1608.7,324 1618.7,313.5 	"/>
	<polygon class="st2" points="1750,425.9 1749,439.9 1758,437.4 	"/>
	<polygon class="st2" points="1673,263.9 1672,277.9 1681,275.4 	"/>
	<polygon class="st2" points="1556.5,426.9 1557,439.4 1566.5,431.9 	"/>
	<polygon class="st2" points="1718.6,416.7 1728.1,426.7 1715.1,426.7 	"/>
	<polygon class="st2" points="1784,577.9 1797,590.9 1784,593.9 	"/>
	<polygon class="st2" points="645.8,20.1 658.8,33.1 645.8,36.1 	"/>
	<polygon class="st2" points="1227.8,571.7 1240.8,584.7 1227.8,587.7 	"/>
	<polygon class="st2" points="528.3,529.5 541.3,542.5 528.3,545.5 	"/>
	<polygon class="st2" points="1567.2,727.6 1559.2,743.1 1567.8,740.1 	"/>
	<polygon class="st2" points="1017,621.3 1009,636.8 1017.5,633.8 	"/>
	<polygon class="st2" points="1292.9,278.9 1284.9,294.4 1293.4,291.4 	"/>
	<polygon class="st2" points="656,250.2 648,265.7 656.5,262.7 	"/>
	<polygon class="st2" points="1446.3,716.3 1438.3,731.8 1446.8,728.8 	"/>
	<polygon class="st2" points="1757.6,519.4 1749.6,534.9 1758.1,531.9 	"/>
	<polygon class="st2" points="1345.4,476.9 1337.4,492.4 1345.9,489.4 	"/>
	<polygon class="st2" points="710.4,624.4 702.4,639.9 710.9,636.9 	"/>
	<polygon class="st2" points="595.1,443.4 587.1,458.9 595.6,455.9 	"/>
	<polygon class="st2" points="651.8,220.8 643.8,236.3 652.2,233.3 	"/>
	<polygon class="st2" points="1798.5,476.9 1795,492.4 1803,489.9 	"/>
	<polygon class="st2" points="582.7,488.1 579.2,503.6 587.2,501.1 	"/>
	<polygon class="st2" points="1813.5,368.9 1816.5,381.4 1824,371.9 	"/>
	<polygon class="st2" points="1682,318.8 1681.5,320.5 1676.5,337.3 1692,335.8 1694.5,316.8 	"/>
	<path class="st2" d="M1644.5,472.9c0,1.5-1.5,17-1.5,17l10,2l1-13L1644.5,472.9z"/>
	<polygon class="st2" points="1584.3,55 1594.3,59 1600.8,44.5 	"/>
	<polygon class="st2" points="1725.9,21.2 1721.4,41.2 1727.9,41.7 1731.9,31.7 	"/>
	<polygon class="st2" points="1845.8,12.4 1838.8,32.4 1851.3,36.9 1852.8,22.9 	"/>
	<polygon class="st2" points="1821.5,82.7 1819.5,97.2 1828,98.2 1832,85.2 	"/>
	<polygon class="st2" points="1547.2,467.8 1529.6,502.9 1564,509.8 1572.4,476.2 	"/>
	<path class="st2" d="M1560.8,518.7c-2.4,0.4-43.8,12.1-43.8,12.1l19.4,14.1l21.1-15.1L1560.8,518.7z"/>
	<polygon class="st2" points="1619.6,245.7 1640.2,200.6 1670.8,222.8 1627.2,257.9 	"/>
	<polygon class="st2" points="706.2,362.8 726.8,317.7 757.5,339.8 713.8,375 	"/>
	<polygon class="st2" points="1395.2,517.5 1427.3,507.6 1426.5,527.4 1400.5,529.7 	"/>
	<polygon class="st2" points="1792.5,48.7 1794,85.3 1806.3,82.3 1834.5,50.9 	"/>
	<polygon class="st2" points="1663.6,421.7 1623.1,442.3 1620,466 1670.4,466.8 	"/>
	<polygon class="st2" points="695.5,412.6 655,433.2 651.9,456.9 702.3,457.7 	"/>
	<path class="st2" d="M1585.5,478.4c0,2-4.6,20.8-4.6,20.8h11.2l18.3-20.3L1585.5,478.4z"/>
	<polygon class="st2" points="1648.7,143.5 1664.4,152.2 1687.8,115.6 	"/>
	<polygon class="st2" points="475,363.7 490.7,372.4 514,335.8 	"/>
	<polygon class="st2" points="1798.8,111.3 1792.5,146.5 1800.6,146.5 1832.2,112.2 	"/>
	<polygon class="st2" points="648,358.9 631.7,377 595.6,358 609.1,315.6 	"/>
	<polygon class="st2" points="475.7,267.6 492.9,286.6 517.3,271.3 483.9,245.1 	"/>
	<polygon class="st2" points="830.3,485.7 847.5,502.8 836.6,512.8 802.3,501.9 	"/>
	<path class="st2" d="M597.5,88.4c0.9,2.7,16.3,34.3,16.3,34.3l14.4-9l0.9-33.4L597.5,88.4z"/>
	<polygon class="st2" points="495,76.8 516.7,83.1 524,64.1 505,40.7 	"/>
	<polygon class="st2" points="599.2,488.8 618.2,510.5 627.2,487.9 	"/>
	<polygon class="st2" points="433.3,28.1 477.6,48 496.5,32.6 	"/>
	<path class="st2" d="M769.7,294.3c2.7,0,9,22.6,9,22.6l13.5-13.5L769.7,294.3z"/>
	<polygon class="st2" points="727,545.9 730.6,573.9 750.4,554 	"/>
	<polygon class="st2" points="778.7,489.7 796.7,484.3 800.2,428.3 766,459 	"/>
	<polygon class="st2" points="744.5,401.7 762.5,396.2 766.2,340.2 731.8,371 	"/>
	<path class="st2" d="M638.3,179.4c-3.2,2-50.1,66.5-50.1,66.5l47.3-0.4L638.3,179.4z"/>
	<path class="st2" d="M452.7,163.2c2.7,1.8,68.6,47.9,68.6,47.9v-53.3l-42.4-8.1L452.7,163.2z"/>
	<polygon class="st2" points="844.9,637.2 860.2,657.9 881.9,635.3 	"/>
	<polygon class="st2" points="768.8,643.9 780.6,659.2 785.1,642.1 	"/>
	<path class="st2" d="M780.8,582.5c0.9,2.7,20.8,37.9,20.8,37.9l41.4-19.9L780.8,582.5z"/>
	<polygon class="st2" points="1538.8,294.4 1545.1,344.5 1580.1,342.5 1584.2,327.4 	"/>
	<polygon class="st2" points="605.6,368.5 611.8,418.6 646.8,416.5 650.9,401.4 	"/>
	<polygon class="st2" points="1420.7,545 1433.1,564.2 1448.2,553.2 1452.3,539.5 	"/>
	<polygon class="st2" points="1373.3,666.3 1383.7,679.4 1411.1,663.6 1393.9,656 	"/>
	<polygon class="st2" points="1458.2,450.5 1472.8,457.4 1480.2,434.1 1463.8,435.4 	"/>
	<polygon class="st2" points="1481,545 1495.4,551.9 1503,528.5 1486.5,529.9 	"/>
	<polygon class="st2" points="1448.9,490.3 1450.3,503.4 1462,498.6 1456.5,488.3 	"/>
	<polygon class="st2" points="1269.8,677 1271.1,689.3 1278.6,683.1 1283.4,672.8 	"/>
	<polygon class="st2" points="1522,334.1 1537.1,340.3 1530.9,346.5 	"/>
	<polygon class="st2" points="1458.5,414.5 1459.9,429.6 1468.8,422 	"/>
	<polygon class="st2" points="1634.8,292.8 1641.6,327.1 1662.9,304.5 	"/>
	<polygon class="st2" points="1534.5,234.2 1536.6,245.9 1551,232.8 	"/>
	<polygon class="st2" points="750.2,32.9 752.3,44.6 766.8,31.5 	"/>
	<polygon class="st2" points="1133.9,546.7 1136,558.4 1150.4,545.3 	"/>
	<polygon class="st2" points="1383.9,460.4 1386.1,472.1 1400.4,459 	"/>
	<polygon class="st2" points="1600.3,92.2 1602.4,103.9 1616.8,90.8 	"/>
	<polygon class="st2" points="1610.7,183 1623.1,187.1 1628.5,176.8 	"/>
	<polygon class="st2" points="1693.2,552.9 1705.6,557 1711,546.7 	"/>
	<polygon class="st2" points="1377.8,78.6 1390.2,82.7 1395.6,72.4 	"/>
	<polygon class="st2" points="1525.6,83.7 1538,87.8 1543.4,77.5 	"/>
	<path class="st2" d="M1579.3,380.9c1.2,4.6,5.8,67.2,5.8,67.2L1621,418L1579.3,380.9z"/>
	<polygon class="st2" points="1757.2,179.6 1720.2,245.7 1787.4,228.3 	"/>
	<path class="st2" d="M1229.9,753.2c0.8,1.6,3.1,5.9,3.1,5.9l3.5-4.7L1229.9,753.2z"/>
	<path class="st2" d="M1009.9,183.8c0.8,1.6,3.1,5.9,3.1,5.9l3.5-4.7L1009.9,183.8z"/>
	<polygon class="st2" points="1118.5,762.6 1122.1,769.3 1125.6,761 	"/>
	<polygon class="st2" points="1310.1,500.8 1313.7,507.5 1317.2,499.2 	"/>
	<polygon class="st2" points="1140.6,64.4 1144.2,71.1 1147.7,62.8 	"/>
	<polygon class="st2" points="855,29.9 858.5,36.6 862,28.3 	"/>
	<polygon class="st2" points="1024.1,532.4 1027.7,539.1 1031.2,530.8 	"/>
	<polygon class="st2" points="1650.4,792.8 1654.1,799.5 1657.6,791.2 	"/>
	<polygon class="st2" points="544.6,653 548.2,659.7 551.7,651.4 	"/>
	<polygon class="st2" points="1090.2,784.7 1094.9,794.9 1094.9,783.1 	"/>
	<polygon class="st2" points="1041.4,830.3 1044.5,834.6 1046.5,830.3 	"/>
	<polygon class="st2" points="886.4,810.1 893.9,812.8 893.5,807.7 	"/>
	<polygon class="st2" points="1254.1,166.9 1261.6,169.6 1261.2,164.5 	"/>
	<polygon class="st2" points="688.5,575.6 696,578.3 695.6,573.2 	"/>
	<polygon class="st2" points="1735.9,375.2 1743.4,377.9 1743,372.8 	"/>
	<polygon class="st2" points="680.8,80.1 688.3,82.8 687.9,77.7 	"/>
	<polygon class="st2" points="1511.3,31.3 1518.8,34 1518.4,28.9 	"/>
	<polygon class="st2" points="556.2,24.5 563.7,27.2 563.3,22.1 	"/>
	<polygon class="st2" points="717.7,246.7 725.2,249.4 724.8,244.3 	"/>
	<polygon class="st2" points="1315.2,51.6 1322.8,54.3 1322.3,49.2 	"/>
	<polygon class="st2" points="1458.2,774.6 1465.8,777.3 1465.3,772.2 	"/>
	<polygon class="st2" points="947.3,706.7 952.1,717.4 956,713 	"/>
	<polygon class="st2" points="951.7,466.8 956.4,477.5 960.3,473.1 	"/>
	<polygon class="st2" points="1039.6,719.7 1040.8,728.4 1044.2,726.4 	"/>
	<polygon class="st2" points="865,748.8 866.2,757.5 869.7,755.5 	"/>
	<polygon class="st2" points="1203.8,698.7 1203,706.2 1207.8,706.9 1210.5,698.7 	"/>
	<polygon class="st2" points="1189.2,774.7 1186.8,781.8 1190.3,782.2 	"/>
	<polygon class="st2" points="1172.3,821 1170.3,828.5 1175,826.5 1177.4,819.9 	"/>
	<polygon class="st2" points="1625.2,547.9 1626,555.8 1631.9,555 1630.7,547.9 	"/>
	<polygon class="st2" points="841.5,362.6 842.4,370.5 848.2,369.7 847,362.6 	"/>
	<polygon class="st2" points="1639.6,833.4 1640.4,841.3 1646.3,840.5 1645.1,833.4 	"/>
	<polygon class="st2" points="551.8,129.9 552.6,137.8 558.5,137 557.2,129.9 	"/>
	<polygon class="st2" points="1426.8,630.2 1426.8,653.9 1446.2,642 	"/>
	<polygon class="st2" points="1475.6,591.8 1454.1,602.4 1468.8,618.6 1483.6,604.8 	"/>
	<polygon class="st2" points="1515.1,437.7 1515.1,456.4 1529.3,450.4 1529.3,435.2 	"/>
	<polygon class="st2" points="1473.5,680.8 1481.3,693.5 1492.1,683.7 	"/>
	<polygon class="st2" points="1272.3,712.5 1272.3,725.2 1283.8,717.7 	"/>
	<polygon class="st2" points="822.3,450.3 827.5,463 811.3,467.7 813,455.5 	"/>
	<polygon class="st2" points="1128.9,688.1 1133.6,697.9 1143.4,689.2 1137,684.6 	"/>
	<polygon class="st2" points="1085.2,739.4 1086.2,750.2 1098.4,745.4 1094,738.9 	"/>
	<polygon class="st2" points="1063.8,671.6 1063.3,687.2 1073.7,680.9 1070.8,670.4 	"/>
	<polygon class="st2" points="1013.2,564.7 1026.5,574.6 1027.6,566.4 	"/>
	<polygon class="st2" points="867.8,504.8 881.1,514.7 882.2,506.5 	"/>
	<polygon class="st2" points="677.4,329.1 690.7,339 691.8,330.8 	"/>
	<polygon class="st2" points="961.3,634.6 958.9,649.6 972.3,643.3 	"/>
	<polygon class="st2" points="853.6,444.2 861.1,458.1 863.4,445.4 	"/>
	<polygon class="st2" points="663,648.6 670.5,662.5 672.8,649.7 	"/>
	<polygon class="st2" points="1022.7,126.9 1030.2,140.8 1032.5,128 	"/>
	<polygon class="st2" points="729.1,655.5 736.7,669.4 739,656.7 	"/>
	<polygon class="st2" points="1497.2,597 1504.7,610.9 1507.1,598.2 	"/>
	<polygon class="st2" points="802.6,390.2 810.1,404.1 812.4,391.4 	"/>
	<polygon class="st2" points="974.7,507.5 980.5,520.9 985.8,510.4 	"/>
	<polygon class="st2" points="1336.1,572.5 1330.9,587.6 1344.2,586.4 1349.4,574.3 	"/>
	<polygon class="st2" points="1798.1,264.2 1787.2,285.3 1797.2,307.3 1802.8,274 	"/>
	<polygon class="st2" points="1480.1,107.3 1469.2,128.4 1479.1,150.4 1484.8,117.1 	"/>
	<polygon class="st2" points="1494.4,246.9 1483.6,268 1493.5,290 1499.1,256.7 	"/>
	<polygon class="st2" points="1518.1,652.7 1507.3,673.8 1517.2,695.8 1522.8,662.5 	"/>
	<polygon class="st2" points="1718.6,146.5 1727.5,163.8 1739.7,150.7 	"/>
</g>
<g id="Layer_5" class="st3">
	<line class="st4" x1="1584.6" y1="222.6" x2="1655" y2="242.4"/>
	<line class="st4" x1="610.3" y1="663.8" x2="595.8" y2="735.5"/>
	<line class="st4" x1="1766.1" y1="465.6" x2="1718.3" y2="488.8"/>
	<line class="st4" x1="1096.7" y1="445.8" x2="1130.6" y2="465.6"/>
	<line class="st4" x1="1442.6" y1="330.3" x2="1436.5" y2="340.5"/>
	<line class="st4" x1="1322.6" y1="212.7" x2="1334.1" y2="222.6"/>
	<line class="st4" x1="1102.8" y1="594.5" x2="1117.7" y2="585.6"/>
	<line class="st4" x1="775.6" y1="547" x2="783.1" y2="570.6"/>
	<line class="st4" x1="1569.3" y1="667.7" x2="1576.8" y2="691.3"/>
	<line class="st4" x1="538" y1="455.7" x2="525.4" y2="465.6"/>
	<line class="st4" x1="669.6" y1="278.2" x2="684.6" y2="288.1"/>
	<line class="st4" x1="501.7" y1="233.7" x2="594.7" y2="212.7"/>
	<line class="st4" x1="464.9" y1="594.5" x2="501.7" y2="599.6"/>
	<line class="st4" x1="1626.4" y1="354.1" x2="1645.2" y2="379.1"/>
	<line class="st4" x1="630.4" y1="264.5" x2="596.1" y2="322.4"/>
	<line class="st4" x1="521.4" y1="393.6" x2="548.2" y2="405.5"/>
	<line class="st4" x1="1735.8" y1="59.1" x2="1762.8" y2="67"/>
	<line class="st4" x1="548.2" y1="73.9" x2="571.7" y2="67"/>
	<line class="st4" x1="439.9" y1="152.2" x2="461.4" y2="186.8"/>
	<line class="st4" x1="1818.6" y1="465.6" x2="1829.9" y2="504.1"/>
	<line class="st4" x1="1829.9" y1="732.5" x2="1811.6" y2="738.2"/>
	<line class="st4" x1="1800.3" y1="803" x2="1824.3" y2="806.7"/>
	<line class="st4" x1="1482.8" y1="814.6" x2="1522.2" y2="795.4"/>
	<line class="st4" x1="1036.4" y1="791.3" x2="1081.1" y2="804.9"/>
	<line class="st4" x1="1193.1" y1="814.6" x2="1289.2" y2="757.2"/>
	<line class="st4" x1="1706.7" y1="320.2" x2="1800.3" y2="330.3"/>
	<line class="st4" x1="1355.3" y1="520.5" x2="1442.6" y2="484.8"/>
	<line class="st4" x1="1635.8" y1="87.2" x2="1655" y2="116.1"/>
	<line class="st4" x1="1502.5" y1="74.6" x2="1514" y2="75.8"/>
	<line class="st4" x1="1742.2" y1="384.4" x2="1762.8" y2="389.5"/>
	<line class="st4" x1="1364.1" y1="766.1" x2="1361.6" y2="785.9"/>
	<line class="st4" x1="758.2" y1="663.8" x2="779.3" y2="718.2"/>
	<line class="st4" x1="940.9" y1="536.8" x2="915.7" y2="570.6"/>
	<line class="st4" x1="797.3" y1="399.5" x2="799.8" y2="413.4"/>
	<line class="st4" x1="908.1" y1="245.9" x2="915.7" y2="255.9"/>
	<line class="st4" x1="832.5" y1="85.9" x2="853.9" y2="87.2"/>
	<line class="st4" x1="669.6" y1="124.9" x2="690.2" y2="199.3"/>
	<line class="st4" x1="603" y1="481.4" x2="642.3" y2="494"/>
	<line class="st4" x1="1655" y1="612.4" x2="1676.5" y2="627.5"/>
	<line class="st4" x1="1788.6" y1="217.6" x2="1777.2" y2="242.4"/>
	<line class="st4" x1="1619.8" y1="16.6" x2="1559.3" y2="96"/>
	<line class="st4" x1="1315" y1="25.4" x2="1334.1" y2="56.3"/>
	<line class="st4" x1="1148.7" y1="34.3" x2="1140.5" y2="56.3"/>
	<line class="st4" x1="950.9" y1="25.4" x2="977.4" y2="40.9"/>
	<line class="st4" x1="758.2" y1="25.4" x2="690.2" y2="73.9"/>
	<line class="st4" x1="571.7" y1="15.4" x2="613.2" y2="40.9"/>
	<line class="st4" x1="433.2" y1="67" x2="464.9" y2="102.3"/>
	<line class="st4" x1="1436.5" y1="75.8" x2="1473.7" y2="85.9"/>
	<line class="st4" x1="1749.3" y1="107.3" x2="1777.2" y2="122.4"/>
	<line class="st4" x1="1464.8" y1="597" x2="1442.6" y2="643.1"/>
	<line class="st4" x1="1058.8" y1="699.6" x2="1067.2" y2="718.2"/>
	<line class="st4" x1="964.2" y1="663.8" x2="950.9" y2="691"/>
	<line class="st4" x1="977.4" y1="425.8" x2="988.7" y2="437.7"/>
	<line class="st4" x1="799.8" y1="514.2" x2="796.8" y2="536.8"/>
	<line class="st4" x1="656.9" y1="389.5" x2="669.6" y2="399.5"/>
	<line class="st4" x1="798.5" y1="255.9" x2="797.3" y2="278.2"/>
	<line class="st4" x1="1482.8" y1="288.1" x2="1482.8" y2="293.4"/>
	<line class="st4" x1="1439.6" y1="354.1" x2="1464.8" y2="366.6"/>
	<line class="st4" x1="1676.5" y1="514.2" x2="1676.5" y2="520.5"/>
	<line class="st4" x1="1811.6" y1="612.4" x2="1811.6" y2="643.1"/>
	<line class="st4" x1="1859" y1="101.6" x2="1818.6" y2="139.9"/>
	<line class="st4" x1="421" y1="437.7" x2="433.2" y2="460.6"/>
	<line class="st4" x1="421" y1="776" x2="475.4" y2="738.2"/>
	<line class="st4" x1="1717.8" y1="718.2" x2="1718.3" y2="732.5"/>
	<line class="st4" x1="1800.3" y1="585.6" x2="1829.9" y2="612.4"/>
	<line class="st4" x1="1457.9" y1="465.6" x2="1439.6" y2="514.2"/>
	<line class="st4" x1="862.3" y1="525.5" x2="870.8" y2="536.8"/>
	<line class="st4" x1="775.6" y1="514.2" x2="812.6" y2="536.8"/>
	<line class="st4" x1="571.7" y1="283.1" x2="571.7" y2="340.5"/>
	<line class="st4" x1="716.8" y1="124.9" x2="690.2" y2="152.2"/>
	<line class="st4" x1="1508.2" y1="245.9" x2="1522.2" y2="255.9"/>
	<line class="st4" x1="1559.3" y1="340.5" x2="1552.1" y2="379.1"/>
</g>
</svg>
