<?xml version="1.0" encoding="utf-8"?>
<!-- Generator: Adobe Illustrator 19.1.0, SVG Export Plug-In . SVG Version: 6.00 Build 0)  -->
<!DOCTYPE svg PUBLIC "-//W3C//DTD SVG 1.1//EN" "http://www.w3.org/Graphics/SVG/1.1/DTD/svg11.dtd">
<svg version="1.1" id="Layer_1" xmlns="http://www.w3.org/2000/svg" xmlns:xlink="http://www.w3.org/1999/xlink" x="0px" y="0px"
	 width="120px" height="120px" viewBox="-237 360.9 120 120" style="enable-background:new -237 360.9 120 120;"
	 xml:space="preserve">
<style type="text/css">
	.st0{fill:url(#SVGID_1_);}
	.st1{fill:url(#SVGID_2_);}
	.st2{opacity:0.2;fill:none;stroke:#F5F5F5;stroke-width:3;stroke-miterlimit:10;enable-background:new    ;}
	.st3{opacity:0.6;fill:#F5F5F5;enable-background:new    ;}
	.st4{opacity:0.8;fill:#F5F5F5;enable-background:new    ;}
	.st5{opacity:0.4;fill:#F5F5F5;enable-background:new    ;}
	.st6{opacity:0.2;fill:#F5F5F5;enable-background:new    ;}
	.st7{fill:#FFFFFF;}
	.st8{fill:none;stroke:#FFFFFF;stroke-miterlimit:10;}
</style>
<g id="Layer_4">
	
		<radialGradient id="SVGID_1_" cx="-175.6293" cy="420.5652" r="57.4145" gradientTransform="matrix(1 0 0 -1 0 841.67)" gradientUnits="userSpaceOnUse">
		<stop  offset="0.5532" style="stop-color:#FFFFFF;stop-opacity:0.7"/>
		<stop  offset="1" style="stop-color:#FFFFFF;stop-opacity:0"/>
	</radialGradient>
	<circle class="st0" cx="-177" cy="420.9" r="60"/>
</g>
<g id="Layer_2">
	<g>
		
			<linearGradient id="SVGID_2_" gradientUnits="userSpaceOnUse" x1="-177.2" y1="371.9768" x2="-177.2" y2="421.5576" gradientTransform="matrix(1 0 0 -1 0 841.67)">
			<stop  offset="0" style="stop-color:#82DCFF"/>
			<stop  offset="1" style="stop-color:#043189"/>
		</linearGradient>
		<polygon class="st1" points="-218.3,456.7 -189.1,466.6 -136.1,456.7 -156.8,431.6 -146.7,386.5 -179,376.4 -214.4,389 
			-200.8,434.7 		"/>
		<polygon class="st2" points="-218.3,456.7 -189.1,466.6 -136.1,456.7 -156.8,431.6 -146.7,386.5 -179,376.4 -214.4,389 
			-200.8,434.7 		"/>
		<polygon class="st3" points="-214.4,389 -183.7,397.9 -185,439.1 -200.8,434.7 		"/>
		<polygon class="st4" points="-183.7,397.9 -146.7,386.5 -179,376.4 -214.4,389 		"/>
		<polygon class="st5" points="-183.7,397.9 -146.7,386.5 -156.8,431.6 -185,439.1 		"/>
		<polygon class="st5" points="-185,439.1 -187.3,452.1 -218.3,456.7 -200.8,434.7 		"/>
		<polygon class="st6" points="-187.3,452.1 -136.1,456.7 -156.8,431.6 -185,439.1 		"/>
	</g>
</g>
<g id="Layer_5">
	<rect x="-187.4" y="436.6" class="st7" width="4.9" height="4.9"/>
	<rect x="-165" y="414.3" class="st8" width="4.9" height="4.9"/>
	<rect x="-198.2" y="425.9" class="st8" width="4.9" height="4.9"/>
	<polyline class="st8" points="-193.3,430.8 -185,439.1 -165,419.1 	"/>
</g>
</svg>
