<?xml version="1.0" encoding="utf-8"?>
<!-- Generator: Adobe Illustrator 19.1.0, SVG Export Plug-In . SVG Version: 6.00 Build 0)  -->
<!DOCTYPE svg PUBLIC "-//W3C//DTD SVG 1.1//EN" "http://www.w3.org/Graphics/SVG/1.1/DTD/svg11.dtd">
<svg version="1.1" id="Layer_1" xmlns="http://www.w3.org/2000/svg" xmlns:xlink="http://www.w3.org/1999/xlink" x="0px" y="0px"
	 width="120px" height="120px" viewBox="-237 360.9 120 120" style="enable-background:new -237 360.9 120 120;"
	 xml:space="preserve">
<style type="text/css">
	.st0{display:none;}
	.st1{display:inline;fill:url(#SVGID_1_);}
	.st2{fill:url(#SVGID_2_);}
	.st3{opacity:0.2;fill:none;stroke:#FFFFFF;stroke-width:3;stroke-miterlimit:10;enable-background:new    ;}
	.st4{opacity:0.9;fill:#F5F5F5;enable-background:new    ;}
	.st5{opacity:0.6;fill:#F5F5F5;enable-background:new    ;}
	.st6{opacity:0.4;fill:#F5F5F5;enable-background:new    ;}
	.st7{opacity:0.2;fill:#F5F5F5;enable-background:new    ;}
	.st8{fill:#F5F5F5;fill-opacity:0;}
	.st9{opacity:0.8;fill:#F5F5F5;enable-background:new    ;}
	.st10{display:inline;fill:none;stroke:#FFFFFF;stroke-miterlimit:10;}
</style>
<g id="Layer_4" class="st0">
	
		<radialGradient id="SVGID_1_" cx="-175.6077" cy="420.539" r="57.4145" gradientTransform="matrix(1 0 0 -1 0 841.67)" gradientUnits="userSpaceOnUse">
		<stop  offset="0.6029" style="stop-color:#FFFFFF;stop-opacity:0.7"/>
		<stop  offset="1" style="stop-color:#FFFFFF;stop-opacity:0"/>
	</radialGradient>
	<circle class="st1" cx="-177" cy="420.9" r="60"/>
</g>
<g id="Layer_2">
	<g>
		
			<linearGradient id="SVGID_2_" gradientUnits="userSpaceOnUse" x1="-177.4" y1="369.803" x2="-177.4" y2="446.4783" gradientTransform="matrix(1 0 0 -1 0 841.67)">
			<stop  offset="0" style="stop-color:#8190AF"/>
			<stop  offset="1" style="stop-color:#1F2446"/>
		</linearGradient>
		<polygon class="st2" points="-191.7,368.2 -149.4,394.8 -137.4,428.2 -161.4,474.2 -206.3,449.4 -217.4,415 		"/>
		<polygon class="st3" points="-191.7,368.2 -149.4,394.8 -137.4,428.2 -161.4,474.2 -206.3,449.4 -217.4,415 		"/>
		<polygon class="st4" points="-191.7,368.2 -198.4,407.9 -149.4,394.8 		"/>
		<polygon class="st5" points="-198.4,407.9 -149.4,394.8 -159.5,436.1 		"/>
		<polygon class="st6" points="-159.5,436.1 -137.4,428.2 -149.4,394.8 		"/>
		<polygon class="st7" points="-159.5,436.1 -161.4,474.2 -137.4,428.2 		"/>
		<polygon class="st8" points="-159.5,436.1 -206.3,449.4 -161.4,474.2 		"/>
		<polygon class="st6" points="-159.5,436.1 -198.4,407.9 -206.3,449.4 		"/>
		<polygon class="st5" points="-198.4,407.9 -217.4,415 -206.3,449.4 		"/>
		<polygon class="st9" points="-217.4,415 -191.7,368.2 -198.4,407.9 		"/>
	</g>
</g>
<g id="Layer_5" class="st0">
	<polyline class="st10" points="-217.4,415 -198.4,407.9 -191.7,368.2 	"/>
	<polyline class="st10" points="-198.4,407.9 -159.5,436.1 -161.4,474.2 	"/>
	<polyline class="st10" points="-159.5,436.1 -149.4,394.8 -198.4,407.9 -206.3,449.4 -159.5,436.1 -137.4,428.2 	"/>
</g>
</svg>
