<?xml version="1.0" encoding="utf-8"?>
<!-- Generator: Adobe Illustrator 19.1.0, SVG Export Plug-In . SVG Version: 6.00 Build 0)  -->
<!DOCTYPE svg PUBLIC "-//W3C//DTD SVG 1.1//EN" "http://www.w3.org/Graphics/SVG/1.1/DTD/svg11.dtd">
<svg version="1.1" id="Layer_1" xmlns="http://www.w3.org/2000/svg" xmlns:xlink="http://www.w3.org/1999/xlink" x="0px" y="0px"
	 width="120px" height="120px" viewBox="-237 360.9 120 120" style="enable-background:new -237 360.9 120 120;"
	 xml:space="preserve">
<style type="text/css">
	.st0{display:none;}
	.st1{display:inline;fill:url(#SVGID_1_);}
	.st2{fill:url(#a_3_);}
	.st3{opacity:0.2;fill:none;stroke:#F5F5F5;stroke-width:3;stroke-miterlimit:10;enable-background:new    ;}
	.st4{opacity:0.9;fill:#F5F5F5;enable-background:new    ;}
	.st5{opacity:0.8;fill:#F5F5F5;enable-background:new    ;}
	.st6{opacity:0.2;fill:#F5F5F5;enable-background:new    ;}
	.st7{opacity:0.6;fill:#F5F5F5;enable-background:new    ;}
	.st8{fill:#F5F5F5;fill-opacity:0;}
	.st9{display:inline;fill:#FFFFFF;stroke:#FFFFFF;stroke-miterlimit:10;}
	.st10{display:inline;fill:none;stroke:#FFFFFF;stroke-miterlimit:10;}
	.st11{display:inline;fill:#FFFFFF;}
</style>
<g id="Layer_4" class="st0">
	
		<radialGradient id="SVGID_1_" cx="-175.6293" cy="420.539" r="57.4145" gradientTransform="matrix(1 0 0 -1 0 841.67)" gradientUnits="userSpaceOnUse">
		<stop  offset="0.6029" style="stop-color:#FFFFFF;stop-opacity:0.7"/>
		<stop  offset="1" style="stop-color:#FFFFFF;stop-opacity:0"/>
	</radialGradient>
	<circle class="st1" cx="-177" cy="420.9" r="60"/>
</g>
<g id="Layer_2">
	<g>
		
			<linearGradient id="a_3_" gradientUnits="userSpaceOnUse" x1="-177.7" y1="380.2468" x2="-177.7" y2="440.2224" gradientTransform="matrix(1 0 0 -1 0 841.67)">
			<stop  offset="0" style="stop-color:#8190AF"/>
			<stop  offset="1" style="stop-color:#1F2446"/>
		</linearGradient>
		<path id="a_1_" class="st2" d="M-217.9,394.3l10,56.1l47.7,16l22.7-49l-11.5-36.7l-27-5.5L-217.9,394.3z"/>
		<path id="a_2_" class="st3" d="M-217.9,394.3l10,56.1l47.7,16l22.7-49l-11.5-36.7l-27-5.5L-217.9,394.3z"/>
		<path class="st4" d="M-175.9,375.2l38.4,42.2l-11.5-36.7L-175.9,375.2z"/>
		<path class="st4" d="M-175.9,375.2l-7.8,60.1l-34.2-41L-175.9,375.2z"/>
		<path class="st5" d="M-183.7,435.3l46.2-17.9l-38.4-42.2L-183.7,435.3z"/>
		<path class="st6" d="M-183.7,435.3l23.6,31.1l22.7-49L-183.7,435.3z"/>
		<path class="st7" d="M-183.7,435.3l-24.1,15.1l-10-56.1L-183.7,435.3z"/>
		<polygon class="st8" points="-207.8,450.4 -183.7,435.3 -160.1,466.4 		"/>
	</g>
</g>
<g id="Layer_5" class="st0">
	<rect x="-188.6" y="430.4" class="st9" width="9.8" height="9.8"/>
	<line class="st10" x1="-178.8" y1="433.4" x2="-148.1" y2="421.5"/>
	<line class="st10" x1="-180" y1="440.2" x2="-169.2" y2="454.4"/>
	<line class="st10" x1="-188.6" y1="438.4" x2="-197.4" y2="443.9"/>
	<line class="st10" x1="-187.8" y1="430.4" x2="-203" y2="412.1"/>
	<rect x="-207.5" y="407.2" class="st10" width="4.9" height="4.9"/>
	<rect x="-150.6" y="419.1" class="st11" width="4.9" height="4.9"/>
	<rect x="-169.8" y="454.4" class="st10" width="4.9" height="4.9"/>
	<rect x="-199.9" y="441.5" class="st11" width="4.9" height="4.9"/>
</g>
</svg>
