<?xml version="1.0" encoding="utf-8"?>
<!-- Generator: Adobe Illustrator 19.1.0, SVG Export Plug-In . SVG Version: 6.00 Build 0)  -->
<!DOCTYPE svg PUBLIC "-//W3C//DTD SVG 1.1//EN" "http://www.w3.org/Graphics/SVG/1.1/DTD/svg11.dtd">
<svg version="1.1" id="Layer_1" xmlns="http://www.w3.org/2000/svg" xmlns:xlink="http://www.w3.org/1999/xlink" x="0px" y="0px"
	 width="1438px" height="828px" viewBox="421 6.9 1438 828" style="enable-background:new 421 6.9 1438 828;" xml:space="preserve">
<style type="text/css">
	.st0{fill:url(#SVGID_1_);}
	.st1{opacity:0.1;}
	.st2{fill:#001321;}
	.st3{opacity:0.6;}
	
		.st4{opacity:0.5;fill:none;stroke:#FFFFFF;stroke-miterlimit:10;stroke-dasharray:50,5;stroke-dashoffset:55;enable-background:new    ;}
	.st5{fill:url(#SVGID_2_);}
</style>
<g id="Layer_2_2_">
	
		<linearGradient id="SVGID_1_" gradientUnits="userSpaceOnUse" x1="1140" y1="14.4434" x2="1140" y2="816.7159" gradientTransform="matrix(1 0 0 1 0 -4.44)">
		<stop  offset="0" style="stop-color:#ACB9C6"/>
		<stop  offset="1" style="stop-color:#ACB9C6;stop-opacity:0"/>
	</linearGradient>
	<rect x="421" y="6.9" class="st0" width="1438" height="827.9"/>
</g>
<g id="Layer_4_1_" class="st1">
	<polygon id="A5" class="st2" points="1073.5,121.5 1068.3,133.2 1086.3,133.2 1086.3,127.3 	"/>
	<polygon class="st2" points="1165.3,121.8 1177.6,134.7 1186.1,129.7 1183.1,119.9 	"/>
	<polygon class="st2" points="1180.6,47.2 1191.1,60.5 1197.8,53.8 1189.1,47.2 	"/>
	<polygon class="st2" points="1083.4,245.4 1093.8,230.8 1101.4,238.1 	"/>
	<polygon class="st2" points="1205.1,92.7 1214.1,105.7 1233.1,88.7 	"/>
	<polygon class="st2" points="1007.2,75.3 1035.2,81.3 1036.2,68.3 1016.2,66.3 	"/>
	<polygon class="st2" points="1129,235.8 1139,254.8 1150,242.8 1145,230.8 	"/>
	<polygon class="st2" points="1097.2,162 1104.2,182 1118.2,182 1107.2,158 	"/>
	<polygon class="st2" points="1163.2,151.2 1156.2,165.2 1173.2,166.2 1177.2,152.2 	"/>
	<polygon class="st2" points="1233.6,47.2 1231.6,78.2 1254.6,81.2 1254.6,51.2 	"/>
	<polygon class="st2" points="1198.1,124.4 1204.1,141.9 1210.1,136.4 	"/>
	<polygon class="st2" points="1224.9,19.4 1229.4,34.9 1238.4,25.9 1233.4,12.9 	"/>
	<polygon class="st2" points="1094.6,69.6 1099.2,85.1 1108.2,76.1 1103.2,63.1 	"/>
	<polygon class="st2" points="1059.5,97 1061.1,106.3 1069.6,101.6 	"/>
	<polygon class="st2" points="1117.8,39.4 1118.4,46.9 1121.6,44.1 	"/>
	<polygon class="st2" points="1140.1,374.3 1136.9,382.2 1141.2,383.3 1143.2,377.8 	"/>
	<path class="st2" d="M1219.1,186.1c0.8,1.6,3.1,5.9,3.1,5.9l3.5-4.7L1219.1,186.1z"/>
	<path class="st2" d="M1052.1,197.9c0.8,1.6,3.1,5.9,3.1,5.9l3.5-4.7L1052.1,197.9z"/>
	<polygon class="st2" points="1311.1,115.6 1315.8,125.8 1315.8,114 	"/>
	<polygon class="st2" points="977.6,37.2 982.8,42.7 985.1,37.6 981.2,33.6 	"/>
	<polygon class="st2" points="1399.6,82 1400.8,90.7 1404.2,88.7 	"/>
	<polygon class="st2" points="1030.2,135 1029.5,142.5 1034.2,143.2 1037,135 	"/>
	<polygon class="st2" points="1524.5,50.1 1522.2,57.2 1525.6,57.6 	"/>
	<polygon class="st2" points="1256.8,37.2 1255.2,43.1 1260.8,43.5 1259.6,38.4 	"/>
	<polygon class="st2" points="1131.8,358.7 1131,365.4 1134.6,365 1135.8,357.9 	"/>
	<polygon class="st2" points="1120.6,212.9 1120.6,222 1126.2,221.6 1125,213.7 	"/>
	<polygon class="st2" points="1134.8,267.2 1136.8,272.3 1141.1,269.1 	"/>
	<polygon class="st2" points="1079,25.7 1079.8,33.6 1085.8,32.8 1084.5,25.7 	"/>
	<polygon class="st2" points="1637,17.9 1637.8,25.8 1643.8,25 1642.5,17.9 	"/>
	<polygon class="st2" points="545.8,21.7 546.6,29.6 552.5,28.8 551.3,21.7 	"/>
	<polygon class="st2" points="1077.3,103.3 1082.8,107.6 1084.8,104.4 	"/>
	<polygon class="st2" points="1187.6,111.5 1186,117 1191.1,117 1192.3,113.4 	"/>
	<polygon class="st2" points="1140.1,131.6 1140.1,139.1 1144.9,130.8 	"/>
	<polygon class="st2" points="1123.4,84.1 1124.6,91.2 1126.6,88 	"/>
	<polygon class="st2" points="1145.6,332.2 1149.8,338.9 1147.4,343.6 1143.6,337.3 	"/>
	<polygon class="st2" points="1159.4,217.4 1156.2,224.5 1163.8,224.9 	"/>
	<polygon class="st2" points="1159,194.5 1161.8,200.8 1168.4,197.3 	"/>
	<polygon class="st2" points="1132.4,387.5 1135.9,398.5 1141.8,395.8 	"/>
	<polygon class="st2" points="963,81.7 964.2,89.2 974.8,87.2 970.9,75.8 	"/>
	<polygon class="st2" points="1056.5,71.5 1058.5,86.4 1065.6,81.7 	"/>
	<polygon class="st2" points="1050.2,91.5 1055.8,96.7 1061.6,90 	"/>
	<polygon class="st2" points="1122.8,274.9 1125.5,286.3 1135.3,283.5 	"/>
	<polygon class="st2" points="1149.6,162.7 1140.2,171.4 1145.8,177.3 	"/>
	<polygon class="st2" points="1143.5,189 1133.3,203.1 1145.1,206.3 1149.8,195.3 	"/>
	<polygon class="st2" points="1133.6,316.7 1129.6,325 1137.1,322.6 	"/>
	<polygon class="st2" points="1133.6,300.4 1136.8,309.5 1140.3,303.9 	"/>
	<polygon class="st2" points="1052.2,123 1054.5,131.7 1058.5,125.4 	"/>
	<polygon class="st2" points="1119.6,254.8 1118.1,263.8 1125.2,263.8 1123.2,255.5 	"/>
	<polygon class="st2" points="1083.9,151.9 1094.6,158.2 1100.5,152.3 1093.4,143.3 	"/>
	<polygon class="st2" points="1135.8,343.6 1134.6,350.3 1141.2,346.3 	"/>
	<polygon class="st2" points="1145.8,288.3 1145.5,289.7 1142.8,302.9 1151.8,304.9 	"/>
	<polygon class="st2" points="1383,11 1369.2,18.9 1379.1,21.8 	"/>
	<polygon class="st2" points="1129.1,172.5 1133,152.8 1120.2,158.7 	"/>
	<polygon class="st2" points="1296.2,32 1310.8,28.1 1303.9,19.3 	"/>
	<polygon class="st2" points="1110.9,197.4 1107.5,214.7 1124.3,202.6 	"/>
	<polygon class="st2" points="1152.6,98.9 1157.8,111.6 1141.6,116.3 1143.2,104.1 	"/>
	<polygon class="st2" points="1034.1,31.7 1039.3,44.5 1023.1,49.1 1024.8,37 	"/>
	<polygon class="st2" points="829.2,64.2 842.5,74.1 843.6,65.9 	"/>
	<polygon class="st2" points="1151,264.7 1144,280.4 1153.3,285 1168.4,276.9 	"/>
</g>
<g id="Layer_5" class="st3">
	<line class="st4" x1="1224.1" y1="129.9" x2="1238.6" y2="140.8"/>
	<line class="st4" x1="1137.2" y1="121.9" x2="1137.2" y2="140.8"/>
	<line class="st4" x1="1056.2" y1="176" x2="1073" y2="181.1"/>
	<line class="st4" x1="1159.9" y1="296.6" x2="1155.2" y2="322.2"/>
	<line class="st4" x1="969.7" y1="55.1" x2="986.1" y2="63.9"/>
	<line class="st4" x1="1108.6" y1="34.7" x2="1111.1" y2="55.1"/>
	<line class="st4" x1="530.6" y1="44.9" x2="545.6" y2="44.9"/>
	<line class="st4" x1="724.1" y1="63.9" x2="722.9" y2="76.5"/>
</g>
<radialGradient id="SVGID_2_" cx="1140" cy="424.04" r="618.781" gradientTransform="matrix(1 0 0 0.5609 0 186.1884)" gradientUnits="userSpaceOnUse">
	<stop  offset="0" style="stop-color:#EBE2E5"/>
	<stop  offset="1" style="stop-color:#EBE2E5;stop-opacity:0"/>
</radialGradient>
<ellipse class="st5" cx="1140" cy="424" rx="698.9" ry="392"/>
</svg>
