<svg xmlns="http://www.w3.org/2000/svg" id="Layer_1" width="128.7" height="16.6" viewBox="0 0 128.7 16.6">
  <style>
    .logo-element{fill:#1F242C;}
  </style>
  <path d="M6.2 8.9c3 .6 5.1 1.1 5.1 3.2 0 2.8-3.7 2.9-5.2 2.9-3.3 0-5.9-1-5.9-1v1.7s2.2.9 5.9.9c2.1 0 7-.3 7-4.5 0-3.6-3.4-4.2-6.4-4.8h-.2c-2.8-.5-4.7-1-4.7-2.7 0-2.5 3.2-2.8 5-2.8 2.7 0 5.5.5 5.5.5l.2-1.6S9.6.2 6.8.2C5.4 0 2.5.3 1 1.7c-.7.8-1 1.7-1 2.8 0 3.2 3.3 3.8 6.2 4.4" class="logo-element"/>
  <polygon points="18.5,1.7 24.3,1.7 24.3,16.6 26.1,16.6 26.1,1.7 31.9,1.7 31.9,0.1 18.5,0.1" class="logo-element"/>
  <polygon points="65.1,0.1 57.7,16.6 59.6,16.6 66,2.2 72.4,16.6 74.3,16.6 66.8,0.1" class="logo-element"/>
  <polygon points="78.8,1.7 84.7,1.7 84.7,16.6 86.4,16.6 86.4,1.7 92.3,1.7 92.3,0.1 78.8,0.1" class="logo-element"/>
  <rect width="1.8" height="16.5" x="100.3" y=".1" class="logo-element"/>
  <polygon points="126.8,0.1 119.7,9.3 112.5,0.1 110.7,0.1 110.7,16.6 112.5,16.6 112.5,3 119.4,11.8 120.1,11.8 126.9,3 126.9,16.6 128.7,16.6 128.7,0.1" class="logo-element"/>
  <path d="M46.4 10c2-.2 2.8-.8 3.5-1.6.9-.9 1.3-2.1 1.3-3.5C51.2 2.6 49.6 0 46 0h-7.6v16.5h1.8V10h4.2l5.1 6.6h2.4L46.4 10zm-6.2-8.3H46c1 0 1.9.3 2.5.9.6.6.9 1.5.9 2.4 0 2.1-1.4 3.3-3.7 3.3h-5.5V1.7z" class="logo-element"/>
</svg>
