<svg xmlns="http://www.w3.org/2000/svg" width="128.7" height="16.6" viewBox="0 0 128.7 16.6"><style>.logo-element{fill:#eef3fa;}</style><path d="M6.2 8.9c3 .6 5.1 1.1 5.1 3.2 0 2.8-3.7 2.9-5.2 2.9-3.3 0-5.9-1-5.9-1v1.7s2.2.9 5.9.9c2.1 0 7-.3 7-4.5 0-3.6-3.4-4.2-6.4-4.8h-.2c-2.8-.5-4.7-1-4.7-2.7 0-2.5 3.2-2.8 5-2.8 2.7 0 5.5.5 5.5.5l.2-1.6s-2.9-.5-5.7-.5c-1.4-.2-4.3.1-5.8 1.5-.7.8-1 1.7-1 2.8 0 3.2 3.3 3.8 6.2 4.4" class="logo-element"/><path class="logo-element" d="M18.5 1.7h5.8v14.9h1.8v-14.9h5.8v-1.6h-13.4zM65.1.1l-7.4 16.5h1.9l6.4-14.4 6.4 14.4h1.9l-7.5-16.5zM78.8 1.7h5.9v14.9h1.7v-14.9h5.9v-1.6h-13.5zM100.3.1h1.8v16.5h-1.8zM126.8.1l-7.1 9.2-7.2-9.2h-1.8v16.5h1.8v-13.6l6.9 8.8h.7l6.8-8.8v13.6h1.8v-16.5zM46.4 10c2-.2 2.8-.8 3.5-1.6.9-.9 1.3-2.1 1.3-3.5 0-2.3-1.6-4.9-5.2-4.9h-7.6v16.5h1.8v-6.5h4.2l5.1 6.6h2.4l-5.5-6.6zm-6.2-8.3h5.8c1 0 1.9.3 2.5.9.6.6.9 1.5.9 2.4 0 2.1-1.4 3.3-3.7 3.3h-5.5v-6.6z"/></svg>