<?xml version="1.0" encoding="utf-8"?>
<!-- Generator: Adobe Illustrator 20.1.0, SVG Export Plug-In . SVG Version: 6.00 Build 0)  -->
<svg version="1.1" xmlns="http://www.w3.org/2000/svg" xmlns:xlink="http://www.w3.org/1999/xlink" x="0px" y="0px"
	 viewBox="0 0 3156.4 1568.5" style="enable-background:new 0 0 3156.4 1568.5;" xml:space="preserve">
<style type="text/css">
	.st0{display:none;}
	.st1{display:inline;}
	.st2{opacity:0.4;}
	.st3{fill:none;stroke:#FFFFFF;}
	.st4{fill:none;stroke:#FFFFFF;stroke-width:3;stroke-dasharray:65 15;}

	@keyframes request-movement {
    	0% { stroke-dashoffset: 80; }
    	100% { stroke-dashoffset: 0;  }
  	}

	.st4 { animation: request-movement 1s infinite; }

	.st4-A { animation-delay: 0.2s; }
	.st4-B { animation-delay: 0.4s; }
	.st4-C { animation-delay: 0.6s; }
	.st4-D { animation-delay: 0.8s; }
	.st4-E { animation-delay: 1.0s; }
	.st4-F { animation-delay: 1.2s; }
	.st4-G { animation-delay: 1.4s; }
	.st4-H { animation-delay: 1.6s; }
	.st4-I { animation-delay: 1.8s; }
	.st4-J { animation-delay: 2.0s; }
	.st4-K { animation-delay: 2.2s; }
	.st4-L { animation-delay: 2.4s; }
	.st4-M { animation-delay: 2.6s; }
	.st4-N { animation-delay: 2.8s; }
	.st4-O { animation-delay: 3.0s; }
	.st4-P { animation-delay: 3.2s; }
	.st4-R { animation-delay: 3.4s; }
	.st4-S { animation-delay: 3.6s; }
	
</style>
<g id="Layer_2" class="st0">
	<rect x="-147.7" y="-822.7" class="st1" width="4147.1" height="2650.1"/>
</g>
<g id="Layer_1">
	<g id="Layer_1_1_" class="st2">
		<g>
			<line class="st3" x1="0" y1="0" x2="0" y2="1564.7"/>
			<line class="st3" x1="131.5" y1="0" x2="131.5" y2="1564.7"/>
			<line class="st3" x1="263" y1="0" x2="263" y2="1564.7"/>
			<line class="st3" x1="394.6" y1="0" x2="394.6" y2="1564.7"/>
			<line class="st3" x1="526.1" y1="0" x2="526.1" y2="1564.7"/>
			<line class="st3" x1="657.6" y1="0" x2="657.6" y2="1564.7"/>
			<line class="st3" x1="789.1" y1="0" x2="789.1" y2="1564.7"/>
			<line class="st3" x1="920.6" y1="0" x2="920.6" y2="1564.7"/>
			<line class="st3" x1="1052.1" y1="0" x2="1052.1" y2="1564.7"/>
			<line class="st3" x1="1183.7" y1="0" x2="1183.7" y2="1564.7"/>
			<line class="st3" x1="1315.2" y1="0" x2="1315.2" y2="1564.7"/>
			<line class="st3" x1="1446.7" y1="0" x2="1446.7" y2="1564.7"/>
			<line class="st3" x1="1578.2" y1="0" x2="1578.2" y2="1564.7"/>
			<line class="st3" x1="1709.7" y1="0" x2="1709.7" y2="1564.7"/>
			<line class="st3" x1="1841.3" y1="0" x2="1841.3" y2="1564.7"/>
			<line class="st3" x1="1972.8" y1="0" x2="1972.8" y2="1564.7"/>
			<line class="st3" x1="2104.3" y1="0" x2="2104.3" y2="1564.7"/>
			<line class="st3" x1="2235.8" y1="0" x2="2235.8" y2="1564.7"/>
			<line class="st3" x1="2367.3" y1="0" x2="2367.3" y2="1564.7"/>
			<line class="st3" x1="2498.8" y1="0" x2="2498.8" y2="1564.7"/>
			<line class="st3" x1="2630.4" y1="0" x2="2630.4" y2="1564.7"/>
			<line class="st3" x1="2761.9" y1="0" x2="2761.9" y2="1564.7"/>
			<line class="st3" x1="2893.4" y1="0" x2="2893.4" y2="1564.7"/>
			<line class="st3" x1="3024.9" y1="0" x2="3024.9" y2="1564.7"/>
		</g>
		<g>
			<line class="st3" x1="0" y1="0" x2="3156.4" y2="0"/>
			<line class="st3" x1="0" y1="130.7" x2="3156.4" y2="130.7"/>
			<line class="st3" x1="0" y1="261.4" x2="3156.4" y2="261.4"/>
			<line class="st3" x1="0" y1="392.1" x2="3156.4" y2="392.1"/>
			<line class="st3" x1="0" y1="522.8" x2="3156.4" y2="522.8"/>
			<line class="st3" x1="0" y1="653.6" x2="3156.4" y2="653.6"/>
			<line class="st3" x1="0" y1="784.3" x2="3156.4" y2="784.3"/>
			<line class="st3" x1="0" y1="915" x2="3156.4" y2="915"/>
			<line class="st3" x1="0" y1="1045.7" x2="3156.4" y2="1045.7"/>
			<line class="st3" x1="0" y1="1176.4" x2="3156.4" y2="1176.4"/>
			<line class="st3" x1="0" y1="1307.1" x2="3156.4" y2="1307.1"/>
			<line class="st3" x1="0" y1="1437.8" x2="3156.4" y2="1437.8"/>
			<line class="st3" x1="0" y1="1568.5" x2="3156.4" y2="1568.5"/>
		</g>
	</g>
	<g id="Layer_4">
		<line class="st4 st4-A" x1="131.5" y1="1264.4" x2="131.5" y2="1322.8"/>
		<line class="st4 st4-A" x1="394.6" y1="827.7" x2="394.6" y2="886.1"/>
		<line class="st4 st4-A" x1="526.1" y1="444" x2="526.1" y2="502.4"/>
		<line class="st4 st4-B" x1="526.1" y1="1086" x2="526.1" y2="1144.4"/>
		<line class="st4 st4-B" x1="920.6" y1="1468.7" x2="920.6" y2="1527.1"/>
		<line class="st4 st4-B" x1="2104.3" y1="135.9" x2="2104.3" y2="194.3"/>
		<line class="st4 st4-C" x1="2367.3" y1="419.1" x2="2367.3" y2="477.5"/>
		<line class="st4 st4-C" x1="2761.9" y1="561.2" x2="2761.9" y2="619.6"/>
		<line class="st4 st4-C" x1="3024.9" y1="834" x2="3024.9" y2="892.4"/>
		<line class="st4 st4-D" x1="2893.4" y1="1350.5" x2="2893.4" y2="1408.9"/>
		<line class="st4 st4-D" x1="2630.4" y1="1208.4" x2="2630.4" y2="1266.8"/>
		<line class="st4 st4-D" x1="2235.8" y1="1462.5" x2="2235.8" y2="1520.9"/>
		<line class="st4 st4-E" x1="263" y1="165.1" x2="263" y2="223.5"/>
		<line class="st4 st4-E" x1="131.5" y1="685" x2="131.5" y2="743.4"/>
		<line class="st4 st4-E" x1="657.6" y1="165.1" x2="657.6" y2="223.5"/>
		<line class="st4 st4-F" x1="439.6" y1="261.4" x2="498" y2="261.4"/>
		<line class="st4 st4-F" x1="45.6" y1="522.8" x2="104" y2="522.8"/>
		<line class="st4 st4-F" x1="291.2" y1="1176.4" x2="349.6" y2="1176.4"/>
		<line class="st4 st4-G" x1="700.1" y1="653.6" x2="758.5" y2="653.6"/>
		<line class="st4 st4-G" x1="291.4" y1="654.4" x2="349.8" y2="654.4"/>
		<line class="st4 st4-G" x1="819" y1="1307.1" x2="877.4" y2="1307.1"/>
		<line class="st4 st4-H" x1="298.5" y1="1437.8" x2="356.9" y2="1437.8"/>
		<line class="st4 st4-H" x1="428.6" y1="1308.6" x2="487" y2="1308.6"/>
		<line class="st4 st4-H" x1="1060.9" y1="1045.7" x2="1119.3" y2="1045.7"/>
		<line class="st4 st4-I" x1="467.1" y1="915" x2="525.5" y2="915"/>
		<line class="st4 st4-I" x1="155.5" y1="785.2" x2="213.9" y2="785.2"/>
		<line class="st4 st4-I" x1="47.5" y1="1047" x2="105.9" y2="1047"/>
		<line class="st4 st4-J" x1="197.8" y1="393.2" x2="256.2" y2="393.2"/>
		<line class="st4 st4-J" x1="47.8" y1="130.7" x2="106.2" y2="130.7"/>
		<line class="st4 st4-J" x1="967.9" y1="261.4" x2="1026.3" y2="261.4"/>
		<line class="st4 st4-K" x1="703.9" y1="130.7" x2="762.4" y2="130.7"/>
		<line class="st4 st4-K" x1="1878.7" y1="262.5" x2="1937.1" y2="262.5"/>
		<line class="st4 st4-K" x1="2276.4" y1="131.7" x2="2334.8" y2="131.7"/>
		<line class="st4 st4-L" x1="1352.7" y1="131.7" x2="1411.1" y2="131.7"/>
		<line class="st4 st4-L" x1="2655.8" y1="392.1" x2="2714.2" y2="392.1"/>
		<line class="st4 st4-L" x1="3077.7" y1="522.8" x2="3136.1" y2="522.8"/>
		<line class="st4 st4-M" x1="2927.4" y1="654.6" x2="2985.8" y2="654.6"/>
		<line class="st4 st4-M" x1="2663.5" y1="785.1" x2="2721.9" y2="785.1"/>
		<line class="st4 st4-M" x1="2928.3" y1="1045.7" x2="2986.7" y2="1045.7"/>
		<line class="st4 st4-N" x1="1878.2" y1="1307.1" x2="1936.6" y2="1307.1"/>
		<line class="st4 st4-N" x1="1620.2" y1="1438.7" x2="1678.6" y2="1438.7"/>
		<line class="st4 st4-N" x1="1079.5" y1="1437.8" x2="1137.9" y2="1437.8"/>
		<line class="st4 st4-O" x1="2684.6" y1="1176.4" x2="2743" y2="1176.4"/>
		<line class="st4 st4-O" x1="2407.8" y1="1307.1" x2="2466.2" y2="1307.1"/>
		<line class="st4 st4-O" x1="2652" y1="1437.8" x2="2710.4" y2="1437.8"/>
		<line class="st4 st4-P" x1="3057" y1="1307.1" x2="3115.4" y2="1307.1"/>
		<line class="st4 st4-P" x1="2005" y1="1438.7" x2="2063.5" y2="1438.7"/>
		<line class="st4 st4-P" x1="2544" y1="261.4" x2="2602.4" y2="261.4"/>
		<line class="st4 st4-R" x1="1709.7" y1="43.3" x2="1709.7" y2="101.7"/>
		<line class="st4 st4-R" x1="2761.9" y1="165.1" x2="2761.9" y2="223.5"/>
		<line class="st4 st4-R" x1="2367.3" y1="684.9" x2="2367.3" y2="743.3"/>
		<line class="st4 st4-S" x1="1052.1" y1="43.3" x2="1052.1" y2="101.7"/>
	</g>
</g>
</svg>
