<?xml version="1.0" encoding="utf-8"?>
<!-- Generator: Adobe Illustrator 20.1.0, SVG Export Plug-In . SVG Version: 6.00 Build 0)  -->
<svg version="1.1" id="Layer_1" xmlns="http://www.w3.org/2000/svg" xmlns:xlink="http://www.w3.org/1999/xlink" x="0px" y="0px"
	 viewBox="0 0 81.9 75" style="enable-background:new 0 0 81.9 75;" xml:space="preserve">
<style type="text/css">
	.st0{opacity:0.2;fill:url(#SVGID_1_);enable-background:new    ;}
	.st1{fill:none;stroke:#7D909D;stroke-width:0.7;stroke-miterlimit:10;}
	.st2{fill:none;stroke:#7D909D;stroke-miterlimit:10;}
</style>
<g id="Layer_1_1_">
</g>
<g id="Layer_3">
	
		<linearGradient id="SVGID_1_" gradientUnits="userSpaceOnUse" x1="41" y1="62.2702" x2="41" y2="13.5419" gradientTransform="matrix(1 0 0 -1 0 76)">
		<stop  offset="0" style="stop-color:#7D909D"/>
		<stop  offset="0.5" style="stop-color:#7D909D;stop-opacity:0.3"/>
		<stop  offset="1" style="stop-color:#7D909D"/>
	</linearGradient>
	<polygon class="st0" points="55.2,62.1 55.2,29.3 26.8,12.9 26.8,45.7 	"/>
	<line class="st1" x1="39" y1="37.5" x2="15.3" y2="37.5"/>
	<path class="st2" d="M13,35.2L13,35.2c1.3,0,2.3,1,2.3,2.3v0c0,1.3-1,2.3-2.3,2.3h0c-1.3,0-2.3-1-2.3-2.3v0
		C10.7,36.2,11.7,35.2,13,35.2z"/>
	<rect x="66.6" y="35.2" class="st2" width="4.6" height="4.6"/>
	<line class="st1" x1="66.6" y1="37.5" x2="43" y2="37.5"/>
</g>
<polyline class="st1" points="8.7,26 6.1,26 6.1,28.6 "/>
<polyline class="st1" points="6.1,46.4 6.1,49 8.7,49 "/>
<polyline class="st1" points="73.2,49 75.8,49 75.8,46.4 "/>
<polyline class="st1" points="75.8,28.6 75.8,26 73.2,26 "/>
</svg>
