<?xml version="1.0" encoding="utf-8"?>
<!-- Generator: Adobe Illustrator 19.1.0, SVG Export Plug-In . SVG Version: 6.00 Build 0)  -->
<!DOCTYPE svg PUBLIC "-//W3C//DTD SVG 1.1//EN" "http://www.w3.org/Graphics/SVG/1.1/DTD/svg11.dtd">
<svg version="1.1" id="Layer_6" xmlns="http://www.w3.org/2000/svg" xmlns:xlink="http://www.w3.org/1999/xlink" x="0px" y="0px"
	 width="250" height="313.4px" viewBox="1975 0 250 313.4" style="enable-background:new 0 0 400 313.4;"
	 xml:space="preserve">

<style type="text/css">
	.st0{fill:none;stroke:#DCF0FF;opacity:0.5;stroke-width:0.5;stroke-linejoin:bevel;stroke-miterlimit:10;}
	.st1{fill:none;stroke:#DCF0FF;opacity:0.2;stroke-width:0.5;stroke-miterlimit:10;stroke-dasharray:50 5;stroke-dashoffset:55;}
	.st2{fill:#545b69;}
	.st3{fill:#14171d;}
	.st4{fill:none;stroke:white;stroke-width:15;opacity:0;cursor:pointer;}
	.st5{fill:none;stroke:white;stroke-width:8;opacity:0;cursor:pointer;}
	.st6{fill:none;stroke:white;stroke-width:25;opacity:0;cursor:pointer;}
</style>
<g id="stage-shapes">
	<polygon id="processing-shape" class="st0" points="2046.6,185.7 2100.7,92 2154.8,185.7 	"/>
</g>
<g id="background-mess" opacity="0.5">
	<polygon class="st2" points="53,233.7 43.3,228.5 53,228.5 	"/>
	<polygon class="st2" points="617.4,31.7 617.4,35.1 621.8,35.1 	"/>
	<polygon class="st2" points="430.1,152.4 426.6,158.5 430.1,158.5 	"/>
	<polygon class="st2" points="356.3,20.1 338.7,26.1 356.8,14.6 	"/>
	<polygon class="st2" points="757.6,0 762.5,7.8 768.4,9.3 774.7,4.6 763.5,0 	"/>
	<polygon class="st2" points="1068.6,5.1 1079.4,11.7 1063,8 	"/>
	<polygon class="st2" points="868.5,23 868.1,27.3 874.2,26.8 	"/>
	<polygon class="st2" points="943.9,230.1 952.3,230.1 947.6,225.9 	"/>
	<polygon class="st2" points="1126.5,283.6 1136.9,280.7 1127,279.8 	"/>
	<polygon class="st2" points="800.3,218.4 806.4,224 807.8,217.4 	"/>
	<polygon class="st2" points="157.7,175.5 157.7,181.2 164.8,177.9 	"/>
	<polygon class="st2" points="1193.8,196.4 1186,193.4 1183.9,200.8 1188.8,200.8 	"/>
	<polygon class="st2" points="1185.9,107.3 1185.9,112.4 1191.7,109.9 	"/>
	<polygon class="st2" points="1412.5,193.4 1416.7,197.1 1420.1,193.4 	"/>
	<polygon class="st2" points="1421.2,29.2 1427.8,33.8 1430.4,31.4 	"/>
	<polygon class="st2" points="1620.3,79.4 1620.3,85.9 1628.8,85.9 1628.8,82.6 	"/>
	<polygon class="st2" points="1798.9,97 1804.7,100.1 1807.4,95.8 	"/>
	<polygon class="st2" points="1925.9,42.4 1933.6,45.2 1935.3,42.4 	"/>
	<polygon class="st2" points="1877,247.6 1884.4,247.6 1881.8,250.2 	"/>

		<rect x="2250.4" y="70" transform="matrix(0.7071 0.7071 -0.7071 0.7071 710.7456 -1571.6486)" class="st1" width="4.3" height="4.3"/>

		<rect x="2431.4" y="30" transform="matrix(0.7071 0.7071 -0.7071 0.7071 735.475 -1711.3506)" class="st1" width="4.3" height="4.3"/>

		<rect x="2463.4" y="180" transform="matrix(0.7071 0.7071 -0.7071 0.7071 850.9136 -1690.0441)" class="st1" width="4.3" height="4.3"/>

		<rect x="3070.6" y="30" transform="matrix(0.7071 0.7071 -0.7071 0.7071 922.7129 -2163.3828)" class="st1" width="4.3" height="4.3"/>

		<rect x="3066.7" y="297.2" transform="matrix(0.7071 0.7071 -0.7071 0.7071 1110.5154 -2082.355)" class="st1" width="4.3" height="4.3"/>

		<rect x="3313.8" y="217.4" transform="matrix(0.7071 0.7071 -0.7071 0.7071 1126.4738 -2280.4055)" class="st1" width="4.3" height="4.3"/>

		<rect x="3246.5" y="74.2" transform="matrix(0.7071 0.7071 -0.7071 0.7071 1005.5156 -2274.8079)" class="st1" width="4.3" height="4.3"/>

		<rect x="3910.9" y="30" transform="matrix(0.7071 0.7071 -0.7071 0.7071 1168.8262 -2757.5527)" class="st1" width="4.3" height="4.3"/>

		<rect x="3907" y="297.2" transform="matrix(0.7071 0.7071 -0.7071 0.7071 1356.6287 -2676.5249)" class="st1" width="4.3" height="4.3"/>

		<rect x="4154.1" y="217.4" transform="matrix(0.7071 0.7071 -0.7071 0.7071 1372.587 -2874.5754)" class="st1" width="4.3" height="4.3"/>

		<rect x="4086.8" y="74.2" transform="matrix(0.7071 0.7071 -0.7071 0.7071 1251.6289 -2868.9778)" class="st1" width="4.3" height="4.3"/>
	<line class="st1" x1="670.6" y1="31.1" x2="711.8" y2="42.7"/>
	<line class="st1" x1="727.3" y1="214.4" x2="699.3" y2="228"/>
	<line class="st1" x1="384.7" y1="161.9" x2="404.6" y2="173.5"/>
	<line class="st1" x1="587.4" y1="94.2" x2="583.8" y2="100.2"/>
	<line class="st1" x1="517.1" y1="25.3" x2="523.8" y2="31.1"/>
	<line class="st1" x1="388.3" y1="249" x2="397" y2="243.8"/>
	<line class="st1" x1="196.6" y1="221.2" x2="201" y2="235"/>
	<line class="st1" x1="57.4" y1="167.7" x2="50" y2="173.5"/>
	<line class="st1" x1="134.5" y1="63.7" x2="143.3" y2="69.5"/>
	<line class="st1" x1="36.1" y1="37.6" x2="90.6" y2="25.3"/>
	<line class="st1" x1="246.8" y1="7.2" x2="260.5" y2="13"/>
	<line class="st1" x1="53.7" y1="286.5" x2="68.3" y2="275.4"/>
	<line class="st1" x1="769.6" y1="246.4" x2="810" y2="263.7"/>
	<line class="st1" x1="1020.2" y1="103.3" x2="1028.4" y2="100.7"/>
	<line class="st1" x1="1148.8" y1="47.6" x2="1183.9" y2="61.1"/>
	<line class="st1" x1="1156.9" y1="221.9" x2="1179.7" y2="215.6"/>
	<line class="st1" x1="1373" y1="199.9" x2="1369.2" y2="208.6"/>
	<line class="st1" x1="1551.8" y1="81.9" x2="1542.9" y2="78.6"/>
	<line class="st1" x1="1565.8" y1="185.7" x2="1603.1" y2="177.8"/>
	<line class="st1" x1="1516.3" y1="279.6" x2="1534.5" y2="285.3"/>
	<line class="st1" x1="1609" y1="13.6" x2="1620.3" y2="10.4"/>
	<line class="st1" x1="904.1" y1="303.7" x2="921.4" y2="309.1"/>
	<line class="st1" x1="1716.8" y1="70" x2="1735.3" y2="64.4"/>
	<line class="st1" x1="1844.4" y1="37.2" x2="1853.6" y2="39.4"/>
	<line class="st1" x1="1779.3" y1="274.6" x2="1792.5" y2="270.1"/>
	<line class="st1" x1="1719.9" y1="188.7" x2="1729.9" y2="189.8"/>
	<line class="st1" x1="1941.7" y1="222" x2="1964.9" y2="214.2"/>
	<line class="st1" x1="2229.1" y1="113.9" x2="2255.6" y2="113.9"/>
	<line class="st1" x1="2325.4" y1="78.2" x2="2444.5" y2="78.2"/>
	<line class="st1" x1="2352.1" y1="172.8" x2="2400.4" y2="172.8"/>
	<line class="st1" x1="2725.6" y1="72.1" x2="2773.9" y2="72.1"/>
	<line class="st1" x1="3148.7" y1="35.2" x2="3197.1" y2="35.2"/>
	<line class="st1" x1="3186.8" y1="223.1" x2="3235.1" y2="223.1"/>
	<line class="st1" x1="2581.6" y1="208.3" x2="2630" y2="208.3"/>
	<line class="st1" x1="2465.5" y1="260.9" x2="2483.8" y2="260.9"/>
	<line class="st1" x1="2581.6" y1="38.4" x2="2599.9" y2="38.4"/>
	<line class="st1" x1="2797" y1="240.1" x2="2815.3" y2="240.1"/>
	<line class="st1" x1="3008.7" y1="45.9" x2="3027" y2="45.9"/>
	<line class="st1" x1="3319" y1="76.4" x2="3337.3" y2="76.4"/>
	<line class="st1" x1="2979.7" y1="289.1" x2="2998" y2="289.1"/>
	<line class="st1" x1="2191" y1="38.4" x2="2198.6" y2="38.4"/>
	<line class="st1" x1="2613.4" y1="87.9" x2="2621" y2="87.9"/>
	<line class="st1" x1="2932.1" y1="10.4" x2="2939.7" y2="10.4"/>
	<line class="st1" x1="2605.6" y1="294.8" x2="2613.2" y2="294.8"/>
	<line class="st1" x1="3057.4" y1="215.7" x2="3065" y2="215.7"/>
	<line class="st1" x1="3565.9" y1="72.1" x2="3614.2" y2="72.1"/>
	<line class="st1" x1="3989" y1="35.2" x2="4037.4" y2="35.2"/>
	<line class="st1" x1="4027" y1="223.1" x2="4075.4" y2="223.1"/>
	<line class="st1" x1="3637.2" y1="240.1" x2="3655.6" y2="240.1"/>
	<line class="st1" x1="3849" y1="45.9" x2="3867.3" y2="45.9"/>
	<line class="st1" x1="4159.3" y1="76.4" x2="4177.6" y2="76.4"/>
	<line class="st1" x1="3820" y1="289.1" x2="3838.3" y2="289.1"/>
	<line class="st1" x1="3772.4" y1="10.4" x2="3780" y2="10.4"/>
	<line class="st1" x1="3897.7" y1="215.7" x2="3905.3" y2="215.7"/>
	<polygon class="st2" points="1599.6,141.5 1603.4,145.8 1606.7,142.9 	"/>

	<animate
    attributeName="transform"
		type="translate"
		from="0 0"
		to="0 0"
		values="0 0;-100 0;"
		dur="40s"
		begin="0"
		repeatCount="indefinite"
		calcMode="spline"
		keySplines="0.5 0 0.5 1;0.5 0 0.5 1"
		/>
</g>
<g id="particle-lines">
	<path id="A34_A35" class="st1" d="M1814.3,145.5c0,0,19.1-7.9,42.7-11c23.6-3.1,41.1,0,41.1,0">
		<animate
			attributeName="opacity"
			from="0.1"
			to="0.1"
			dur="0.1"
			values="0.1;0.6;0.1;0.6"
			begin="A34_A35_hover.mouseover"
			repeatCount="1"
			fill="freeze"
		/>
		<animate
			attributeName="opacity"
			from="0.1"
			to="0.1"
			dur="0.1"
			values="0.6;0.1"
			begin="A34_A35_hover.mouseout"
			repeatCount="1"
			fill="freeze"
		/>
		<!-- dash animation -->
		<animate
			attributeName="stroke-dashoffset"
			from="55"
			to="0"
			dur="1"
			begin="0"
			repeatCount="indefinite"
		/>
	</path>
	<path id="A34_A35_hover" class="st4" d="M1814.3,145.5c0,0,19.1-7.9,42.7-11c23.6-3.1,41.1,0,41.1,0"/>
	<!-- // -->
	<path id="A35_A37" class="st1" d="M1898.1,134.5c0,0,1.4,0.3,31,7.9c34.8,8.9,53.3,1.5,53.3,1.5">
		<animate
			attributeName="opacity"
			from="0.1"
			to="0.1"
			dur="0.1"
			values="0.1;0.6;0.1;0.6"
			begin="A35_A37_hover.mouseover"
			repeatCount="1"
			fill="freeze"
		/>
		<animate
			attributeName="opacity"
			from="0.1"
			to="0.1"
			dur="0.1"
			values="0.6;0.1"
			begin="A35_A37_hover.mouseout"
			repeatCount="1"
			fill="freeze"
		/>
		<!-- dash animation -->
		<animate
			attributeName="stroke-dashoffset"
			from="55"
			to="0"
			dur="1"
			begin="0"
			repeatCount="indefinite"
		/>
	</path>
	<path id="A35_A37_hover" class="st4" d="M1898.1,134.5c0,0,1.4,0.3,31,7.9c34.8,8.9,53.3,1.5,53.3,1.5"/>
	<!-- // -->
	<path id="A36_A37" class="st1" d="M1982.4,143.9c0,0-3.6,4.9-10,8.3c-6.4,3.4-12.5,3.6-12.5,3.6">
		<animate
			attributeName="opacity"
			from="0.1"
			to="0.1"
			dur="0.1"
			values="0.1;0.6;0.1;0.6"
			begin="A36_A37_hover.mouseover"
			repeatCount="1"
			fill="freeze"
		/>
		<animate
			attributeName="opacity"
			from="0.1"
			to="0.1"
			dur="0.1"
			values="0.6;0.1"
			begin="A36_A37_hover.mouseout"
			repeatCount="1"
			fill="freeze"
		/>
		<!-- dash animation -->
		<animate
			attributeName="stroke-dashoffset"
			from="55"
			to="0"
			dur="1"
			begin="0"
			repeatCount="indefinite"
		/>
	</path>
	<path id="A36_A37_hover" class="st4" d="M1982.4,143.9c0,0-3.6,4.9-10,8.3c-6.4,3.4-12.5,3.6-12.5,3.6"/>
	<!-- // -->
	<path id="A37_A38" class="st1" d="M1982.4,143.9c0,0,11.4,8,27.9,9.3c17.7,1.4,27.9-5.3,27.9-5.3">
		<animate
			attributeName="opacity"
			from="0.1"
			to="0.1"
			dur="0.1"
			values="0.1;0.6;0.1;0.6"
			begin="A37_A38_hover.mouseover"
			repeatCount="1"
			fill="freeze"
		/>
		<animate
			attributeName="opacity"
			from="0.1"
			to="0.1"
			dur="0.1"
			values="0.6;0.1"
			begin="A37_A38_hover.mouseout"
			repeatCount="1"
			fill="freeze"
		/>
		<!-- dash animation -->
		<animate
			attributeName="stroke-dashoffset"
			from="55"
			to="0"
			dur="1"
			begin="0"
			repeatCount="indefinite"
		/>
	</path>
	<path id="A37_A38_hover" class="st4" d="M1982.4,143.9c0,0,11.4,8,27.9,9.3c17.7,1.4,27.9-5.3,27.9-5.3"/>
	<!-- // -->
	<path id="A38_processing_engine" class="st1" d="M2039.8,148.1c0,0,14.7-7.4,31.6-0.2c20.6,8.8,29.3-4.4,29.3-4.4">
		<animate
			attributeName="opacity"
			from="0.1"
			to="0.1"
			dur="0.1"
			values="0.1;0.6;0.1;0.6"
			begin="A38_processing_engine_hover.mouseover"
			repeatCount="1"
			fill="freeze"
		/>
		<animate
			attributeName="opacity"
			from="0.1"
			to="0.1"
			dur="0.1"
			values="0.6;0.1"
			begin="A38_processing_engine_hover.mouseout"
			repeatCount="1"
			fill="freeze"
		/>
		<!-- dash animation -->
		<animate
			attributeName="stroke-dashoffset"
			from="55"
			to="0"
			dur="1"
			begin="0"
			repeatCount="indefinite"
		/>
	</path>
	<path id="A38_processing_engine_hover" class="st4" d="M2039.8,148.1c0,0,14.7-7.4,31.6-0.2c20.6,8.8,29.3-4.4,29.3-4.4"/>
</g>
<g id="particles">
	<polygon id="A35" class="st2" points="1889.3,131.8 1897.9,139.8 1907,133.9 1898.1,129.3">
		<animate
			attributeName="fill"
			from="0.1"
			to="0.1"
			dur="0.1"
			values="#545b69;white"
			begin="A34_A35_hover.mouseover;A35_A37_hover.mouseover"
			repeatCount="1"
			fill="freeze"
		/>
		<animate
			attributeName="fill"
			from="0.1"
			to="0.1"
			dur="0.1"
			values="white;#545b69"
			begin="A34_A35_hover.mouseout;A35_A37_hover.mouseout"
			repeatCount="1"
			fill="freeze"
		/>
	</polygon>
	<polygon id="A36" class="st2" points="1952.7,153.2 1960.4,158.3 1967.1,155">
		<animate
			attributeName="fill"
			from="0.1"
			to="0.1"
			dur="0.1"
			values="#545b69;white"
			begin="A36_A37_hover.mouseover"
			repeatCount="1"
			fill="freeze"
		/>
		<animate
			attributeName="fill"
			from="0.1"
			to="0.1"
			dur="0.1"
			values="white;#545b69"
			begin="A36_A37_hover.mouseout"
			repeatCount="1"
			fill="freeze"
		/>
	</polygon>
	<polygon id="A37" class="st2" points="1976.8,139.9 1983.9,140.6 1988,145.2 1976.8,147.9">
		<animate
			attributeName="fill"
			from="0.1"
			to="0.1"
			dur="0.1"
			values="#545b69;white"
			begin="A36_A37_hover.mouseover;A35_A37_hover.mouseover;A37_A38_hover.mouseover"
			repeatCount="1"
			fill="freeze"
		/>
		<animate
			attributeName="fill"
			from="0.1"
			to="0.1"
			dur="0.1"
			values="white;#545b69"
			begin="A36_A37_hover.mouseout;A35_A37_hover.mouseout;A37_A38_hover.mouseout"
			repeatCount="1"
			fill="freeze"
		/>
	</polygon>
	<polygon id="A38" class="st2" points="2032.1,143.8 2037,151.9 2047.5,147.9">
		<animate
			attributeName="fill"
			from="0.1"
			to="0.1"
			dur="0.1"
			values="#545b69;white"
			begin="A37_A38_hover.mouseover;A38_processing_engine_hover.mouseover"
			repeatCount="1"
			fill="freeze"
		/>
		<animate
			attributeName="fill"
			from="0.1"
			to="0.1"
			dur="0.1"
			values="white;#545b69"
			begin="A37_A38_hover.mouseout;A38_processing_engine_hover.mouseout"
			repeatCount="1"
			fill="freeze"
		/>
	</polygon>
</g>
<g id="processed-lines">
	<line id="top_line" class="st1" x1="2100.7" y1="143.4" x2="2918.1" y2="119.4">
		<animate
			attributeName="opacity"
			from="0.1"
			to="0.1"
			dur="0.1"
			values="0.1;0.6;0.1;0.6"
			begin="top_line_hover.mouseover"
			repeatCount="1"
			fill="freeze"
		/>
		<animate
			attributeName="opacity"
			from="0.1"
			to="0.1"
			dur="0.1"
			values="0.6;0.1"
			begin="top_line_hover.mouseout"
			repeatCount="1"
			fill="freeze"
		/>
		<!-- dash animation -->
		<animate
			attributeName="stroke-dashoffset"
			from="55"
			to="0"
			dur="1"
			begin="0"
			repeatCount="indefinite"
		/>
	</line>
	<line id="top_line_hover" class="st5" x1="2100.7" y1="143.4" x2="2918.1" y2="119.4"/>
	<line id="bottom_line" class="st1" x1="2100.7" y1="143.4" x2="2918.1" y2="167.5">
		<animate
			attributeName="opacity"
			from="0.1"
			to="0.1"
			dur="0.1"
			values="0.1;0.6;0.1;0.6"
			begin="bottom_line_hover.mouseover"
			repeatCount="1"
			fill="freeze"
		/>
		<animate
			attributeName="opacity"
			from="0.1"
			to="0.1"
			dur="0.1"
			values="0.6;0.1"
			begin="bottom_line_hover.mouseout"
			repeatCount="1"
			fill="freeze"
		/>
		<!-- dash animation -->
		<animate
			attributeName="stroke-dashoffset"
			from="55"
			to="0"
			dur="1"
			begin="0"
			repeatCount="indefinite"
		/>
	</line>
	<line id="bottom_line_hover" class="st5" x1="2100.7" y1="143.4" x2="2918.1" y2="167.5"/>
	<line id="middle_line" class="st1" x1="2100.7" y1="143.4" x2="2904.2" y2="143.4">
		<animate
			attributeName="opacity"
			from="0.1"
			to="0.1"
			dur="0.1"
			values="0.1;0.6;0.1;0.6"
			begin="middle_line_hover.mouseover"
			repeatCount="1"
			fill="freeze"
		/>
		<animate
			attributeName="opacity"
			from="0.1"
			to="0.1"
			dur="0.1"
			values="0.6;0.1"
			begin="middle_line_hover.mouseout"
			repeatCount="1"
			fill="freeze"
		/>
		<!-- dash animation -->
		<animate
			attributeName="stroke-dashoffset"
			from="55"
			to="0"
			dur="1"
			begin="0"
			repeatCount="indefinite"
		/>
	</line>
	<line id="middle_line_hover" class="st5" x1="2100.7" y1="143.4" x2="2904.2" y2="143.4"/>
</g>
<polygon id="processing-engine" class="st2" points="2085.6,163.2 2100.7,137 2115.8,163.2 ">
	<animate
		attributeName="fill"
		from="0.1"
		to="0.1"
		dur="0.1"
		values="#545b69;white"
		begin="A38_processing_engine_hover.mouseover;top_line_hover.mouseover;bottom_line_hover.mouseover;middle_line_hover.mouseover"
		repeatCount="1"
		fill="freeze"
	/>
	<animate
		attributeName="fill"
		from="0.1"
		to="0.1"
		dur="0.1"
		values="white;#545b69"
		begin="A38_processing_engine_hover.mouseout;top_line_hover.mouseout;bottom_line_hover.mouseout;middle_line_hover.mouseout"
		repeatCount="1"
		fill="freeze"
	/>
</polygon>
</svg>