<?xml version="1.0" encoding="utf-8"?>
<!-- Generator: Adobe Illustrator 19.1.0, SVG Export Plug-In . SVG Version: 6.00 Build 0)  -->
<!DOCTYPE svg PUBLIC "-//W3C//DTD SVG 1.1//EN" "http://www.w3.org/Graphics/SVG/1.1/DTD/svg11.dtd">
<svg version="1.1" id="Layer_6" xmlns="http://www.w3.org/2000/svg" xmlns:xlink="http://www.w3.org/1999/xlink" x="0px" y="0px"
	 width="250" height="313.4px" viewBox="1135 0 250 313.4" style="enable-background:new 0 0 400 313.4;"
	 xml:space="preserve">

<style type="text/css">
	.st0{fill:none;stroke:#DCF0FF;opacity:0.5;stroke-width:0.5;stroke-linejoin:bevel;stroke-miterlimit:10;}
	.st1{fill:none;stroke:#DCF0FF;opacity:0.2;stroke-width:0.5;stroke-miterlimit:10;stroke-dasharray:50 5;stroke-dashoffset:55;}
	.st2{fill:#545b69;}
	.st3{fill:#14171d;}
	.st4{fill:none;stroke:white;stroke-width:15;opacity:0;cursor:pointer;}
	.st5{fill:none;stroke:white;stroke-width:8;opacity:0;cursor:pointer;}
	.st6{fill:none;stroke:white;stroke-width:25;opacity:0;cursor:pointer;}
</style>
<g id="stage-shapes">
	<polygon id="distributor-shape" class="st0" points="2916.4,185.7 2891.9,143.4 2916.4,101.1 2965.2,101.1 2989.6,143.4 2965.2,185.7"/>
	<path id="ingestion-shape" class="st0" d="M1261.6,185.7L1261.6,185.7c-23.7,0-42.9-19.2-42.9-42.9v0c0-23.7,19.2-42.9,42.9-42.9
		l0,0c23.7,0,42.9,19.2,42.9,42.9v0C1304.6,166.5,1285.3,185.7,1261.6,185.7z"/>
	<polygon id="processing-shape" class="st0" points="2046.6,185.7 2100.7,92 2154.8,185.7 	"/>
	<rect id="optimization-shape" x="3738.2" y="101.1" class="st0" width="84.6" height="84.6"/>
</g>
<g id="background-mess" opacity="0.5">
	<polygon class="st2" points="53,233.7 43.3,228.5 53,228.5 	"/>
	<polygon class="st2" points="617.4,31.7 617.4,35.1 621.8,35.1 	"/>
	<polygon class="st2" points="430.1,152.4 426.6,158.5 430.1,158.5 	"/>
	<polygon class="st2" points="356.3,20.1 338.7,26.1 356.8,14.6 	"/>
	<polygon class="st2" points="757.6,0 762.5,7.8 768.4,9.3 774.7,4.6 763.5,0 	"/>
	<polygon class="st2" points="1068.6,5.1 1079.4,11.7 1063,8 	"/>
	<polygon class="st2" points="868.5,23 868.1,27.3 874.2,26.8 	"/>
	<polygon class="st2" points="943.9,230.1 952.3,230.1 947.6,225.9 	"/>
	<polygon class="st2" points="1126.5,283.6 1136.9,280.7 1127,279.8 	"/>
	<polygon class="st2" points="800.3,218.4 806.4,224 807.8,217.4 	"/>
	<polygon class="st2" points="157.7,175.5 157.7,181.2 164.8,177.9 	"/>
	<polygon class="st2" points="1193.8,196.4 1186,193.4 1183.9,200.8 1188.8,200.8 	"/>
	<polygon class="st2" points="1185.9,107.3 1185.9,112.4 1191.7,109.9 	"/>
	<polygon class="st2" points="1412.5,193.4 1416.7,197.1 1420.1,193.4 	"/>
	<polygon class="st2" points="1421.2,29.2 1427.8,33.8 1430.4,31.4 	"/>
	<polygon class="st2" points="1620.3,79.4 1620.3,85.9 1628.8,85.9 1628.8,82.6 	"/>
	<polygon class="st2" points="1798.9,97 1804.7,100.1 1807.4,95.8 	"/>
	<polygon class="st2" points="1925.9,42.4 1933.6,45.2 1935.3,42.4 	"/>
	<polygon class="st2" points="1877,247.6 1884.4,247.6 1881.8,250.2 	"/>

		<rect x="2250.4" y="70" transform="matrix(0.7071 0.7071 -0.7071 0.7071 710.7456 -1571.6486)" class="st1" width="4.3" height="4.3"/>

		<rect x="2431.4" y="30" transform="matrix(0.7071 0.7071 -0.7071 0.7071 735.475 -1711.3506)" class="st1" width="4.3" height="4.3"/>

		<rect x="2463.4" y="180" transform="matrix(0.7071 0.7071 -0.7071 0.7071 850.9136 -1690.0441)" class="st1" width="4.3" height="4.3"/>

		<rect x="3070.6" y="30" transform="matrix(0.7071 0.7071 -0.7071 0.7071 922.7129 -2163.3828)" class="st1" width="4.3" height="4.3"/>

		<rect x="3066.7" y="297.2" transform="matrix(0.7071 0.7071 -0.7071 0.7071 1110.5154 -2082.355)" class="st1" width="4.3" height="4.3"/>

		<rect x="3313.8" y="217.4" transform="matrix(0.7071 0.7071 -0.7071 0.7071 1126.4738 -2280.4055)" class="st1" width="4.3" height="4.3"/>

		<rect x="3246.5" y="74.2" transform="matrix(0.7071 0.7071 -0.7071 0.7071 1005.5156 -2274.8079)" class="st1" width="4.3" height="4.3"/>

		<rect x="3910.9" y="30" transform="matrix(0.7071 0.7071 -0.7071 0.7071 1168.8262 -2757.5527)" class="st1" width="4.3" height="4.3"/>

		<rect x="3907" y="297.2" transform="matrix(0.7071 0.7071 -0.7071 0.7071 1356.6287 -2676.5249)" class="st1" width="4.3" height="4.3"/>

		<rect x="4154.1" y="217.4" transform="matrix(0.7071 0.7071 -0.7071 0.7071 1372.587 -2874.5754)" class="st1" width="4.3" height="4.3"/>

		<rect x="4086.8" y="74.2" transform="matrix(0.7071 0.7071 -0.7071 0.7071 1251.6289 -2868.9778)" class="st1" width="4.3" height="4.3"/>
	<line class="st1" x1="670.6" y1="31.1" x2="711.8" y2="42.7"/>
	<line class="st1" x1="727.3" y1="214.4" x2="699.3" y2="228"/>
	<line class="st1" x1="384.7" y1="161.9" x2="404.6" y2="173.5"/>
	<line class="st1" x1="587.4" y1="94.2" x2="583.8" y2="100.2"/>
	<line class="st1" x1="517.1" y1="25.3" x2="523.8" y2="31.1"/>
	<line class="st1" x1="388.3" y1="249" x2="397" y2="243.8"/>
	<line class="st1" x1="196.6" y1="221.2" x2="201" y2="235"/>
	<line class="st1" x1="57.4" y1="167.7" x2="50" y2="173.5"/>
	<line class="st1" x1="134.5" y1="63.7" x2="143.3" y2="69.5"/>
	<line class="st1" x1="36.1" y1="37.6" x2="90.6" y2="25.3"/>
	<line class="st1" x1="246.8" y1="7.2" x2="260.5" y2="13"/>
	<line class="st1" x1="53.7" y1="286.5" x2="68.3" y2="275.4"/>
	<line class="st1" x1="769.6" y1="246.4" x2="810" y2="263.7"/>
	<line class="st1" x1="1020.2" y1="103.3" x2="1028.4" y2="100.7"/>
	<line class="st1" x1="1148.8" y1="47.6" x2="1183.9" y2="61.1"/>
	<line class="st1" x1="1156.9" y1="221.9" x2="1179.7" y2="215.6"/>
	<line class="st1" x1="1373" y1="199.9" x2="1369.2" y2="208.6"/>
	<line class="st1" x1="1551.8" y1="81.9" x2="1542.9" y2="78.6"/>
	<line class="st1" x1="1565.8" y1="185.7" x2="1603.1" y2="177.8"/>
	<line class="st1" x1="1516.3" y1="279.6" x2="1534.5" y2="285.3"/>
	<line class="st1" x1="1609" y1="13.6" x2="1620.3" y2="10.4"/>
	<line class="st1" x1="904.1" y1="303.7" x2="921.4" y2="309.1"/>
	<line class="st1" x1="1716.8" y1="70" x2="1735.3" y2="64.4"/>
	<line class="st1" x1="1844.4" y1="37.2" x2="1853.6" y2="39.4"/>
	<line class="st1" x1="1779.3" y1="274.6" x2="1792.5" y2="270.1"/>
	<line class="st1" x1="1719.9" y1="188.7" x2="1729.9" y2="189.8"/>
	<line class="st1" x1="1941.7" y1="222" x2="1964.9" y2="214.2"/>
	<line class="st1" x1="2229.1" y1="113.9" x2="2255.6" y2="113.9"/>
	<line class="st1" x1="2325.4" y1="78.2" x2="2444.5" y2="78.2"/>
	<line class="st1" x1="2352.1" y1="172.8" x2="2400.4" y2="172.8"/>
	<line class="st1" x1="2725.6" y1="72.1" x2="2773.9" y2="72.1"/>
	<line class="st1" x1="3148.7" y1="35.2" x2="3197.1" y2="35.2"/>
	<line class="st1" x1="3186.8" y1="223.1" x2="3235.1" y2="223.1"/>
	<line class="st1" x1="2581.6" y1="208.3" x2="2630" y2="208.3"/>
	<line class="st1" x1="2465.5" y1="260.9" x2="2483.8" y2="260.9"/>
	<line class="st1" x1="2581.6" y1="38.4" x2="2599.9" y2="38.4"/>
	<line class="st1" x1="2797" y1="240.1" x2="2815.3" y2="240.1"/>
	<line class="st1" x1="3008.7" y1="45.9" x2="3027" y2="45.9"/>
	<line class="st1" x1="3319" y1="76.4" x2="3337.3" y2="76.4"/>
	<line class="st1" x1="2979.7" y1="289.1" x2="2998" y2="289.1"/>
	<line class="st1" x1="2191" y1="38.4" x2="2198.6" y2="38.4"/>
	<line class="st1" x1="2613.4" y1="87.9" x2="2621" y2="87.9"/>
	<line class="st1" x1="2932.1" y1="10.4" x2="2939.7" y2="10.4"/>
	<line class="st1" x1="2605.6" y1="294.8" x2="2613.2" y2="294.8"/>
	<line class="st1" x1="3057.4" y1="215.7" x2="3065" y2="215.7"/>
	<line class="st1" x1="3565.9" y1="72.1" x2="3614.2" y2="72.1"/>
	<line class="st1" x1="3989" y1="35.2" x2="4037.4" y2="35.2"/>
	<line class="st1" x1="4027" y1="223.1" x2="4075.4" y2="223.1"/>
	<line class="st1" x1="3637.2" y1="240.1" x2="3655.6" y2="240.1"/>
	<line class="st1" x1="3849" y1="45.9" x2="3867.3" y2="45.9"/>
	<line class="st1" x1="4159.3" y1="76.4" x2="4177.6" y2="76.4"/>
	<line class="st1" x1="3820" y1="289.1" x2="3838.3" y2="289.1"/>
	<line class="st1" x1="3772.4" y1="10.4" x2="3780" y2="10.4"/>
	<line class="st1" x1="3897.7" y1="215.7" x2="3905.3" y2="215.7"/>
	<polygon class="st2" points="1599.6,141.5 1603.4,145.8 1606.7,142.9 	"/>

	<animate
    attributeName="transform"
		type="translate"
		from="0 0"
		to="0 0"
		values="0 0;-100 0;"
		dur="40s"
		begin="0"
		repeatCount="indefinite"
		calcMode="spline"
		keySplines="0.5 0 0.5 1;0.5 0 0.5 1"
		/>
</g>
<g id="particle-lines">
	<path id="A15_A16" class="st1" d="M1073.8,61.4c0,0-8,21.4,8,43.3s46.2,35.3,46.2,35.3">
		<animate
			attributeName="opacity"
			from="0.1"
			to="0.1"
			dur="0.1"
			values="0.1;0.6;0.1;0.6"
			begin="A15_A16_hover.mouseover"
			repeatCount="1"
			fill="freeze"
		/>
		<animate
			attributeName="opacity"
			from="0.1"
			to="0.1"
			dur="0.1"
			values="0.6;0.1"
			begin="A15_A16_hover.mouseout"
			repeatCount="1"
			fill="freeze"
		/>
		<!-- dash animation -->
		<animate
			attributeName="stroke-dashoffset"
			from="55"
			to="0"
			dur="1"
			begin="0"
			repeatCount="indefinite"
		/>
	</path>
	<path id="A15_A16_hover" class="st4" d="M1073.8,61.4c0,0-8,21.4,8,43.3s46.2,35.3,46.2,35.3"/>
	<!-- // -->
	<path id="A14_A16" class="st1" d="M1063.9,198.3c0,0,4.5-12.8,31.5-28.7s32.5-29.6,32.5-29.6">
		<animate
			attributeName="opacity"
			from="0.1"
			to="0.1"
			dur="0.1"
			values="0.1;0.6;0.1;0.6"
			begin="A14_A16_hover.mouseover"
			repeatCount="1"
			fill="freeze"
		/>
		<animate
			attributeName="opacity"
			from="0.1"
			to="0.1"
			dur="0.1"
			values="0.6;0.1"
			begin="A14_A16_hover.mouseout"
			repeatCount="1"
			fill="freeze"
		/>
		<!-- dash animation -->
		<animate
			attributeName="stroke-dashoffset"
			from="55"
			to="0"
			dur="1"
			begin="0"
			repeatCount="indefinite"
		/>
	</path>
	<path id="A14_A16_hover" class="st4" d="M1063.9,198.3c0,0,4.5-12.8,31.5-28.7s32.5-29.6,32.5-29.6"/>
	<!-- // -->
	<path id="A15_A17" class="st1" d="M1073.8,61.4c0,0,30.1,4.1,52.9,33.4c22.8,29.2,47.9,30.2,47.9,30.2">
		<animate
			attributeName="opacity"
			from="0.1"
			to="0.1"
			dur="0.1"
			values="0.1;0.6;0.1;0.6"
			begin="A15_A17_hover.mouseover"
			repeatCount="1"
			fill="freeze"
		/>
		<animate
			attributeName="opacity"
			from="0.1"
			to="0.1"
			dur="0.1"
			values="0.6;0.1"
			begin="A15_A17_hover.mouseout"
			repeatCount="1"
			fill="freeze"
		/>
		<!-- dash animation -->
		<animate
			attributeName="stroke-dashoffset"
			from="55"
			to="0"
			dur="1"
			begin="0"
			repeatCount="indefinite"
		/>
	</path>
	<path id="A15_A17_hover" class="st4" d="M1073.8,61.4c0,0,30.1,4.1,52.9,33.4c22.8,29.2,47.9,30.2,47.9,30.2"/>
	<!-- // -->
	<path id="A16_A17" class="st1" d="M1127.9,140c0,0,14.6,0.2,25.4-4.2c10.8-4.4,21.2-10.8,21.2-10.8">
		<animate
			attributeName="opacity"
			from="0.1"
			to="0.1"
			dur="0.1"
			values="0.1;0.6;0.1;0.6"
			begin="A16_A17_hover.mouseover"
			repeatCount="1"
			fill="freeze"
		/>
		<animate
			attributeName="opacity"
			from="0.1"
			to="0.1"
			dur="0.1"
			values="0.6;0.1"
			begin="A16_A17_hover.mouseout"
			repeatCount="1"
			fill="freeze"
		/>
		<!-- dash animation -->
		<animate
			attributeName="stroke-dashoffset"
			from="55"
			to="0"
			dur="1"
			begin="0"
			repeatCount="indefinite"
		/>
	</path>
	<path id="A16_A17_hover" class="st4" d="M1127.9,140c0,0,14.6,0.2,25.4-4.2c10.8-4.4,21.2-10.8,21.2-10.8"/>
	<!-- // -->
	<path id="A16_A18" class="st1" d="M1127.9,140c0,0,11.1,9.4,33.5,20.1c22.4,10.8,44.2,13.5,44.2,13.5">
		<animate
			attributeName="opacity"
			from="0.1"
			to="0.1"
			dur="0.1"
			values="0.1;0.6;0.1;0.6"
			begin="A16_A18_hover.mouseover"
			repeatCount="1"
			fill="freeze"
		/>
		<animate
			attributeName="opacity"
			from="0.1"
			to="0.1"
			dur="0.1"
			values="0.6;0.1"
			begin="A16_A18_hover.mouseout"
			repeatCount="1"
			fill="freeze"
		/>
		<!-- dash animation -->
		<animate
			attributeName="stroke-dashoffset"
			from="55"
			to="0"
			dur="1"
			begin="0"
			repeatCount="indefinite"
		/>
	</path>
	<path id="A16_A18_hover" class="st4" d="M1127.9,140c0,0,11.1,9.4,33.5,20.1c22.4,10.8,44.2,13.5,44.2,13.5"/>
	<!-- // -->
	<path id="A14_A18" class="st1" d="M1063.9,198.3c0,0,30.6,10.6,76,0s65.7-24.7,65.7-24.7">
		<animate
			attributeName="opacity"
			from="0.1"
			to="0.1"
			dur="0.1"
			values="0.1;0.6;0.1;0.6"
			begin="A14_A18_hover.mouseover"
			repeatCount="1"
			fill="freeze"
		/>
		<animate
			attributeName="opacity"
			from="0.1"
			to="0.1"
			dur="0.1"
			values="0.6;0.1"
			begin="A14_A18_hover.mouseout"
			repeatCount="1"
			fill="freeze"
		/>
		<!-- dash animation -->
		<animate
			attributeName="stroke-dashoffset"
			from="55"
			to="0"
			dur="1"
			begin="0"
			repeatCount="indefinite"
		/>
	</path>
	<path id="A14_A18_hover" class="st4" d="M1063.9,198.3c0,0,30.6,10.6,76,0s65.7-24.7,65.7-24.7"/>
	<!-- // -->
	<path id="A18_A19" class="st1" d="M1205.6,173.6c0,0,18.1-8.7,20.5-17.7c2.4-8.9-4.9-13.7-4.9-13.7">
		<animate
			attributeName="opacity"
			from="0.1"
			to="0.1"
			dur="0.1"
			values="0.1;0.6;0.1;0.6"
			begin="A18_A19_hover.mouseover"
			repeatCount="1"
			fill="freeze"
		/>
		<animate
			attributeName="opacity"
			from="0.1"
			to="0.1"
			dur="0.1"
			values="0.6;0.1"
			begin="A18_A19_hover.mouseout"
			repeatCount="1"
			fill="freeze"
		/>
		<!-- dash animation -->
		<animate
			attributeName="stroke-dashoffset"
			from="55"
			to="0"
			dur="1"
			begin="0"
			repeatCount="indefinite"
		/>
	</path>
	<path id="A18_A19_hover" class="st4" d="M1205.6,173.6c0,0,18.1-8.7,20.5-17.7c2.4-8.9-4.9-13.7-4.9-13.7"/>
	<!-- // -->
	<path id="A17_A19" class="st1" d="M1174.5,124.9c0,0,8.7,8,21.8,12.2c13.1,4.2,24.8,5.2,24.8,5.2">
		<animate
			attributeName="opacity"
			from="0.1"
			to="0.1"
			dur="0.1"
			values="0.1;0.6;0.1;0.6"
			begin="A17_A19_hover.mouseover"
			repeatCount="1"
			fill="freeze"
		/>
		<animate
			attributeName="opacity"
			from="0.1"
			to="0.1"
			dur="0.1"
			values="0.6;0.1"
			begin="A17_A19_hover.mouseout"
			repeatCount="1"
			fill="freeze"
		/>
		<!-- dash animation -->
		<animate
			attributeName="stroke-dashoffset"
			from="55"
			to="0"
			dur="1"
			begin="0"
			repeatCount="indefinite"
		/>
	</path>
	<path id="A17_A19_hover" class="st4" d="M1174.5,124.9c0,0,8.7,8,21.8,12.2c13.1,4.2,24.8,5.2,24.8,5.2"/>
	<!-- // -->
	<path id="A18_A21" class="st1" d="M1205.6,173.6c0,0,17,3,34.8-8.5s24.5-11.5,24.5-11.5">
		<animate
			attributeName="opacity"
			from="0.1"
			to="0.1"
			dur="0.1"
			values="0.1;0.6;0.1;0.6"
			begin="A18_A21_hover.mouseover"
			repeatCount="1"
			fill="freeze"
		/>
		<animate
			attributeName="opacity"
			from="0.1"
			to="0.1"
			dur="0.1"
			values="0.6;0.1"
			begin="A18_A21_hover.mouseout"
			repeatCount="1"
			fill="freeze"
		/>
		<!-- dash animation -->
		<animate
			attributeName="stroke-dashoffset"
			from="55"
			to="0"
			dur="1"
			begin="0"
			repeatCount="indefinite"
		/>
	</path>
	<path id="A18_A21_hover" class="st4" d="M1205.6,173.6c0,0,17,3,34.8-8.5s24.5-11.5,24.5-11.5"/>
	<!-- // -->
	<path id="A19_A20" class="st1" d="M1221.1,142.3c0,0,6.6-6.8,16.6-11.3c10-4.5,16.6-1.9,16.6-1.9">
		<animate
			attributeName="opacity"
			from="0.1"
			to="0.1"
			dur="0.1"
			values="0.1;0.6;0.1;0.6"
			begin="A19_A20_hover.mouseover"
			repeatCount="1"
			fill="freeze"
		/>
		<animate
			attributeName="opacity"
			from="0.1"
			to="0.1"
			dur="0.1"
			values="0.6;0.1"
			begin="A19_A20_hover.mouseout"
			repeatCount="1"
			fill="freeze"
		/>
		<!-- dash animation -->
		<animate
			attributeName="stroke-dashoffset"
			from="55"
			to="0"
			dur="1"
			begin="0"
			repeatCount="indefinite"
		/>
	</path>
	<path id="A19_A20_hover" class="st4" d="M1221.1,142.3c0,0,6.6-6.8,16.6-11.3c10-4.5,16.6-1.9,16.6-1.9"/>
	<!-- // -->
	<path id="A21_A22" class="st1" d="M1264.9,153.6c0,0,14.8-0.9,17.5-5.7c2.6-4.9-9.2-12.6-9.2-12.6">
		<animate
			attributeName="opacity"
			from="0.1"
			to="0.1"
			dur="0.1"
			values="0.1;0.6;0.1;0.6"
			begin="A21_A22_hover.mouseover"
			repeatCount="1"
			fill="freeze"
		/>
		<animate
			attributeName="opacity"
			from="0.1"
			to="0.1"
			dur="0.1"
			values="0.6;0.1"
			begin="A21_A22_hover.mouseout"
			repeatCount="1"
			fill="freeze"
		/>
		<!-- dash animation -->
		<animate
			attributeName="stroke-dashoffset"
			from="55"
			to="0"
			dur="1"
			begin="0"
			repeatCount="indefinite"
		/>
	</path>
	<path id="A21_A22_hover" class="st4" d="M1264.9,153.6c0,0,14.8-0.9,17.5-5.7c2.6-4.9-9.2-12.6-9.2-12.6"/>
	<!-- // -->
	<path id="A20_A22" class="st1" d="M1254.3,129.2c0,0,4.1,3.5,9.4,5.2s9.4,0.9,9.4,0.9">
		<animate
			attributeName="opacity"
			from="0.1"
			to="0.1"
			dur="0.1"
			values="0.1;0.6;0.1;0.6"
			begin="A20_A22_hover.mouseover"
			repeatCount="1"
			fill="freeze"
		/>
		<animate
			attributeName="opacity"
			from="0.1"
			to="0.1"
			dur="0.1"
			values="0.6;0.1"
			begin="A20_A22_hover.mouseout"
			repeatCount="1"
			fill="freeze"
		/>
		<!-- dash animation -->
		<animate
			attributeName="stroke-dashoffset"
			from="55"
			to="0"
			dur="1"
			begin="0"
			repeatCount="indefinite"
		/>
	</path>
	<path id="A20_A22_hover" class="st4" d="M1254.3,129.2c0,0,4.1,3.5,9.4,5.2s9.4,0.9,9.4,0.9"/>
	<!-- // -->
	<path id="A19_A21" class="st1" d="M1221.1,142.3c0,0,22.8-0.9,32,2.1c9.3,3,11.8,9.2,11.8,9.2">
		<animate
			attributeName="opacity"
			from="0.1"
			to="0.1"
			dur="0.1"
			values="0.1;0.6;0.1;0.6"
			begin="A19_A21_hover.mouseover"
			repeatCount="1"
			fill="freeze"
		/>
		<animate
			attributeName="opacity"
			from="0.1"
			to="0.1"
			dur="0.1"
			values="0.6;0.1"
			begin="A19_A21_hover.mouseout"
			repeatCount="1"
			fill="freeze"
		/>
		<!-- dash animation -->
		<animate
			attributeName="stroke-dashoffset"
			from="55"
			to="0"
			dur="1"
			begin="0"
			repeatCount="indefinite"
		/>
	</path>
	<path id="A19_A21_hover" class="st4" d="M1221.1,142.3c0,0,22.8-0.9,32,2.1c9.3,3,11.8,9.2,11.8,9.2"/>
	<!-- // -->
	<path id="A22_A23" class="st1" d="M1273.2,135.3c0,0,9.1,7.2,26.7,5.7s30.2,6.5,30.2,6.5">
		<animate
			attributeName="opacity"
			from="0.1"
			to="0.1"
			dur="0.1"
			values="0.1;0.6;0.1;0.6"
			begin="A22_A23_hover.mouseover"
			repeatCount="1"
			fill="freeze"
		/>
		<animate
			attributeName="opacity"
			from="0.1"
			to="0.1"
			dur="0.1"
			values="0.6;0.1"
			begin="A22_A23_hover.mouseout"
			repeatCount="1"
			fill="freeze"
		/>
		<!-- dash animation -->
		<animate
			attributeName="stroke-dashoffset"
			from="55"
			to="0"
			dur="1"
			begin="0"
			repeatCount="indefinite"
		/>
	</path>
	<path id="A22_A23_hover" class="st4" d="M1273.2,135.3c0,0,9.1,7.2,26.7,5.7s30.2,6.5,30.2,6.5"/>
	<!-- // -->
	<path id="A21_A23" class="st1" d="M1264.9,153.6c0,0,9.3,2.8,27.1-4.8c16.6-7.1,38.1-1.4,38.1-1.4">
		<animate
			attributeName="opacity"
			from="0.1"
			to="0.1"
			dur="0.1"
			values="0.1;0.6;0.1;0.6"
			begin="A21_A23_hover.mouseover"
			repeatCount="1"
			fill="freeze"
		/>
		<animate
			attributeName="opacity"
			from="0.1"
			to="0.1"
			dur="0.1"
			values="0.6;0.1"
			begin="A21_A23_hover.mouseout"
			repeatCount="1"
			fill="freeze"
		/>
		<!-- dash animation -->
		<animate
			attributeName="stroke-dashoffset"
			from="55"
			to="0"
			dur="1"
			begin="0"
			repeatCount="indefinite"
		/>
	</path>
	<path id="A21_A23_hover" class="st4" d="M1264.9,153.6c0,0,9.3,2.8,27.1-4.8c16.6-7.1,38.1-1.4,38.1-1.4"/>
	<!-- // -->
	<path id="A23_A25" class="st1" d="M1330.1,147.5c0,0,10.3,3.9,31.9,0.5c21.6-3.5,29.8-12.9,29.8-12.9">
		<animate
			attributeName="opacity"
			from="0.1"
			to="0.1"
			dur="0.1"
			values="0.1;0.6;0.1;0.6"
			begin="A23_A25_hover.mouseover"
			repeatCount="1"
			fill="freeze"
		/>
		<animate
			attributeName="opacity"
			from="0.1"
			to="0.1"
			dur="0.1"
			values="0.6;0.1"
			begin="A23_A25_hover.mouseout"
			repeatCount="1"
			fill="freeze"
		/>
		<!-- dash animation -->
		<animate
			attributeName="stroke-dashoffset"
			from="55"
			to="0"
			dur="1"
			begin="0"
			repeatCount="indefinite"
		/>
	</path>
	<path id="A23_A25_hover" class="st4" d="M1330.1,147.5c0,0,10.3,3.9,31.9,0.5c21.6-3.5,29.8-12.9,29.8-12.9"/>
	<!-- // -->
	<path id="A25_A27" class="st1" d="M1391.8,135c0,0,16.7-5.8,41.4-7.5c24.7-1.7,38.9,0.5,38.9,0.5">
		<animate
			attributeName="opacity"
			from="0.1"
			to="0.1"
			dur="0.1"
			values="0.1;0.6;0.1;0.6"
			begin="A25_A27_hover.mouseover"
			repeatCount="1"
			fill="freeze"
		/>
		<animate
			attributeName="opacity"
			from="0.1"
			to="0.1"
			dur="0.1"
			values="0.6;0.1"
			begin="A25_A27_hover.mouseout"
			repeatCount="1"
			fill="freeze"
		/>
		<!-- dash animation -->
		<animate
			attributeName="stroke-dashoffset"
			from="55"
			to="0"
			dur="1"
			begin="0"
			repeatCount="indefinite"
		/>
	</path>
	<path id="A25_A27_hover" class="st4" d="M1391.8,135c0,0,16.7-5.8,41.4-7.5c24.7-1.7,38.9,0.5,38.9,0.5"/>
	<!-- // -->
	<path id="A25_A26" class="st1" d="M1391.8,135c0,0,16.2-1.4,36.2,2.1s31.8,7.4,31.8,7.4">
		<animate
			attributeName="opacity"
			from="0.1"
			to="0.1"
			dur="0.1"
			values="0.1;0.6;0.1;0.6"
			begin="A25_A26_hover.mouseover"
			repeatCount="1"
			fill="freeze"
		/>
		<animate
			attributeName="opacity"
			from="0.1"
			to="0.1"
			dur="0.1"
			values="0.6;0.1"
			begin="A25_A26_hover.mouseout"
			repeatCount="1"
			fill="freeze"
		/>
		<!-- dash animation -->
		<animate
			attributeName="stroke-dashoffset"
			from="55"
			to="0"
			dur="1"
			begin="0"
			repeatCount="indefinite"
		/>
	</path>
	<path id="A25_A26_hover" class="st4" d="M1391.8,135c0,0,16.2-1.4,36.2,2.1s31.8,7.4,31.8,7.4"/>
	<!-- // -->
	<path id="A24_A25" class="st1" d="M1318.6,127.6c0,0,11.1,0.3,36.4,7.9c25.3,7.6,36.8-0.4,36.8-0.4">
		<animate
			attributeName="opacity"
			from="0.1"
			to="0.1"
			dur="0.1"
			values="0.1;0.6;0.1;0.6"
			begin="A24_A25_hover.mouseover"
			repeatCount="1"
			fill="freeze"
		/>
		<animate
			attributeName="opacity"
			from="0.1"
			to="0.1"
			dur="0.1"
			values="0.6;0.1"
			begin="A24_A25_hover.mouseout"
			repeatCount="1"
			fill="freeze"
		/>
		<!-- dash animation -->
		<animate
			attributeName="stroke-dashoffset"
			from="55"
			to="0"
			dur="1"
			begin="0"
			repeatCount="indefinite"
		/>
	</path>
	<path id="A24_A25_hover" class="st4" d="M1318.6,127.6c0,0,11.1,0.3,36.4,7.9c25.3,7.6,36.8-0.4,36.8-0.4"/>
</g>
<g id="particles">
	<polygon id="A17" class="st2" points="1169.4,120.7 1169.8,130.6 1179.7,129.2 1176.4,119.3">
		<animate
			attributeName="fill"
			from="0.1"
			to="0.1"
			dur="0.1"
			values="#545b69;white"
			begin="A15_A17_hover.mouseover;A16_A17_hover.mouseover;A17_A19_hover.mouseover"
			repeatCount="1"
			fill="freeze"
		/>
		<animate
			attributeName="fill"
			from="0.1"
			to="0.1"
			dur="0.1"
			values="white;#545b69"
			begin="A15_A17_hover.mouseout;A16_A17_hover.mouseout;A17_A19_hover.mouseout"
			repeatCount="1"
			fill="freeze"
		/>
	</polygon>
	<polygon id="A18" class="st2" points="1201.4,178.1 1211.3,172 1200,169.2">
		<animate
			attributeName="fill"
			from="0.1"
			to="0.1"
			dur="0.1"
			values="#545b69;white"
			begin="A14_A18_hover.mouseover;A16_A18_hover.mouseover;A18_A19_hover.mouseover;A18_A21_hover.mouseover"
			repeatCount="1"
			fill="freeze"
		/>
		<animate
			attributeName="fill"
			from="0.1"
			to="0.1"
			dur="0.1"
			values="white;#545b69"
			begin="A14_A18_hover.mouseout;A16_A18_hover.mouseout;A18_A19_hover.mouseout;A18_A21_hover.mouseout"
			repeatCount="1"
			fill="freeze"
		/>
	</polygon>
	<polygon id="A19" class="st2" points="1210.3,146.1 1232,141.9 1212.7,138.6">
		<animate
			attributeName="fill"
			from="0.1"
			to="0.1"
			dur="0.1"
			values="#545b69;white"
			begin="A17_A19_hover.mouseover;A18_A19_hover.mouseover;A19_A20_hover.mouseover;A19_A21_hover.mouseover"
			repeatCount="1"
			fill="freeze"
		/>
		<animate
			attributeName="fill"
			from="0.1"
			to="0.1"
			dur="0.1"
			values="white;#545b69"
			begin="A17_A19_hover.mouseout;A18_A19_hover.mouseout;A19_A20_hover.mouseout;A19_A21_hover.mouseout"
			repeatCount="1"
			fill="freeze"
		/>
	</polygon>
	<polygon id="A20" class="st2" points="1251.7,124 1249.9,134.3 1258.8,132.5">
		<animate
			attributeName="fill"
			from="0.1"
			to="0.1"
			dur="0.1"
			values="#545b69;white"
			begin="A19_A20_hover.mouseover;A20_A22_hover.mouseover"
			repeatCount="1"
			fill="freeze"
		/>
		<animate
			attributeName="fill"
			from="0.1"
			to="0.1"
			dur="0.1"
			values="white;#545b69"
			begin="A19_A20_hover.mouseout;A20_A22_hover.mouseout"
			repeatCount="1"
			fill="freeze"
		/>
	</polygon>
	<polygon id="A21" class="st2" points="1261.6,153.2 1268.2,156 1266.8,151.3">
		<animate
			attributeName="fill"
			from="0.1"
			to="0.1"
			dur="0.1"
			values="#545b69;white"
			begin="A18_A21_hover.mouseover;A19_A21_hover.mouseover;A21_A22_hover.mouseover;A21_A23_hover.mouseover"
			repeatCount="1"
			fill="freeze"
		/>
		<animate
			attributeName="fill"
			from="0.1"
			to="0.1"
			dur="0.1"
			values="white;#545b69"
			begin="A18_A21_hover.mouseout;A19_A21_hover.mouseout;A21_A22_hover.mouseout;A21_A23_hover.mouseout"
			repeatCount="1"
			fill="freeze"
		/>
	</polygon>
	<polygon id="A22" class="st2" points="1266.8,135.8 1275.3,139.5 1279.5,135.8 1275.7,131">
		<animate
			attributeName="fill"
			from="0.1"
			to="0.1"
			dur="0.1"
			values="#545b69;white"
			begin="A20_A22_hover.mouseover;A21_A22_hover.mouseover;A22_A23_hover.mouseover"
			repeatCount="1"
			fill="freeze"
		/>
		<animate
			attributeName="fill"
			from="0.1"
			to="0.1"
			dur="0.1"
			values="white;#545b69"
			begin="A20_A22_hover.mouseout;A21_A22_hover.mouseout;A22_A23_hover.mouseout"
			repeatCount="1"
			fill="freeze"
		/>
	</polygon>
	<polygon id="A23" class="st2" points="1327.5,143 1339.3,146.3 1330.8,150.5 1320.9,151.9">
		<animate
			attributeName="fill"
			from="0.1"
			to="0.1"
			dur="0.1"
			values="#545b69;white"
			begin="A22_A23_hover.mouseover;A21_A23_hover.mouseover;A23_A25_hover.mouseover"
			repeatCount="1"
			fill="freeze"
		/>
		<animate
			attributeName="fill"
			from="0.1"
			to="0.1"
			dur="0.1"
			values="white;#545b69"
			begin="A22_A23_hover.mouseout;A21_A23_hover.mouseout;A23_A25_hover.mouseout"
			repeatCount="1"
			fill="freeze"
		/>
	</polygon>
	<polygon id="A24" class="st2" points="1316.7,123.8 1315.7,131.3 1321.4,128.5">
		<animate
			attributeName="fill"
			from="0.1"
			to="0.1"
			dur="0.1"
			values="#545b69;white"
			begin="A24_A25_hover.mouseover"
			repeatCount="1"
			fill="freeze"
		/>
		<animate
			attributeName="fill"
			from="0.1"
			to="0.1"
			dur="0.1"
			values="white;#545b69"
			begin="A24_A25_hover.mouseout"
			repeatCount="1"
			fill="freeze"
		/>
	</polygon>
</g>
</svg>