<?xml version="1.0" encoding="utf-8"?>
<!-- Generator: Adobe Illustrator 20.1.0, SVG Export Plug-In . SVG Version: 6.00 Build 0)  -->
<svg version="1.1" id="Layer_1" xmlns="http://www.w3.org/2000/svg" xmlns:xlink="http://www.w3.org/1999/xlink" x="0px" y="0px"
	 viewBox="0 0 81.9 75" style="enable-background:new 0 0 81.9 75;" xml:space="preserve">
<style type="text/css">
	.st0{opacity:0.2;fill:url(#SVGID_1_);enable-background:new    ;}
	.st1{fill:none;stroke:#7D909D;stroke-width:0.7;stroke-miterlimit:10;}
</style>
<linearGradient id="SVGID_1_" gradientUnits="userSpaceOnUse" x1="41" y1="62.2702" x2="41" y2="13.5419" gradientTransform="matrix(1 0 0 -1 0 76)">
	<stop  offset="0" style="stop-color:#7D909D"/>
	<stop  offset="0.5" style="stop-color:#7D909D;stop-opacity:0.3"/>
	<stop  offset="1" style="stop-color:#7D909D"/>
</linearGradient>
<polygon class="st0" points="55.2,62.1 55.2,29.3 26.8,12.9 26.8,45.7 "/>
<line class="st1" x1="39" y1="37.5" x2="6.1" y2="37.5"/>
<line class="st1" x1="75.8" y1="37.5" x2="43" y2="37.5"/>
<path class="st1" d="M38.1,34.6c1.6-1.6,4.2-1.6,5.8,0"/>
<path class="st1" d="M43.8,40.4c-1.6,1.6-4.2,1.6-5.8,0"/>
<path class="st1" d="M35.2,31.7c3.2-3.2,8.4-3.2,11.6,0"/>
<path class="st1" d="M46.7,43.3c-3.2,3.2-8.4,3.2-11.6,0"/>
<path class="st1" d="M36.6,33.2c2.4-2.4,6.3-2.4,8.7,0"/>
<path class="st1" d="M45.3,41.8c-2.4,2.4-6.3,2.4-8.7,0"/>
</svg>
