<?xml version="1.0" encoding="utf-8"?>
<!-- Generator: Adobe Illustrator 20.1.0, SVG Export Plug-In . SVG Version: 6.00 Build 0)  -->
<svg version="1.1" id="Layer_1" xmlns="http://www.w3.org/2000/svg" xmlns:xlink="http://www.w3.org/1999/xlink" x="0px" y="0px"
	 viewBox="0 0 81.9 75" style="enable-background:new 0 0 81.9 75;" xml:space="preserve">
<style type="text/css">
	.st0{opacity:0.2;fill:url(#SVGID_1_);enable-background:new    ;}
	.st1{fill:none;stroke:#7D909D;stroke-width:0.7;stroke-linecap:square;stroke-miterlimit:10;}
	.st2{fill:#7D909D;}
</style>
<g id="Layer_1_1_">
	<g id="Layer_3">
		<linearGradient id="SVGID_1_" gradientUnits="userSpaceOnUse" x1="41" y1="14.4395" x2="41" y2="61.4573">
			<stop  offset="0" style="stop-color:#7D909D"/>
			<stop  offset="0.5" style="stop-color:#7D909D;stop-opacity:0.3"/>
			<stop  offset="1" style="stop-color:#7D909D"/>
		</linearGradient>
		<polygon class="st0" points="55.2,45.7 55.2,12.9 26.8,29.3 26.8,62.1 		"/>
	</g>
	<g>
		<g>
			<polyline class="st1" points="75.8,41 75.8,46 70.8,46 			"/>
			<polyline class="st1" points="64,46 59,46 59,41 			"/>
			<polyline class="st1" points="59,34 59,29 64,29 			"/>
			<polyline class="st1" points="70.8,29 75.8,29 75.8,34 			"/>
		</g>
	</g>
</g>
<g id="Layer_2">
	<g>
		<rect x="65" y="35.1" class="st2" width="4.8" height="4.8"/>
		<g>
			<line class="st1" x1="10.9" y1="37.5" x2="37.9" y2="37.5"/>
			<line class="st1" x1="45.2" y1="37.5" x2="65" y2="37.5"/>
		</g>
		<path class="st2" d="M8.5,36.1c0.8,0,1.4,0.6,1.4,1.4s-0.6,1.4-1.4,1.4s-1.4-0.6-1.4-1.4S7.7,36.1,8.5,36.1 M8.5,35.1
			c-1.3,0-2.4,1.1-2.4,2.4s1.1,2.4,2.4,2.4s2.4-1.1,2.4-2.4S9.8,35.1,8.5,35.1L8.5,35.1z"/>
	</g>
</g>
</svg>
