<?xml version="1.0" encoding="utf-8"?>
<!-- Generator: Adobe Illustrator 19.1.0, SVG Export Plug-In . SVG Version: 6.00 Build 0)  -->
<!DOCTYPE svg PUBLIC "-//W3C//DTD SVG 1.1//EN" "http://www.w3.org/Graphics/SVG/1.1/DTD/svg11.dtd">
<svg version="1.1" id="Layer_1" xmlns="http://www.w3.org/2000/svg" xmlns:xlink="http://www.w3.org/1999/xlink" x="0px" y="0px"
	 width="100px" height="100px" viewBox="-349 101 100 100" style="enable-background:new -349 101 100 100;" xml:space="preserve">
<style type="text/css">
	.st0{opacity:0.15;}
	.st1{fill:none;stroke:#82DCFF;stroke-width:0.5;stroke-miterlimit:10;}
	.st2{fill:url(#SVGID_1_);}
	.st3{opacity:0.25;}
	.st4{fill:none;stroke:#82DCFF;stroke-miterlimit:10;}
</style>
<g id="Layer_4" class="st0">
	<polyline class="st1" points="-327.1,137.5 -306.3,160.9 -270.1,140.1 	"/>
	<line class="st1" x1="-303.2" y1="193.1" x2="-306.3" y2="160.9"/>
</g>
<g id="Layer_5">
	<g>
		
			<linearGradient id="SVGID_1_" gradientUnits="userSpaceOnUse" x1="-323.3119" y1="131.4399" x2="-270.5908" y2="184.0495" gradientTransform="matrix(1 0 0 -1 0 304)">
			<stop  offset="0" style="stop-color:#3C7DBD"/>
			<stop  offset="0.5044" style="stop-color:#82DCFF"/>
			<stop  offset="1" style="stop-color:#3C7DBD"/>
		</linearGradient>
		<path class="st2" d="M-286.2,144.7v-8.5l16.4-16.4l-0.6-0.8l-16.5,16.5h-8.5v8.5l-7.5,7.5h-8.5v8.5l-17.3,17.3l0.7,0.7l17.3-17.3
			h8.5v-8.5l7.5-7.5H-286.2z M-287.2,143.7h-6.5l6.5-6.5V143.7z M-294.4,136.5h6.5l-6.5,6.5V136.5z M-310.4,152.4h6.5l-6.5,6.6
			V152.4z M-303.1,159.7h-6.5l6.5-6.5V159.7z"/>
	</g>
</g>
<g id="Layer_3" class="st3">
	<polygon class="st4" points="-327.1,137.5 -303.2,109.2 -270.1,140.1 -276.7,167.9 -303.2,193.1 -324.8,159.3 	"/>
	<polyline class="st4" points="-324.8,159.3 -303.2,140.1 -303.2,109.2 	"/>
	<polyline class="st4" points="-303.2,140.1 -288.8,159.3 -270.1,140.1 	"/>
	<line class="st4" x1="-288.8" y1="159.3" x2="-303.2" y2="193.1"/>
</g>
</svg>
