<?xml version="1.0" encoding="utf-8"?>
<!-- Generator: Adobe Illustrator 19.1.0, SVG Export Plug-In . SVG Version: 6.00 Build 0)  -->
<!DOCTYPE svg PUBLIC "-//W3C//DTD SVG 1.1//EN" "http://www.w3.org/Graphics/SVG/1.1/DTD/svg11.dtd">
<svg version="1.1" id="Layer_1" xmlns="http://www.w3.org/2000/svg" xmlns:xlink="http://www.w3.org/1999/xlink" x="0px" y="0px"
	 width="100px" height="100px" viewBox="-349 101 100 100" style="enable-background:new -349 101 100 100;" xml:space="preserve">
<style type="text/css">
	.st0{opacity:0.15;}
	.st1{fill:none;stroke:#82DCFF;stroke-width:0.5;stroke-miterlimit:10;}
	.st2{fill:url(#SVG_VAL2_1);}
	.st3{fill:url(#SVG_VAL2_2);}
	.st4{fill:url(#SVG_VAL2_3);}
	.st5{fill:url(#SVG_VAL2_4);}
	.st6{opacity:0.25;}
	.st7{fill:none;stroke:#82DCFF;stroke-miterlimit:10;}
</style>
<g id="Layer_4" class="st0">
	<polyline class="st1" points="-300.5,113.8 -299,151 -282.1,159.4 	"/>
	<polyline class="st1" points="-318.5,161.9 -299,151 -294.8,170.2 -308.9,188.2 	"/>
	<line class="st1" x1="-294.8" y1="170.2" x2="-265" y2="180.1"/>
</g>
<g id="Layer_5">
	<g>

			<linearGradient id="SVG_VAL2_1" gradientUnits="userSpaceOnUse" x1="-300.4179" y1="268.5328" x2="-314.7764" y2="214.6885" gradientTransform="matrix(1 0 0 1 0 -96)">
			<stop  offset="0" style="stop-color:#82DCFF"/>
			<stop  offset="1" style="stop-color:#3C7DBD"/>
		</linearGradient>
		<polygon class="st2" points="-314.6,146 -296.4,139.2 -296.6,138.4 -314.6,144.9 -314.6,143.9 -319.6,143.9 -319.6,148.9
			-314.9,148.9 -298.9,161.9 -298.1,161.1 -314.6,147.9 		"/>

			<linearGradient id="SVG_VAL2_2" gradientUnits="userSpaceOnUse" x1="-286.7903" y1="264.8988" x2="-301.1488" y2="211.0545" gradientTransform="matrix(1 0 0 1 0 -96)">
			<stop  offset="0" style="stop-color:#82DCFF"/>
			<stop  offset="1" style="stop-color:#3C7DBD"/>
		</linearGradient>
		<polygon class="st3" points="-289.5,137.9 -284.6,137.9 -284.6,132.9 -289.5,132.9 -289.5,133.8 -309.6,124.8 -310,125.8
			-289.5,134.9 -289.5,135.8 -296.6,138.4 -296.4,139.2 -289.5,136.9 		"/>

			<linearGradient id="SVG_VAL2_3" gradientUnits="userSpaceOnUse" x1="-289.9928" y1="264.0522" x2="-307.5437" y2="198.236" gradientTransform="matrix(1 0 0 1 0 -96)">
			<stop  offset="0" style="stop-color:#82DCFF"/>
			<stop  offset="1" style="stop-color:#3C7DBD"/>
		</linearGradient>
		<polygon class="st4" points="-286.9,170.4 -298.1,161.1 -298.9,161.9 -287,171.4 -287,175.2 -282.1,175.2 -282.1,170.4 		"/>

			<linearGradient id="SVG_VAL2_4" gradientUnits="userSpaceOnUse" x1="-307.6161" y1="270.4523" x2="-321.9745" y2="216.608" gradientTransform="matrix(1 0 0 1 0 -96)">
			<stop  offset="0" style="stop-color:#82DCFF"/>
			<stop  offset="1" style="stop-color:#3C7DBD"/>
		</linearGradient>
		<path class="st5" d="M-319.1,116.9h-6v6h6V116.9z M-320.1,121.8h-4v-4h4V121.8z"/>
	</g>
</g>
<g id="Layer_3" class="st6">
	<polygon class="st7" points="-282.1,159.4 -273.9,122.1 -300.5,113.8 -329.8,124.1 -318.5,161.9 -333,180.1 -308.9,188.2
		-265,180.1 	"/>
	<polyline class="st7" points="-333,180.1 -307.4,176.4 -265,180.1 	"/>
	<polyline class="st7" points="-307.4,176.4 -305.5,165.5 -282.1,159.4 	"/>
	<polyline class="st7" points="-318.5,161.9 -305.5,165.5 -304.4,131.5 -329.8,124.1 	"/>
	<line class="st7" x1="-304.4" y1="131.5" x2="-273.9" y2="122.1"/>
</g>
</svg>
