<?xml version="1.0" encoding="utf-8"?>
<!-- Generator: Adobe Illustrator 19.1.0, SVG Export Plug-In . SVG Version: 6.00 Build 0)  -->
<!DOCTYPE svg PUBLIC "-//W3C//DTD SVG 1.1//EN" "http://www.w3.org/Graphics/SVG/1.1/DTD/svg11.dtd">
<svg version="1.1" id="Layer_1" xmlns="http://www.w3.org/2000/svg" xmlns:xlink="http://www.w3.org/1999/xlink" x="0px" y="0px"
	 width="120px" height="120px" viewBox="-237 360.9 120 120" style="enable-background:new -237 360.9 120 120;"
	 xml:space="preserve">
<style type="text/css">
	.st0{display:none;}
	.st1{display:inline;fill:url(#SVGID_1_);}
	.st2{fill:url(#a_1_);}
	.st3{opacity:0.2;fill:none;stroke:#F5F5F5;stroke-width:3;stroke-miterlimit:10;enable-background:new    ;}
	.st4{opacity:0.8;fill:#F5F5F5;enable-background:new    ;}
	.st5{opacity:0.6;fill:#F5F5F5;enable-background:new    ;}
	.st6{fill:#F5F5F5;fill-opacity:0;}
	.st7{opacity:0.2;fill:#F5F5F5;enable-background:new    ;}
	.st8{display:inline;fill:none;stroke:#FFFFFF;stroke-miterlimit:10;}
	.st9{display:inline;fill:#FFFFFF;}
</style>
<g id="Layer_4" class="st0">
	
		<radialGradient id="SVGID_1_" cx="-175.6077" cy="420.5652" r="57.4145" gradientTransform="matrix(1 0 0 -1 0 841.67)" gradientUnits="userSpaceOnUse">
		<stop  offset="0.5536" style="stop-color:#FFFFFF;stop-opacity:0.7"/>
		<stop  offset="1" style="stop-color:#FFFFFF;stop-opacity:0"/>
	</radialGradient>
	<circle class="st1" cx="-177" cy="420.9" r="60"/>
</g>
<g id="Layer_2">
	<g>
		
			<linearGradient id="a_1_" gradientUnits="userSpaceOnUse" x1="-175.65" y1="375.3245" x2="-175.65" y2="437.6356" gradientTransform="matrix(1 0 0 -1 0 841.67)">
			<stop  offset="0" style="stop-color:#8190AF"/>
			<stop  offset="1" style="stop-color:#1F2446"/>
		</linearGradient>
		<path id="a_4_" class="st2" d="M-188.7,373.3l-22.7,36l-3.1,47.7l43,11l34.7-23l-14.2-39.2L-188.7,373.3z"/>
		<path id="a_5_" class="st3" d="M-188.7,373.3l-22.7,36l-3.1,47.7l43,11l34.7-23l-14.2-39.2L-188.7,373.3z"/>
		<polygon class="st4" points="-162.5,431.3 -136.8,445 -151,405.8 -188.7,373.3 		"/>
		<polygon class="st5" points="-193.2,428.6 -188.7,373.3 -162.5,431.3 -179.8,453.9 		"/>
		<polygon class="st4" points="-214.5,457 -193.2,428.6 -188.7,373.3 -211.4,409.3 		"/>
		<polygon class="st6" points="-214.5,457 -171.5,468 -179.8,453.9 -193.2,428.6 		"/>
		<polygon class="st7" points="-179.8,453.9 -162.5,431.3 -136.8,445 -171.5,468 		"/>
	</g>
</g>
<g id="Layer_5" class="st0">
	<rect x="-208.7" y="443.6" class="st8" width="4.9" height="4.9"/>
	<rect x="-195.6" y="426.2" class="st9" width="4.9" height="4.9"/>
	<rect x="-182.3" y="451.4" class="st9" width="4.9" height="4.9"/>
	<rect x="-164.9" y="428.9" class="st9" width="4.9" height="4.9"/>
	<rect x="-147" y="438.5" class="st8" width="4.9" height="4.9"/>
	<polyline class="st8" points="-204.4,443.6 -193.2,428.6 -179.8,453.9 -162.5,431.3 -147,439.6 	"/>
</g>
</svg>
