<?xml version="1.0" encoding="utf-8"?>
<!-- Generator: Adobe Illustrator 19.1.0, SVG Export Plug-In . SVG Version: 6.00 Build 0)  -->
<!DOCTYPE svg PUBLIC "-//W3C//DTD SVG 1.1//EN" "http://www.w3.org/Graphics/SVG/1.1/DTD/svg11.dtd">
<svg version="1.1" id="Layer_2" xmlns="http://www.w3.org/2000/svg" xmlns:xlink="http://www.w3.org/1999/xlink" x="0px" y="0px"
	 width="1440px" height="1541px" viewBox="0 0 1440 1541" style="enable-background:new 0 0 1440 1541;" xml:space="preserve">
<style type="text/css">
	.st0{opacity:0.4;fill:none;stroke:#FFFFFF;stroke-miterlimit:10;}
</style>
<rect x="106.6" y="240.6" class="st0" width="8.6" height="8.6"/>
<path class="st0" d="M56.4,657.6L56.4,657.6c-2,0-3.6-1.6-3.6-3.6l0,0c0-2,1.6-3.6,3.6-3.6h0c2,0,3.6,1.6,3.6,3.6l0,0
	C60,656,58.4,657.6,56.4,657.6z"/>
<path class="st0" d="M1085.7,107L1085.7,107c-2.8,0-5.1-2.3-5.1-5.1v0c0-2.8,2.3-5.1,5.1-5.1l0,0c2.8,0,5.1,2.3,5.1,5.1v0
	C1090.8,104.7,1088.5,107,1085.7,107z"/>
<polygon class="st0" points="275.2,937.9 280,929.6 284.8,937.9 "/>
<polygon class="st0" points="81.5,1253.6 79.5,1250.1 81.5,1246.6 85.5,1246.6 87.5,1250.1 85.5,1253.6 "/>
<rect x="314.6" y="1049.3" class="st0" width="5" height="5"/>
<rect x="1349.6" y="387" class="st0" width="6" height="6"/>
<polygon class="st0" points="1187.3,540.2 1192.5,531.2 1197.7,540.2 "/>
<polygon class="st0" points="1374.3,1017.4 1371.8,1013.1 1374.3,1008.7 1379.3,1008.7 1381.8,1013.1 1379.3,1017.4 "/>
<rect x="1169.7" y="1383.7" class="st0" width="6" height="6"/>
<circle class="st0" cx="1363.1" cy="1443.3" r="3.9"/>
</svg>
